<svg xmlns="http://www.w3.org/2000/svg" viewBox="0 0 127.34 65.63"><defs><style>.a{fill:#5a3500;}.b{fill:#3a3a3a;}.c{fill:#363636;}.d{fill:#666;}.e{fill:#9e9e9e;}.f{fill:none;stroke:#363636;stroke-miterlimit:10;stroke-width:3px;}</style></defs><title>blaster</title><path class="a" d="M16.91 34.83c-7 17-18 26-3.83 30.17 13.22 3.89 11.17-10.67 15.17-30.67-7.84-.66-10.32-1.96-11.34.5z"/><path class="b" d="M0 6.9L1.54 13h10.21l9-2.84 63.35-.08V3H62.08V0h-7v3H20.55l-8.81-2H1.91A29.66 29.66 0 0 0 0 6.9z"/><path class="c" d="M40.83 29.5l.25 2.25a5.77 5.77 0 0 0-1.12 3.38c0 2 3.25 4.5 3.25 4.5s-6-.25-6-4.37a30.78 30.78 0 0 1 .25-5.25z"/><path class="d" d="M86.96 11.38l-69.69.13-.09 10.75s-2.26 2.19-2 4.75a31.9 31.9 0 0 0 2.5 7.77l9.88.37s2.13-2 4.38-1.25c2.75.87 2.38 3 2.38 3s1 3.37 2.88 4.62a9.61 9.61 0 0 0 5.56 1.5h25.32V20h19zm-44.5 30.25c-3.37 0-6.87-2.12-6.87-5.62a6 6 0 0 1 5.88-5.75c2.13 0 7.13 1.38 7.13 5.63s-2.77 5.74-6.14 5.74z"/><path class="c" d="M29.08 1H54l.21 9.95s-4.48 1.07-4.81 2.57 0 8.48 0 8.48h11.68v6h-38v-6h11v-8.44l-5-2.61V1z"/><path class="e" d="M86.08 9v13h16.77l3.36-2.12 19.13 4.38a22.56 22.56 0 0 0 2-9.06 28.29 28.29 0 0 0-2-9l-19.12 4.73L102.85 9H86.08z"/><path class="f" d="M92.58 10v11"/><circle class="c" cx="109.58" cy="12.44" r=".63"/><circle class="c" cx="109.58" cy="14.44" r=".63"/><circle class="c" cx="109.58" cy="16.44" r=".63"/><circle class="c" cx="109.58" cy="18.44" r=".63"/><circle class="c" cx="112.21" cy="11.88" r=".63"/><circle class="c" cx="112.23" cy="14.31" r=".63"/><circle class="c" cx="112.21" cy="16.5" r=".63"/><circle class="c" cx="112.16" cy="18.63" r=".63"/><circle class="c" cx="114.9" cy="11.5" r=".63"/><circle class="c" cx="115.05" cy="14.25" r=".63"/><circle class="c" cx="115.05" cy="16.69" r=".63"/><circle class="c" cx="114.73" cy="19.13" r=".63"/><circle class="c" cx="117.52" cy="10.94" r=".63"/><circle class="c" cx="117.61" cy="14.06" r=".63"/><circle class="c" cx="117.61" cy="16.88" r=".63"/><circle class="c" cx="117.31" cy="19.63" r=".63"/><circle class="c" cx="120.15" cy="10.31" r=".63"/><circle class="c" cx="120.46" cy="13.75" r=".63"/><circle class="c" cx="120.46" cy="17.06" r=".63"/><circle class="c" cx="120.15" cy="20.13" r=".63"/><circle class="c" cx="122.71" cy="9.81" r=".63"/><circle class="c" cx="123.4" cy="13.13" r=".63"/><circle class="c" cx="123.4" cy="16.94" r=".63"/><circle class="c" cx="122.71" cy="20.81" r=".63"/><rect class="d" x="37.75" y="12.83" width="9" height="7.83" rx="2.33" ry="2.33"/></svg>