<svg xmlns="http://www.w3.org/2000/svg" viewBox="0 0 81.07 68.32"><defs><style>.a{fill:#4d4d4d;}.b{fill:none;stroke:#4d4d4d;stroke-linecap:round;stroke-miterlimit:10;stroke-width:3px;}</style></defs><title>chain2</title><path class="a" d="M75.02 6.16a3 3 0 0 1 .75.09 3 3 0 0 1 2.18 3.68l-1.39 5.44a3 3 0 0 1-2.93 2.27 3 3 0 0 1-2.92-3.77l1.39-5.44a3 3 0 0 1 2.93-2.27m0-3a6 6 0 0 0-5.84 4.53l-1.39 5.44a6.025 6.025 0 0 0 11.67 3l1.39-5.44a6 6 0 0 0-5.83-7.52z"/><path class="b" d="M71.75 16.08l-7.67 10.44"/><path class="a" d="M64.58 25.29a3 3 0 0 1 1.93 5.35l-4.33 3.57a3.026 3.026 0 1 1-3.85-4.67l4.33-3.57a3 3 0 0 1 1.92-.69m0-3a6 6 0 0 0-3.83 1.37l-4.33 3.57a6.024 6.024 0 0 0 7.66 9.3l4.33-3.57a6 6 0 0 0-3.84-10.67z"/><path class="b" d="M58.32 30.52l-4.96 11.97"/><path class="a" d="M52.16 40.53A3 3 0 0 1 53.94 46l-4.54 3.3a3.02 3.02 0 1 1-3.55-4.89l4.54-3.3a3 3 0 0 1 1.77-.57m0-3a6 6 0 0 0-3.53 1.15l-4.54 3.3a6.025 6.025 0 0 0 7.08 9.75l4.54-3.3a6 6 0 0 0-3.55-10.89z"/><path class="b" d="M46.29 47.46l-10.77 7.21"/><path class="a" d="M35.67 53.06a3 3 0 0 1 .9 5.91l-5.37 1.64a3 3 0 0 1-.88.13 3 3 0 0 1-.9-5.91l5.37-1.65a3 3 0 0 1 .88-.13m0-3a6 6 0 0 0-1.77.27l-5.37 1.65a6.023 6.023 0 0 0 3.55 11.51l5.37-1.65a6 6 0 0 0-1.78-11.78z"/><path class="b" d="M29.32 57.48L16.69 60.4M74.73 1.5l1.37 7.21"/><path class="a" d="M16.33 57.97a3.02 3.02 0 0 1 .7 6l-5.47 1.29a3 3 0 0 1-.69.08 3.02 3.02 0 0 1-.7-6l5.47-1.29a3 3 0 0 1 .69-.08m0-3a6 6 0 0 0-1.38.16l-5.46 1.29a6.02 6.02 0 0 0 2.77 11.72l5.47-1.29a6 6 0 0 0-1.39-11.89z"/><path class="b" d="M8.77 62.23L1.5 61.2"/></svg>