<svg xmlns="http://www.w3.org/2000/svg" viewBox="0 0 16.43 27.43"><defs><style>.a{fill:#4d4d4d;}.b{fill:none;stroke:#4d4d4d;stroke-miterlimit:10;stroke-width:2px;}</style></defs><title>lock</title><path class="a" d="M16.4 22.99l-1.82-10.87a2.39 2.39 0 0 0-2.75-2l-9.85 1.66a2.39 2.39 0 0 0-2 2.75L1.8 25.36a2.39 2.39 0 0 0 2.75 2l9.85-1.66a2.39 2.39 0 0 0 2-2.71zm-6.45 1l-1.68.28-.55-3.28a1.65 1.65 0 1 1 1.68-.28z"/><rect class="b" x="456.22" y="655.83" width="7.38" height="14.38" rx="3.69" ry="3.69" transform="rotate(-9.56 -3682.82 3046.86)"/></svg>