<svg xmlns="http://www.w3.org/2000/svg" viewBox="0 0 93.53 51.43"><defs><style>.a{fill:#4d4d4d;}.b{fill:none;stroke:#4d4d4d;stroke-linecap:round;stroke-miterlimit:10;stroke-width:3px;}</style></defs><title>chain1</title><path class="a" d="M6.01 6.26a3 3 0 0 1 2.67 1.58l2.68 4.94a3 3 0 0 1-1.22 4.1 3 3 0 0 1-1.43.36 3 3 0 0 1-2.67-1.58l-2.68-4.94a3 3 0 0 1 1.22-4.1 3 3 0 0 1 1.43-.36m0-3a6 6 0 0 0-5.29 8.9L3.4 17.1a6.03 6.03 0 0 0 10.55-5.84l-2.68-4.94a6 6 0 0 0-5.3-3.15z"/><path class="b" d="M10.9 15.11l9.98 8.26"/><path class="a" d="M20.84 22.2a3 3 0 0 1 1.29.29l5.07 2.41a3 3 0 0 1-1.31 5.75 3 3 0 0 1-1.29-.29l-5.07-2.41a3 3 0 0 1 1.31-5.75m0-3a6.06 6.06 0 0 0-5.45 3.44 6 6 0 0 0 2.86 8l5.07 2.41a6 6 0 0 0 2.57.58 6 6 0 0 0 2.59-11.46l-5.07-2.41a6 6 0 0 0-2.57-.58z"/><path class="b" d="M27.44 25.84l7.74 10.4"/><path class="a" d="M36.47 34.33a3 3 0 0 1 .72.09l5.45 1.35a3.024 3.024 0 0 1-1.46 5.87l-5.44-1.38a3.022 3.022 0 0 1 .73-6m0-3a6 6 0 0 0-1.45 11.87l5.45 1.35a6.022 6.022 0 0 0 2.9-11.69l-5.42-1.29a6 6 0 0 0-1.45-.18z"/><path class="b" d="M44.24 39.33l12.21 4.37"/><path class="a" d="M57.64 42.09h.16l5.61.29a3 3 0 0 1-.16 6h-.16l-5.61-.29a3 3 0 0 1 .16-6m0-3a6.002 6.002 0 0 0-.31 12l5.61.29h.32a6.002 6.002 0 0 0 .31-12l-5.61-.29h-.32z"/><path class="b" d="M64.15 44.91l12.95-.25M5.24 1.5l-.21 7.24"/><path class="a" d="M83.21 42.05a3 3 0 0 1 3 3 3 3 0 0 1-3 3.07l-5.62.08a3 3 0 0 1 0-6l5.62-.08m0-3h-.09l-5.62.08a6 6 0 0 0-5.94 6.11 6 6 0 0 0 6 5.94h.08l5.62-.08a6 6 0 0 0 5.94-6.11 6 6 0 0 0-6-5.94z"/><path class="b" d="M85.24 44.5l6.79-2.77"/></svg>