<svg xmlns="http://www.w3.org/2000/svg" viewBox="0 0 164.94 257.14"><defs><style>.a{fill:#16246d;}.b{fill:#eacfa2;}.c{fill:#603813;}.d{fill:#a5a6ad;}.e{fill:#42210b;}.f{fill:#8c6239;}.g{fill:#a67c52;}</style></defs><title>han</title><path class="a" d="M134.34 185.52H35.67a6.52 6.52 0 0 0-6.5 6.5v41c0 3.57 9.92 11.5 13.5 11.5h85.67c3.57 0 12.5-7.93 12.5-11.5v-41a6.52 6.52 0 0 0-6.5-6.5z"/><path class="b" d="M139.52 186.85c6.6 0 6 16.67 6-22l-2-61.5c-11 .5-15 13-34.5 15l-21.35 38.12h-4.15l-21.35-38.12c-19.5-2-23.5-14.5-34.5-15l-2 61.5c0 38.67-1.6 22 5 22 0 0 40.76 6 54.5 6s54.35-6 54.35-6z"/><path class="c" d="M92.5 207.18l48.67-15.66s1.47-9.68-1-8.67c-38 15.67-50.67 14-50.67 14zM76.6 207.18l-48.66-15.66s-1.47-9.68 1-8.67c38 15.67 50.67 14 50.67 14z"/><path class="c" d="M74.17 206.68a107.34 107.34 0 0 1-44.33 10.83c0 .71-4 .4-4 1.08 0 27 .67 37.92.67 37.92s9.57 1.41 9.67 0c1.67-25 13.67-35.67 39.33-43s5-7 5-7l-1-2.67z"/><path class="d" d="M78.17 195.85h14l3.66 10.83-3.66 5.17h-14l-4-5.17 4-10.83"/><path class="e" d="M25.83 223.85h6v32.67h-6z"/><path d="M15.67 110.85s4.44-8.57 12.5-7c11.17 2.17 10.5 28.5 36.5 30.5-3.5 24-7.5 58.5-10.5 63-8 8-30.74 3.83-35.4 1.17s-6.1-11.67-3.1-87.67zM155.1 110.85s-4.44-8.57-12.5-7c-11.17 2.17-10.5 28.5-36.5 30.5 3.5 24 7.5 58.5 10.5 63 8 8 30.74 3.83 35.4 1.17s6.1-11.67 3.1-87.67z"/><path class="f" d="M86 44.18c14.25-.07 28.12-7.47 34.17-5.33 6.71 2.37 23.67 6.33 20.67 49.33.9-1.2 5.73-.47 6.49-1.74.59-8.1 3.72-15.4 5.51-12.93 5.32 7.36 10.75-11.36 10.77-13.29.06-5.88 1.52-12.17 1.31-13.13-1.11 1.81-7 5.5-10 5 0 0 2.28-8.6 1.75-13.92-.31-3.1-1.94-6.88-4.65-10.66a53.53 53.53 0 0 0-8.84-9.2c-1.81-1.45 7.56.35 10.24 1.65-9-12.75-16.68-13.74-22.8-12.52-4.16.83 5.3-3.35 13.18-2.85-18.87-11.5-26 2.4-29.11.72-2.4-1.3-7.94-.92-9.76-1.72a17.79 17.79 0 0 0-18 2s-20-5.18-25.75-4.5c-21 2.5-23 15.2-30.33 21.75-10.33 9.17-19 .83-25.83-1 1.5 3.5 7.63 11.56 7.5 12.83-.39 3.87-6 4.67-12.5 2 2.17 4.67 8 13.17 8 13.17S5.69 59.01.19 58.01c1.33 3 12 22.19 17.33 14.83 1.39-1.93 6.42 9.5 8 16.46.54 2.45 5.73-2.58 6.54-.55-5.56-41.9 12.44-44.23 17.61-47.4 2.75-1.68 21.58 2.91 36.33 2.83z"/><path class="g" d="M57 19.85s-7.33 1.33-9.67 2.67 11.33-.5 13.17.33 11.33 6.17 10.5 9.67-3.5 4.67-2 6.33 3.33 4.33 4.83 3.5-1.17-15.33-2.33-17-9.16-3.83-14.5-5.5z"/><path class="c" d="M63.42 41.6s11.5 0 10.75-2.42c-1.2-3.87 4.67-15.67-19.33-18.67s11-2 14.67 0 10.82 15.83 13 17.33 4 4.33 6 4.67-1-6.33-1.33-9.33 0-12-3.67-15-13-8.33-21-6.67-14.67 2.34-14.67 2.34 14.67-8 23-5.67 18.33 9.33 18.67 11.33 2.33 17 4.67 18.33 5.33 4 8 1.67 5.33-3.67 5.67-6 8.83 5.08 8.83 5.08-24.18 6.26-27.84 6.26-25.42-3.25-25.42-3.25zM45.92 42.85s-7.75 1-11.42 1.33 5.67 1.33 3.67 3-5.67 6.67-8.67 6.67 4 .33 3.33 4 6.84-10.75 13.09-15zM6.17 23.18s8.67 10.33 21.67 14.83c-3.33.33-10.49 1.32-14.5-.5-3.67-1.66-3.5-9.49-7.17-14.33zM1.3 39.23s9.79 8.29 10.13 9.63 4.25 4 5.08 6.67C8.05 51.98 5.96 46.85 1.3 39.23zM.67 58.6s9.38 6.88 12.25 8.75c-4.37.5-9.25-3.5-9.25-3.5a41 41 0 0 1-3-5.25z"/><path class="g" d="M38.34 31.02s11.33-2 16.83 2.67-3.67-4.84-6-5.84-9.67 2.17-10.83 3.17zM50.84 12.68s-4.33 2.33-3.33 2.5 21.33-1.83 26.67 2c11 9.5 6.33 21.17 14.5 26.5s-.17-12.67-.17-12.67-2.34-13.49-3.67-14.16-15.67-7-19.83-7-14.17 2.83-14.17 2.83zM91.63 9.44s4.2 5.4 4.5 8.1.45 7.2.45 7.2l5.85-4.95 2.4 6.9s4.5-5.85 6.6-6.6 2.85 7.5 3.9 7.8 1.8-6 3.9-8 1.5 12.15 1.5 12.15 4.24-13.84 9.15-17.25c-6 .15-9.45.3-13.95 3.15-1.05.75-1.5-3.9-1.5-3.9s-5.1 2.7-6.9 4.65-2.25-7.05-2.25-7.05-3.75 4.2-5.1 5-2.25-4.79-8.55-7.2zM122.17 37.35s.17-6.17 10.17-6.33 12.17 14.83 12.17 15.67a.68.68 0 0 0 1.33.17c.17-.67 1.1-12.4-4.83-16.67-4.75-3.42-7.42-2.25-8.08-2.25s-8.92 1.25-11.42 8.42c-.59 1.74.66.99.66.99z"/><path class="c" d="M121.84 35.68s3.67-7.5 11.5-7.67c10-.21 12.17 14.83 12.17 15.67 0 0 1 2.58 1.17 1.92s1.26-14.15-4.67-18.42c-4.75-3.42-7.42-2.23-8.08-2.25-2.25-.08-10.08 2.83-12.58 10-.6 1.75.49.75.49.75zM124.88 40.85c-.24-.17 11.05 1.77 13.74 4.07 1.41 1.21-5.74 1.48-5.74 1.48s4.62 3.7 6 4.54c-2.43 1.69-.56 4.6-.68 5.63-.82-.36-7.4-11.41-13.32-15.72zM144.17 54.85s2.67 9 7.33 7 4.67-12 4.67-12 1.33-12.67.5-14.33-1.67-1.67-1.67-1.67.67 7.5-.17 10.67-5.99 8.66-10.66 10.33zM152.05 71.73a3.4 3.4 0 0 0 3.5-1.75c2.38-2.87 5.46-9.12 8.21-13.79.75 5.25-2.71 18.42-6.83 19s-4.88-3.46-4.88-3.46z"/></svg>