<svg xmlns="http://www.w3.org/2000/svg" viewBox="0 0 233.72 290.57"><defs><style>.a,.f,.g{fill:none;}.b,.c,.h{fill:#003767;}.b,.d,.f,.g,.h,.i,.j{stroke:#003767;}.b,.d,.i,.j{stroke-miterlimit:10;}.b{stroke-width:0.28px;}.d{fill:#fff;}.d,.g,.h,.i{stroke-width:5.67px;}.e{fill:url(#a);}.f,.g,.h{stroke-linecap:round;stroke-linejoin:round;}.f{stroke-width:8.5px;}.i{fill:#ffd77d;}.j{fill:#ffe9c7;stroke-width:5.39px;}.k{fill:#16246d;}.l{fill:#eacfa2;}.m{fill:#603813;}.n{fill:#a5a6ad;}.o{fill:#42210b;}.p{fill:#8c6239;}.q{fill:#a67c52;}</style><pattern id="a" width="48.13" height="36.21" patternTransform="matrix(2 0 0 2 -185.48 -174.82)" patternUnits="userSpaceOnUse" viewBox="0 0 48.13 36.2"><path class="a" d="M0 0h48.13v36.21H0z"/><path class="b" d="M47.33 33.19a.19.19 0 0 0 .14-.06.2.2 0 0 0 .07-.13.19.19 0 0 0-.06-.14.2.2 0 0 0-.28 0 .22.22 0 0 0-.06.15.21.21 0 0 0 .05.14.2.2 0 0 0 .14.04zM46.52 34a.2.2 0 0 0 .14-.05.2.2 0 0 0 .07-.15.2.2 0 0 0-.41 0 .23.23 0 0 0 .06.14.21.21 0 0 0 .14.06zM45.72 34.8a.19.19 0 0 0 .15-.06.2.2 0 0 0 .05-.14.19.19 0 0 0-.06-.14.21.21 0 0 0-.28 0 .19.19 0 0 0-.06.14.19.19 0 0 0 .06.14.18.18 0 0 0 .14.06zM44.92 35.61a.22.22 0 0 0 .14-.06.21.21 0 0 0 .06-.15.2.2 0 0 0-.34-.14.19.19 0 0 0-.06.14.18.18 0 0 0 .06.15.21.21 0 0 0 .14.06zM47.34 29.17a.21.21 0 0 0 .2-.2.21.21 0 0 0-.06-.14.2.2 0 0 0-.29 0 .21.21 0 0 0-.05.14.19.19 0 0 0 .06.14.16.16 0 0 0 .14.06zM46.53 30a.22.22 0 0 0 .14-.05.2.2 0 0 0 .07-.15.2.2 0 1 0-.35.14.2.2 0 0 0 .14.06zM45.73 30.77a.21.21 0 0 0 .15-.06.21.21 0 0 0 .05-.14.23.23 0 0 0-.05-.14.21.21 0 0 0-.29 0 .2.2 0 0 0-.06.14.19.19 0 0 0 .07.15.18.18 0 0 0 .13.05zM44.92 31.58a.21.21 0 0 0 .14-.05.22.22 0 0 0 .06-.15.24.24 0 0 0-.05-.14.22.22 0 0 0-.3 0 .18.18 0 0 0-.05.13.21.21 0 0 0 .06.15.21.21 0 0 0 .14.06zM44.12 32.39a.19.19 0 0 0 .14-.06.2.2 0 0 0 .06-.14.21.21 0 0 0-.06-.19.22.22 0 0 0-.26 0 .21.21 0 0 0-.05.14.23.23 0 0 0 .05.14.21.21 0 0 0 .12.11zM43.32 33.19a.18.18 0 0 0 .14-.06.19.19 0 0 0 .06-.13.21.21 0 0 0-.07-.15.2.2 0 0 0-.33.15.19.19 0 0 0 .06.14.18.18 0 0 0 .14.05zM42.51 34a.22.22 0 0 0 .14-.05.2.2 0 0 0 .07-.15.2.2 0 1 0-.4 0 .19.19 0 0 0 .19.2zM41.71 34.8a.2.2 0 0 0 .15-.06.2.2 0 0 0 0-.28.21.21 0 0 0-.28 0 .19.19 0 0 0-.06.14.18.18 0 0 0 .06.14.18.18 0 0 0 .13.06zM40.9 35.61a.19.19 0 0 0 .1-.07.17.17 0 0 0 .06-.14.2.2 0 0 0-.06-.14.2.2 0 0 0-.28 0 .22.22 0 0 0-.06.14.21.21 0 0 0 .05.14.23.23 0 0 0 .19.07zM47.35 25.14a.2.2 0 0 0 .14-.06.19.19 0 0 0 .06-.14.19.19 0 0 0-.06-.14.2.2 0 0 0-.34.14.19.19 0 0 0 .06.14.18.18 0 0 0 .14.06zM46.54 25.95a.2.2 0 0 0 .15-.06.21.21 0 0 0 .06-.14.22.22 0 0 0-.06-.14.21.21 0 0 0-.29 0 .19.19 0 0 0-.06.14.19.19 0 0 0 .07.14.17.17 0 0 0 .13.06zM45.73 26.75a.2.2 0 0 0 .2-.2.22.22 0 0 0-.05-.14.21.21 0 0 0-.29 0 .19.19 0 0 0-.06.14.2.2 0 0 0 .2.2zM44.93 27.55a.21.21 0 0 0 .14-.05.22.22 0 0 0 .06-.15.18.18 0 0 0-.06-.13.2.2 0 0 0-.34.13.21.21 0 0 0 .06.15.2.2 0 0 0 .14.05zM44.13 28.36a.2.2 0 0 0 .14-.06.2.2 0 0 0 .06-.14.18.18 0 0 0-.06-.16.2.2 0 0 0-.27 0 .2.2 0 0 0 .13.36zM43.33 29.17a.21.21 0 0 0 .2-.2.19.19 0 0 0-.06-.14.2.2 0 0 0-.28 0 .23.23 0 0 0-.07.15.2.2 0 0 0 .07.14.17.17 0 0 0 .14.05zM42.51 30a.2.2 0 0 0 .15-.06.19.19 0 0 0 .06-.14.2.2 0 0 0-.35-.14.21.21 0 0 0-.06.14.19.19 0 0 0 .06.14.18.18 0 0 0 .14.06zM41.71 30.77a.19.19 0 0 0 .15-.06.21.21 0 0 0 .05-.14.18.18 0 0 0-.06-.14.2.2 0 0 0-.28 0 .18.18 0 0 0-.06.13.19.19 0 0 0 .06.14.18.18 0 0 0 .14.07zM40.91 31.58a.2.2 0 0 0 .2-.2.24.24 0 0 0-.05-.14.2.2 0 0 0-.29 0 .17.17 0 0 0-.06.13.21.21 0 0 0 .06.15.22.22 0 0 0 .14.06zM40.11 32.39a.19.19 0 0 0 .14-.06.2.2 0 0 0 .06-.14.21.21 0 0 0-.06-.19.22.22 0 0 0-.25 0 .21.21 0 0 0-.05.14.23.23 0 0 0 .05.14.22.22 0 0 0 .11.11zM39.3 33.19a.21.21 0 0 0 .2-.2.22.22 0 0 0-.07-.15.2.2 0 0 0-.33.15.19.19 0 0 0 .05.14.2.2 0 0 0 .15.06zM38.49 34a.21.21 0 0 0 .15-.06.2.2 0 0 0 .06-.14.19.19 0 0 0-.07-.14.21.21 0 0 0-.28 0 .21.21 0 0 0-.06.14.23.23 0 0 0 .06.14.21.21 0 0 0 .14.06zM37.69 34.8a.2.2 0 0 0 .14-.05.21.21 0 0 0 .06-.15.18.18 0 0 0-.06-.14.21.21 0 0 0-.28 0 .18.18 0 0 0-.06.13.18.18 0 0 0 .06.14.19.19 0 0 0 .14.07zM36.89 35.6a.2.2 0 0 0 .2-.2.18.18 0 0 0-.09-.14.2.2 0 0 0-.28 0 .2.2 0 0 0 0 .29.21.21 0 0 0 .17.05zM47.35 21.12a.2.2 0 0 0 .14-.06.2.2 0 0 0 .06-.14.19.19 0 0 0-.06-.14.2.2 0 0 0-.28 0 .21.21 0 0 0-.06.15.22.22 0 0 0 .05.14.21.21 0 0 0 .15.05zM46.54 21.92a.19.19 0 0 0 .15-.06.22.22 0 0 0 .06-.14.21.21 0 0 0-.35-.14.22.22 0 0 0-.06.14.2.2 0 0 0 .2.2zM45.74 22.73a.19.19 0 0 0 .2-.2.22.22 0 0 0-.05-.14.21.21 0 0 0-.29 0 .19.19 0 0 0-.06.14.24.24 0 0 0 .06.15.21.21 0 0 0 .14.05zM44.94 23.54a.2.2 0 0 0 .14-.06.19.19 0 0 0 .06-.14.2.2 0 0 0-.06-.15.21.21 0 0 0-.28 0 .2.2 0 0 0-.06.15.2.2 0 0 0 .05.13.19.19 0 0 0 .15.07zM44.14 24.34a.19.19 0 0 0 .14-.07.17.17 0 0 0 .06-.13A.2.2 0 0 0 44 24a.18.18 0 0 0-.06.14.19.19 0 0 0 .06.14.21.21 0 0 0 .14.06zM43.33 25.14a.19.19 0 0 0 .14-.06.19.19 0 0 0 .06-.14.2.2 0 0 0-.06-.15.21.21 0 0 0-.29 0 .21.21 0 0 0-.05.14.24.24 0 0 0 .05.14.22.22 0 0 0 .15.07zM42.52 25.95a.21.21 0 0 0 .15-.06.22.22 0 0 0 .06-.14.19.19 0 0 0-.07-.14.2.2 0 0 0-.28 0 .21.21 0 0 0-.06.14.21.21 0 0 0 .06.14.19.19 0 0 0 .14.06zM41.72 26.75a.2.2 0 0 0 .15-.06.21.21 0 0 0 .05-.14.18.18 0 0 0-.06-.14.21.21 0 0 0-.28 0 .19.19 0 0 0-.06.14.2.2 0 0 0 .06.14.18.18 0 0 0 .14.06zM40.92 27.55a.18.18 0 0 0 .14-.06.17.17 0 0 0 .06-.14.2.2 0 0 0-.34-.14.22.22 0 0 0-.06.14.21.21 0 0 0 .2.2zM40.11 28.36a.19.19 0 0 0 .14-.06.21.21 0 0 0 .06-.14A.2.2 0 0 0 40 28a.18.18 0 0 0-.05.14.2.2 0 0 0 .06.14.18.18 0 0 0 .1.08zM39.31 29.17a.19.19 0 0 0 .14-.06.21.21 0 0 0 .06-.11.21.21 0 0 0-.07-.15.2.2 0 0 0-.33.15.21.21 0 0 0 .05.14.2.2 0 0 0 .15.03zM38.5 30a.2.2 0 0 0 .15-.06.21.21 0 0 0 0-.28.22.22 0 0 0-.29 0 .22.22 0 0 0-.06.15.22.22 0 0 0 .06.14.2.2 0 0 0 .14.05zM37.7 30.77a.21.21 0 0 0 .15-.06.2.2 0 0 0 .05-.14.23.23 0 0 0-.05-.14.21.21 0 0 0-.29 0 .18.18 0 0 0-.06.14.21.21 0 0 0 .07.15.18.18 0 0 0 .13.05zM36.89 31.58a.22.22 0 0 0 .11-.06.21.21 0 0 0 .06-.15.2.2 0 0 0-.06-.14.2.2 0 0 0-.28 0 .17.17 0 0 0-.06.13.21.21 0 0 0 .06.15.22.22 0 0 0 .17.07zM36.09 32.39a.19.19 0 0 0 .14-.07.18.18 0 0 0 .06-.13A.2.2 0 0 0 36 32a.22.22 0 0 0-.06.15.19.19 0 0 0 .06.14.21.21 0 0 0 .09.1zM35.29 33.19a.19.19 0 0 0 .14-.06.21.21 0 0 0 .06-.13.22.22 0 0 0-.07-.15.2.2 0 0 0-.28.29.2.2 0 0 0 .15.05zM34.48 34a.2.2 0 0 0 .15-.06.21.21 0 0 0 .05-.14.2.2 0 0 0-.05-.14.2.2 0 0 0-.35.14.21.21 0 0 0 .2.2zM33.67 34.8a.21.21 0 0 0 .15-.06.19.19 0 0 0 .05-.14.18.18 0 0 0-.06-.14.21.21 0 0 0-.28 0 .17.17 0 0 0-.06.13.18.18 0 0 0 .06.14.19.19 0 0 0 .14.07zM32.87 35.6a.19.19 0 0 0 .13-.06.17.17 0 0 0 .06-.14.19.19 0 0 0-.06-.14.2.2 0 0 0-.34.14.21.21 0 0 0 .06.15.2.2 0 0 0 .15.05zM47.36 17.1a.2.2 0 0 0 .2-.2.19.19 0 0 0-.06-.14.2.2 0 0 0-.28 0 .2.2 0 0 0-.06.15.18.18 0 0 0 .06.14.21.21 0 0 0 .14.05zM46.55 17.9a.21.21 0 0 0 .15-.06.19.19 0 0 0 .06-.14.21.21 0 0 0-.06-.14.2.2 0 0 0-.29 0 .2.2 0 0 0-.05.14.21.21 0 0 0 .05.14.2.2 0 0 0 .14.06zM45.75 18.71a.2.2 0 0 0 .14-.05.22.22 0 0 0 .06-.15.18.18 0 0 0-.06-.14.2.2 0 0 0-.28 0 .2.2 0 0 0-.06.14.19.19 0 0 0 .06.14.2.2 0 0 0 .14.06zM44.94 19.51a.21.21 0 0 0 .14-.05.22.22 0 0 0 .06-.15.19.19 0 0 0-.06-.14.2.2 0 0 0-.28 0 .19.19 0 0 0-.06.14.21.21 0 0 0 .06.15.22.22 0 0 0 .14.05zM44.14 20.32a.2.2 0 0 0 .14-.06.2.2 0 0 0 .06-.14.2.2 0 0 0-.06-.12.21.21 0 0 0-.28 0 .19.19 0 0 0-.05.14.2.2 0 0 0 .06.14.22.22 0 0 0 .13.04zM43.34 21.12a.21.21 0 0 0 .14-.06.19.19 0 0 0 0-.28.2.2 0 0 0-.28 0 .2.2 0 0 0-.06.15.18.18 0 0 0 .06.14.2.2 0 0 0 .14.05zM42.53 21.92a.2.2 0 0 0 .15-.06.2.2 0 0 0 .06-.14.22.22 0 0 0-.06-.14.21.21 0 0 0-.29 0 .22.22 0 0 0-.06.14.22.22 0 0 0 .06.14.18.18 0 0 0 .14.06zM41.73 22.73a.18.18 0 0 0 .14-.06.2.2 0 0 0 .06-.14.18.18 0 0 0-.06-.14.2.2 0 0 0-.28 0 .18.18 0 0 0-.06.13.19.19 0 0 0 .06.14.2.2 0 0 0 .14.07zM40.92 23.54a.21.21 0 0 0 .15-.07.17.17 0 0 0 .05-.13.2.2 0 0 0-.06-.15.21.21 0 0 0-.28 0 .18.18 0 0 0-.06.14.22.22 0 0 0 .06.14.2.2 0 0 0 .14.07zM40.12 24.34a.23.23 0 0 0 .14-.06.21.21 0 0 0 .06-.14.2.2 0 0 0-.06-.14.22.22 0 0 0-.26 0 .2.2 0 0 0-.05.14.21.21 0 0 0 .06.14.21.21 0 0 0 .11.06zM39.32 25.14a.19.19 0 0 0 .14-.06.18.18 0 0 0 .06-.14.21.21 0 0 0-.07-.15.2.2 0 0 0-.34.15.22.22 0 0 0 .05.14.21.21 0 0 0 .16.06zM38.51 25.95a.21.21 0 0 0 .15-.06.22.22 0 0 0 .06-.14.19.19 0 0 0-.07-.14.2.2 0 0 0-.28 0 .21.21 0 0 0-.06.14.19.19 0 0 0 .06.14.21.21 0 0 0 .14.06zM37.7 26.75a.21.21 0 0 0 .15-.06.21.21 0 0 0 .05-.14.19.19 0 0 0-.06-.14.21.21 0 0 0-.28 0 .18.18 0 0 0-.06.14.24.24 0 0 0 .06.15.2.2 0 0 0 .14.05zM36.9 27.55a.19.19 0 0 0 .1-.33.2.2 0 0 0-.28 0 .2.2 0 0 0 0 .29.21.21 0 0 0 .18.04zM36.1 28.36a.21.21 0 0 0 .2-.2.19.19 0 0 0-.06-.16.2.2 0 0 0-.24 0 .2.2 0 0 0-.06.15.18.18 0 0 0 .06.14.2.2 0 0 0 .1.07zM35.29 29.17a.18.18 0 0 0 .14-.06.2.2 0 0 0 .06-.11.19.19 0 0 0-.06-.14.21.21 0 0 0-.28 0 .22.22 0 0 0-.06.15.2.2 0 0 0 .05.14.2.2 0 0 0 .15.02zM34.48 30a.19.19 0 0 0 .15-.06.2.2 0 0 0 .05-.14.2.2 0 0 0-.34-.14.19.19 0 0 0 0 .28.2.2 0 0 0 .14.06zM33.68 30.77a.2.2 0 0 0 .15-.06.2.2 0 0 0 .05-.14.19.19 0 0 0-.06-.14.21.21 0 0 0-.28 0 .2.2 0 0 0-.06.14.19.19 0 0 0 .06.14.18.18 0 0 0 .14.06zM32.88 31.58a.2.2 0 0 0 .12-.06.19.19 0 0 0 .06-.15.18.18 0 0 0-.06-.14.22.22 0 0 0-.28 0 .21.21 0 0 0-.06.14.18.18 0 0 0 .06.14.19.19 0 0 0 .16.07zM32.07 32.39a.19.19 0 0 0 .14-.06.19.19 0 0 0 .06-.14.23.23 0 0 0-.06-.19.22.22 0 0 0-.29 0 .21.21 0 0 0-.05.14.23.23 0 0 0 .05.14.22.22 0 0 0 .15.11zM31.27 33.19a.19.19 0 0 0 .14-.06.21.21 0 0 0 .06-.13.25.25 0 0 0-.06-.15.22.22 0 0 0-.29 0 .22.22 0 0 0-.05.14.21.21 0 0 0 .05.14.19.19 0 0 0 .15.06zM30.46 34a.2.2 0 0 0 .15-.06.21.21 0 0 0 .05-.14.2.2 0 0 0-.05-.14.21.21 0 0 0-.29 0 .22.22 0 0 0-.06.14.21.21 0 0 0 .07.15.18.18 0 0 0 .13.05zM29.66 34.8a.2.2 0 0 0 .14-.05.21.21 0 0 0 .06-.15.19.19 0 0 0-.06-.14.21.21 0 0 0-.28 0 .21.21 0 0 0-.06.14.19.19 0 0 0 .06.14.19.19 0 0 0 .14.06zM28.85 35.6a.19.19 0 0 0 .15-.06.17.17 0 0 0 .06-.14.19.19 0 0 0-.06-.14.21.21 0 0 0-.28 0 .2.2 0 0 0-.06.14.2.2 0 0 0 .19.2zM47.37 13.08a.19.19 0 0 0 .14-.08.2.2 0 0 0 .06-.14.18.18 0 0 0-.06-.14.2.2 0 0 0-.34.14.2.2 0 0 0 .06.14.18.18 0 0 0 .14.08zM46.56 13.88a.19.19 0 0 0 .14-.06.21.21 0 0 0 .06-.14.19.19 0 0 0-.06-.14.2.2 0 0 0-.28 0 .21.21 0 0 0 0 .29.21.21 0 0 0 .14.05zM45.75 14.68a.21.21 0 0 0 .15-.06.2.2 0 0 0 .1-.14.21.21 0 0 0-.06-.14.21.21 0 0 0-.29 0 .22.22 0 0 0-.06.14.21.21 0 0 0 .07.15.18.18 0 0 0 .09.05zM45 15.49a.18.18 0 0 0 .14-.06.19.19 0 0 0 .06-.14.19.19 0 0 0-.06-.14.2.2 0 0 0-.28 0 .18.18 0 0 0-.06.13.21.21 0 0 0 .06.15.21.21 0 0 0 .14.06zM44.15 16.3a.19.19 0 0 0 .14-.07.17.17 0 0 0 .06-.14.2.2 0 0 0-.35-.14.2.2 0 0 0-.06.14.21.21 0 0 0 .21.21zM43.35 17.1a.21.21 0 0 0 .2-.2.21.21 0 0 0-.07-.15.21.21 0 0 0-.28 0 .2.2 0 0 0-.05.14.2.2 0 0 0 .06.14.18.18 0 0 0 .14.07zM42.54 17.9a.21.21 0 0 0 .15-.06.19.19 0 0 0 .06-.14.21.21 0 0 0-.06-.14.21.21 0 0 0-.29 0 .2.2 0 0 0-.05.14.2.2 0 0 0 .05.14.19.19 0 0 0 .14.06zM41.73 18.71a.21.21 0 0 0 .15-.06.19.19 0 0 0 .05-.14.18.18 0 0 0-.06-.14.2.2 0 0 0-.28 0 .19.19 0 0 0-.06.14.18.18 0 0 0 .06.14.19.19 0 0 0 .14.06zM40.93 19.51a.21.21 0 0 0 .15-.06.2.2 0 0 0 .05-.14.19.19 0 0 0-.06-.14.21.21 0 0 0-.28 0 .21.21 0 0 0-.06.14.2.2 0 0 0 .06.14.18.18 0 0 0 .14.06zM40.13 20.31a.2.2 0 0 0 .14-.05.2.2 0 0 0 .06-.15.19.19 0 0 0-.06-.11.21.21 0 0 0-.27 0 .18.18 0 0 0-.05.13.2.2 0 0 0 .06.15.2.2 0 0 0 .12.03zM39.32 21.12a.19.19 0 0 0 .14-.07.18.18 0 0 0 .06-.13.24.24 0 0 0-.06-.15.22.22 0 0 0-.29 0 .2.2 0 0 0-.05.14.19.19 0 0 0 .06.14.18.18 0 0 0 .14.07zM38.51 21.92a.21.21 0 0 0 .15-.06.2.2 0 0 0 .05-.14.2.2 0 0 0-.34-.14.22.22 0 0 0-.06.14.19.19 0 0 0 .06.14.21.21 0 0 0 .14.06zM37.71 22.73a.21.21 0 0 0 .15-.06.22.22 0 0 0 .05-.14.24.24 0 0 0-.05-.14.21.21 0 0 0-.29 0 .2.2 0 0 0-.06.14.22.22 0 0 0 .06.15.2.2 0 0 0 .14.05zM36.91 23.54a.2.2 0 0 0 .09-.06.19.19 0 0 0 .06-.14.19.19 0 0 0-.06-.15.21.21 0 0 0-.28 0 .18.18 0 0 0-.06.14.2.2 0 0 0 .06.14.21.21 0 0 0 .19.07zM36.1 24.34a.21.21 0 0 0 .14-.05.19.19 0 0 0 .06-.14.2.2 0 0 0-.06-.15.21.21 0 0 0-.24 0 .21.21 0 0 0-.06.15.2.2 0 0 0 .06.14.21.21 0 0 0 .1.05zM35.3 25.14a.21.21 0 0 0 .14-.06.21.21 0 0 0 .06-.14.23.23 0 0 0-.06-.15.21.21 0 0 0-.29 0 .21.21 0 0 0-.05.14.19.19 0 0 0 .06.14.2.2 0 0 0 .14.07zM34.49 25.95a.2.2 0 0 0 .15-.06.2.2 0 0 0 .05-.14.2.2 0 0 0-.33-.15.2.2 0 0 0-.07.15.21.21 0 0 0 .2.2zM33.69 26.75a.2.2 0 0 0 .15-.06.2.2 0 0 0 .05-.14.19.19 0 0 0-.06-.14.21.21 0 0 0-.28 0 .2.2 0 0 0-.06.14.24.24 0 0 0 .06.15.2.2 0 0 0 .14.05zM32.88 27.55a.18.18 0 0 0 .12-.06.16.16 0 0 0 .06-.14.2.2 0 0 0-.06-.14.21.21 0 0 0-.28 0 .2.2 0 0 0 0 .29.21.21 0 0 0 .16.05zM32.08 28.36a.22.22 0 0 0 .14-.06.2.2 0 0 0 .06-.14.21.21 0 0 0-.06-.16.21.21 0 0 0-.28 0 .21.21 0 0 0-.06.15.23.23 0 0 0 .05.14.21.21 0 0 0 .15.07zM31.28 29.17a.18.18 0 0 0 .14-.06.19.19 0 0 0 .06-.11.21.21 0 0 0-.06-.14.21.21 0 0 0-.28 0 .22.22 0 0 0-.06.15.23.23 0 0 0 .05.14.2.2 0 0 0 .15.02zM30.47 30a.19.19 0 0 0 .15-.06.2.2 0 0 0 .05-.14.21.21 0 0 0-.06-.15.21.21 0 0 0-.28 0 .21.21 0 0 0-.06.14.22.22 0 0 0 .07.15.18.18 0 0 0 .13.06zM29.66 30.77a.2.2 0 0 0 .14-.34.21.21 0 0 0-.28 0 .2.2 0 0 0 0 .28.19.19 0 0 0 .14.06zM28.86 31.58a.2.2 0 0 0 .14-.06.19.19 0 0 0 .06-.15.18.18 0 0 0-.06-.14.21.21 0 0 0-.28 0 .18.18 0 0 0-.06.13.2.2 0 0 0 .06.15.22.22 0 0 0 .14.07zM28.06 32.39a.21.21 0 0 0 .2-.2.2.2 0 0 0-.35-.19.2.2 0 0 0 0 .28.18.18 0 0 0 .15.11zM27.25 33.19a.19.19 0 0 0 .14-.06.22.22 0 0 0 .07-.13.22.22 0 0 0-.06-.14.21.21 0 0 0-.28 0 .21.21 0 0 0 0 .29.2.2 0 0 0 .13.04zM26.44 34a.19.19 0 0 0 .15-.06.2.2 0 0 0 .05-.14.18.18 0 0 0-.06-.14.2.2 0 0 0-.34.14.21.21 0 0 0 .06.14.2.2 0 0 0 .14.06zM25.64 34.8a.2.2 0 0 0 .15-.06.2.2 0 0 0 0-.28.21.21 0 0 0-.28 0 .2.2 0 0 0-.06.14.18.18 0 0 0 .06.14.19.19 0 0 0 .13.06zM24.84 35.6a.22.22 0 0 0 .16-.06.2.2 0 0 0 0-.29.22.22 0 0 0-.29 0 .2.2 0 0 0-.05.13.2.2 0 0 0 .18.22zM47.37 9.05a.21.21 0 0 0 .14-.05.2.2 0 0 0 0-.29.21.21 0 0 0-.29 0 .19.19 0 0 0-.05.14.2.2 0 0 0 .06.14.21.21 0 0 0 .14.06zM46.57 9.86a.19.19 0 0 0 .14-.06.19.19 0 0 0 .06-.14.19.19 0 0 0-.06-.14.2.2 0 0 0-.34.14.18.18 0 0 0 .06.14.17.17 0 0 0 .14.06zM45.76 10.66a.21.21 0 0 0 .14-.05.22.22 0 0 0 .1-.15.2.2 0 0 0-.05-.14.21.21 0 0 0-.29 0 .21.21 0 0 0 0 .28.2.2 0 0 0 .1.06zM45 11.46a.21.21 0 0 0 .2-.2.21.21 0 0 0-.05-.14.21.21 0 0 0-.29 0 .18.18 0 0 0-.06.14.2.2 0 0 0 .07.15.18.18 0 0 0 .13.05zM44.16 12.27a.2.2 0 0 0 .14-.06.22.22 0 0 0 .06-.14.2.2 0 0 0-.36-.14.18.18 0 0 0-.06.14.2.2 0 0 0 .06.14.2.2 0 0 0 .16.06zM43.35 13.08a.21.21 0 0 0 .2-.2.18.18 0 0 0-.06-.14.2.2 0 0 0-.29 0 .19.19 0 0 0-.05.14.19.19 0 0 0 .06.14.18.18 0 0 0 .14.06zM42.55 13.88a.2.2 0 0 0 .14-.06.19.19 0 0 0 .06-.14.21.21 0 0 0-.06-.14.2.2 0 0 0-.34.14.22.22 0 0 0 .05.14.2.2 0 0 0 .15.06zM41.74 14.68a.2.2 0 0 0 .15-.06.2.2 0 0 0 .06-.14.22.22 0 0 0-.06-.14.22.22 0 0 0-.29 0 .22.22 0 0 0-.06.15.18.18 0 0 0 .06.14.19.19 0 0 0 .14.05zM40.94 15.49a.19.19 0 0 0 .2-.2.18.18 0 0 0-.06-.14.21.21 0 0 0-.28 0 .21.21 0 0 0-.06.14.19.19 0 0 0 .06.14.19.19 0 0 0 .14.06zM40.13 16.29a.18.18 0 0 0 .14-.06.17.17 0 0 0 .06-.13.19.19 0 0 0-.06-.15.21.21 0 0 0-.27.05.18.18 0 0 0-.06.14.2.2 0 0 0 .19.15zM39.33 17.1a.19.19 0 0 0 .14-.1.21.21 0 0 0 .06-.14.2.2 0 0 0-.07-.15.21.21 0 0 0-.28 0 .2.2 0 0 0-.05.14.24.24 0 0 0 .05.14.23.23 0 0 0 .15.11zM38.52 17.9a.21.21 0 0 0 .15-.06.18.18 0 0 0 .06-.14.22.22 0 0 0-.07-.15.21.21 0 0 0-.28 0 .2.2 0 0 0-.05.14.18.18 0 0 0 .06.14.18.18 0 0 0 .13.07zM37.72 18.71a.2.2 0 0 0 .15-.06.19.19 0 0 0 .05-.14.22.22 0 0 0-.05-.14.21.21 0 0 0-.29 0 .22.22 0 0 0-.06.14.21.21 0 0 0 .07.15.18.18 0 0 0 .13.05zM36.91 19.51a.19.19 0 0 0 .15-.06.2.2 0 0 0 .05-.14.19.19 0 0 0-.06-.14.21.21 0 0 0-.28 0 .19.19 0 0 0-.06.14.21.21 0 0 0 .06.15.2.2 0 0 0 .14.05zM36.11 20.32a.19.19 0 0 0 .14-.06.2.2 0 0 0 .06-.14A.2.2 0 0 0 36 20a.18.18 0 0 0-.05.14.19.19 0 0 0 .06.14.22.22 0 0 0 .1.04zM35.31 21.12a.22.22 0 0 0 .14-.06.21.21 0 0 0 .06-.14.2.2 0 0 0-.07-.15.21.21 0 0 0-.28 0 .2.2 0 0 0-.05.14.19.19 0 0 0 .06.14.2.2 0 0 0 .14.07zM34.5 21.92a.18.18 0 0 0 .14-.06.21.21 0 0 0 .05-.14.21.21 0 0 0-.05-.14.22.22 0 0 0-.29 0 .19.19 0 0 0-.06.14.19.19 0 0 0 .06.14.21.21 0 0 0 .15.06zM33.69 22.73a.21.21 0 0 0 .15-.06.2.2 0 0 0 .05-.14.18.18 0 0 0-.06-.14.2.2 0 0 0-.34.14.18.18 0 0 0 .06.14.19.19 0 0 0 .14.06zM32.89 23.53a.2.2 0 0 0 .11-.05.2.2 0 0 0 0-.29.2.2 0 0 0-.34.14.21.21 0 0 0 .23.2zM32.09 24.34a.23.23 0 0 0 .14-.06.19.19 0 0 0 .06-.14.18.18 0 0 0-.06-.14.21.21 0 0 0-.28 0 .21.21 0 0 0-.06.15.2.2 0 0 0 .05.13.19.19 0 0 0 .15.06zM31.28 25.14a.2.2 0 0 0 .2-.2.23.23 0 0 0-.06-.15.22.22 0 0 0-.29 0 .21.21 0 0 0-.05.14.18.18 0 0 0 .06.14.2.2 0 0 0 .14.07zM30.47 25.95a.19.19 0 0 0 .2-.2.18.18 0 0 0-.06-.14.2.2 0 0 0-.28 0 .21.21 0 0 0-.06.14.19.19 0 0 0 .07.14.16.16 0 0 0 .13.06zM29.67 26.75a.2.2 0 0 0 .14-.05.21.21 0 0 0 .06-.15.18.18 0 0 0-.06-.14.21.21 0 0 0-.28 0 .21.21 0 0 0-.06.14.19.19 0 0 0 .06.14.2.2 0 0 0 .14.06zM28.87 27.55a.18.18 0 0 0 .13-.06.17.17 0 0 0 .06-.13.19.19 0 0 0-.06-.15.2.2 0 0 0-.34.15.19.19 0 0 0 .05.13.21.21 0 0 0 .16.06zM28.06 28.36a.19.19 0 0 0 .14-.06.19.19 0 0 0 .06-.14.21.21 0 0 0-.05-.16.2.2 0 0 0-.28 0 .18.18 0 0 0-.06.14.19.19 0 0 0 .06.14.21.21 0 0 0 .13.08zM27.26 29.17a.21.21 0 0 0 .2-.2.18.18 0 0 0-.06-.14.2.2 0 0 0-.29 0 .22.22 0 0 0-.05.14.23.23 0 0 0 .05.14.2.2 0 0 0 .15.06zM26.45 30a.21.21 0 0 0 .15-.06.2.2 0 0 0 .05-.14.2.2 0 0 0-.34-.14.21.21 0 0 0-.06.14.19.19 0 0 0 .06.14.2.2 0 0 0 .14.06zM25.65 30.77a.2.2 0 0 0 .15-.06.19.19 0 0 0 .05-.14.18.18 0 0 0-.06-.14.21.21 0 0 0-.28 0 .18.18 0 0 0-.06.14.21.21 0 0 0 .06.15.2.2 0 0 0 .14.05zM24.84 31.58a.22.22 0 0 0 .16-.06.2.2 0 0 0 0-.29.22.22 0 0 0-.28 0 .21.21 0 0 0-.06.14.19.19 0 0 0 .06.14.19.19 0 0 0 .12.07zM24 32.39a.19.19 0 0 0 .14-.06.21.21 0 0 0 .06-.14.23.23 0 0 0-.02-.19.22.22 0 0 0-.29 0 .21.21 0 0 0-.05.14.19.19 0 0 0 .06.14.21.21 0 0 0 .1.11zM23.24 33.19a.21.21 0 0 0 .13-.05.2.2 0 0 0 .07-.14.24.24 0 0 0-.06-.15.21.21 0 0 0-.28 0 .21.21 0 0 0-.1.15.22.22 0 0 0 .05.14.21.21 0 0 0 .19.05zM22.43 34a.22.22 0 0 0 .14-.05.21.21 0 0 0 0-.29.21.21 0 0 0-.28 0 .22.22 0 0 0-.06.14.2.2 0 0 0 .06.14.21.21 0 0 0 .14.06zM21.63 34.8a.19.19 0 0 0 .15-.06.2.2 0 0 0 0-.28.21.21 0 0 0-.28 0 .2.2 0 0 0-.06.14.18.18 0 0 0 .06.14.18.18 0 0 0 .13.06zM20.82 35.6a.2.2 0 0 0 .18-.06.2.2 0 0 0 0-.29.21.21 0 0 0-.28 0 .22.22 0 0 0-.06.14.22.22 0 0 0 .05.14.21.21 0 0 0 .11.07zM47.38 5a.21.21 0 0 0 .14 0 .19.19 0 0 0 .06-.14.19.19 0 0 0-.06-.14.2.2 0 0 0-.34.14.18.18 0 0 0 .06.14.21.21 0 0 0 .14 0zM46.58 5.84a.19.19 0 0 0 .14-.07.18.18 0 0 0 .06-.14.18.18 0 0 0-.06-.14.21.21 0 0 0-.28 0 .22.22 0 0 0-.06.15.19.19 0 0 0 .06.14.17.17 0 0 0 .14.06zM45.77 6.64a.19.19 0 0 0 .15-.06.21.21 0 0 0 .08-.14.19.19 0 0 0-.06-.14.21.21 0 0 0-.29 0 .22.22 0 0 0-.06.14.19.19 0 0 0 .07.14.16.16 0 0 0 .11.06zM45 7.44a.21.21 0 0 0 .15-.06.21.21 0 0 0 .05-.14.2.2 0 0 0-.34-.14.19.19 0 0 0-.06.14.21.21 0 0 0 .07.15.18.18 0 0 0 .13.05zM44.16 8.24a.2.2 0 0 0 .14-.05.2.2 0 1 0-.3-.29.19.19 0 0 0 0 .1.21.21 0 0 0 .06.15.2.2 0 0 0 .1.09zM43.36 9.05A.22.22 0 0 0 43.5 9a.2.2 0 0 0 0-.29.21.21 0 0 0-.29 0 .18.18 0 0 0-.05.14.2.2 0 0 0 .06.14.21.21 0 0 0 .14.06zM42.55 9.86a.21.21 0 0 0 .15-.06.19.19 0 0 0 .06-.14.2.2 0 0 0-.35-.14.2.2 0 0 0-.05.14.21.21 0 0 0 .19.2zM41.75 10.66a.2.2 0 0 0 .15-.06.21.21 0 0 0 .05-.14.2.2 0 0 0-.4 0 .21.21 0 0 0 .2.2zM40.94 11.46a.2.2 0 0 0 .14-.05.21.21 0 0 0 .06-.15.18.18 0 0 0-.06-.14.21.21 0 0 0-.28 0 .19.19 0 0 0-.06.14.21.21 0 0 0 .2.2zM40.14 12.27a.2.2 0 0 0 .14-.06.21.21 0 0 0 .06-.14.22.22 0 0 0-.06-.15.2.2 0 0 0-.28 0 .19.19 0 0 0-.06.14.19.19 0 0 0 .06.14.22.22 0 0 0 .14.07zM39.34 13.08a.18.18 0 0 0 .14-.08.19.19 0 0 0 .06-.14.23.23 0 0 0-.06-.15.21.21 0 0 0-.29 0 .2.2 0 0 0-.05.14.23.23 0 0 0 .05.14.21.21 0 0 0 .15.09zM38.53 13.88a.18.18 0 0 0 .14-.06.21.21 0 0 0 .06-.14.18.18 0 0 0-.06-.14.21.21 0 0 0-.28 0 .22.22 0 0 0-.06.15.22.22 0 0 0 .05.14.2.2 0 0 0 .15.05zM37.72 14.68a.2.2 0 0 0 .15-.06.19.19 0 0 0 0-.28.21.21 0 0 0-.29 0 .19.19 0 0 0 0 .28.18.18 0 0 0 .14.06zM36.92 15.49a.19.19 0 0 0 .2-.2.19.19 0 0 0-.06-.14.21.21 0 0 0-.28 0 .21.21 0 0 0-.06.14.19.19 0 0 0 .06.14.2.2 0 0 0 .14.06zM36.12 16.3a.22.22 0 0 0 .14-.06.2.2 0 0 0 .06-.14.2.2 0 0 0-.06-.15.21.21 0 0 0-.26.05.2.2 0 0 0 0 .28.21.21 0 0 0 .12.02zM35.31 17.1a.21.21 0 0 0 .14-.1.23.23 0 0 0 .06-.14.2.2 0 0 0-.07-.15.21.21 0 0 0-.28 0 .2.2 0 0 0-.05.14.23.23 0 0 0 .05.14.22.22 0 0 0 .15.11zM34.5 17.9a.19.19 0 0 0 .15-.06.2.2 0 0 0 .06-.14.21.21 0 0 0-.06-.14.21.21 0 0 0-.28 0 .22.22 0 0 0-.06.15.21.21 0 0 0 .05.14.19.19 0 0 0 .14.05zM33.7 18.71a.2.2 0 0 0 .15-.06.21.21 0 0 0 .05-.14.18.18 0 0 0-.06-.14.21.21 0 0 0-.28 0 .2.2 0 0 0-.06.14.21.21 0 0 0 .05.14.22.22 0 0 0 .15.06zM32.9 19.51a.2.2 0 0 0 .1-.06.19.19 0 0 0 .05-.14.18.18 0 0 0-.05-.14.22.22 0 0 0-.28 0 .19.19 0 0 0-.06.14.19.19 0 0 0 .06.14.18.18 0 0 0 .18.06zM32.09 20.32a.22.22 0 0 0 .15-.07.18.18 0 0 0 .05-.13.19.19 0 0 0-.06-.12.22.22 0 0 0-.29 0 .2.2 0 0 0-.05.14.2.2 0 0 0 .06.14.22.22 0 0 0 .14.04zM31.29 21.12a.21.21 0 0 0 .14-.06.21.21 0 0 0 .06-.14.24.24 0 0 0-.06-.15.21.21 0 0 0-.28 0 .21.21 0 0 0-.06.15.18.18 0 0 0 .06.14.2.2 0 0 0 .14.06zM30.48 21.92a.18.18 0 0 0 .15-.06.2.2 0 0 0 .05-.14.21.21 0 0 0-.05-.14.22.22 0 0 0-.29 0 .21.21 0 0 0-.05.14.2.2 0 0 0 .05.14.18.18 0 0 0 .14.06zM29.68 22.73a.2.2 0 0 0 .15-.06.21.21 0 0 0 .05-.14.19.19 0 0 0-.06-.14.21.21 0 0 0-.28 0 .19.19 0 0 0-.06.14.21.21 0 0 0 .2.2zM28.87 23.53a.2.2 0 0 0 .13-.05.2.2 0 0 0 0-.29.21.21 0 0 0-.28 0 .19.19 0 0 0-.06.14.2.2 0 0 0 .06.15.22.22 0 0 0 .15.05zM28.07 24.34a.18.18 0 0 0 .14-.06.16.16 0 0 0 .06-.13.18.18 0 0 0-.06-.15.21.21 0 0 0-.28 0 .2.2 0 0 0-.06.15.23.23 0 0 0 .05.14.24.24 0 0 0 .15.05zM27.27 25.14a.19.19 0 0 0 .14-.06.21.21 0 0 0 .06-.14.21.21 0 0 0-.07-.15.2.2 0 0 0-.33.15.22.22 0 0 0 .05.14.21.21 0 0 0 .15.06zM26.46 25.95a.2.2 0 0 0 .15-.06.2.2 0 0 0 .05-.14.2.2 0 0 0-.34-.14.21.21 0 0 0-.06.14.22.22 0 0 0 .07.15.19.19 0 0 0 .13.05zM25.66 26.75a.22.22 0 0 0 .14-.05.21.21 0 0 0 .06-.15.18.18 0 0 0-.06-.14.21.21 0 0 0-.28 0 .19.19 0 0 0-.06.14.19.19 0 0 0 .06.14.2.2 0 0 0 .14.06zM24.85 27.56a.19.19 0 0 0 .15-.07.17.17 0 0 0 .06-.13.19.19 0 0 0-.06-.15.21.21 0 0 0-.28 0 .16.16 0 0 0-.06.14.19.19 0 0 0 .06.14.21.21 0 0 0 .13.07zM24 28.36a.19.19 0 0 0 .14-.06.2.2 0 0 0 .06-.14.2.2 0 0 0-.01-.16.2.2 0 0 0-.28 0 .18.18 0 0 0-.06.14.2.2 0 0 0 .06.14.21.21 0 0 0 .09.08zM23.25 29.17a.21.21 0 0 0 .13-.05.2.2 0 0 0 .07-.12.22.22 0 0 0-.07-.15.21.21 0 0 0-.28 0 .21.21 0 0 0-.1.15.23.23 0 0 0 .05.14.21.21 0 0 0 .2.03zM22.44 30a.2.2 0 0 0 .15-.06.21.21 0 0 0 0-.28.21.21 0 0 0-.29 0 .21.21 0 0 0 0 .28.18.18 0 0 0 .14.06zM21.63 30.77a.21.21 0 0 0 .15-.06.21.21 0 0 0 .05-.14.23.23 0 0 0-.05-.14.2.2 0 0 0-.35.14.2.2 0 0 0 .06.14.2.2 0 0 0 .14.06zM20.83 31.58a.21.21 0 0 0 .17-.06.2.2 0 0 0 0-.14.19.19 0 0 0 0-.15.22.22 0 0 0-.28 0 .19.19 0 0 0-.06.14.21.21 0 0 0 .06.15.22.22 0 0 0 .11.06zM20 32.39a.2.2 0 0 0 .14-.06.2.2 0 0 0 .06-.14.2.2 0 0 0-.31-.19.2.2 0 0 0-.06.15.23.23 0 0 0 .05.14.22.22 0 0 0 .12.1zM19.22 33.19a.21.21 0 0 0 .13-.05.19.19 0 0 0 .07-.14.21.21 0 0 0-.07-.15.2.2 0 0 0-.35.15.21.21 0 0 0 .05.14.21.21 0 0 0 .17.05zM18.41 34a.2.2 0 0 0 .14-.05.2.2 0 0 0 .07-.15.19.19 0 0 0-.06-.14.21.21 0 0 0-.29 0 .19.19 0 0 0-.06.14.19.19 0 0 0 .06.14.21.21 0 0 0 .14.06zM17.61 34.8a.19.19 0 0 0 .14-.05.21.21 0 0 0 .06-.15.18.18 0 0 0-.06-.14.21.21 0 0 0-.28 0 .2.2 0 0 0-.06.14.21.21 0 0 0 .05.14.21.21 0 0 0 .15.06zM16.81 35.61a.22.22 0 0 0 .14-.06.2.2 0 0 0 0-.29.2.2 0 0 0-.28 0 .22.22 0 0 0-.06.14.2.2 0 0 0 .2.21zM47.39 1a.19.19 0 0 0 .14-.05.2.2 0 0 0 .06-.14.2.2 0 0 0-.34-.14.17.17 0 0 0-.06.14.19.19 0 0 0 .06.14.21.21 0 0 0 .14.05zM46.58 1.81a.18.18 0 0 0 .14-.06.2.2 0 0 0 .06-.14.18.18 0 0 0-.06-.14.21.21 0 0 0-.29 0 .19.19 0 0 0-.05.14.21.21 0 0 0 .05.14.19.19 0 0 0 .15.06zM45.77 2.62a.21.21 0 0 0 .15-.06.18.18 0 0 0 .08-.14.2.2 0 0 0-.06-.14.21.21 0 0 0-.29 0 .21.21 0 0 0-.05.14.2.2 0 0 0 .06.15.19.19 0 0 0 .11.05zM45 3.42a.2.2 0 0 0 .14-.05.23.23 0 0 0 .07-.15.19.19 0 0 0-.07-.14.2.2 0 0 0-.28 0 .21.21 0 0 0-.06.14.2.2 0 0 0 .06.14.2.2 0 0 0 .14.06zM44.17 4.22a.2.2 0 0 0 .14-.05.21.21 0 0 0 0-.29.21.21 0 0 0-.29 0A.16.16 0 0 0 44 4a.21.21 0 0 0 .17.22zM43.37 5a.22.22 0 0 0 .14 0 .19.19 0 0 0 .06-.14.22.22 0 0 0-.05-.14.2.2 0 0 0-.29 0 .21.21 0 0 0-.06.15.19.19 0 0 0 .06.14.21.21 0 0 0 .14-.01zM42.56 5.84a.21.21 0 0 0 .2-.2.18.18 0 0 0-.06-.14.2.2 0 0 0-.34.14.22.22 0 0 0 .05.14.21.21 0 0 0 .15.06zM41.75 6.64a.18.18 0 0 0 .15-.06.21.21 0 0 0 .1-.14.23.23 0 0 0-.1-.14.21.21 0 0 0-.28 0 .21.21 0 0 0-.07.15.22.22 0 0 0 .06.14.19.19 0 0 0 .14.05zM40.95 7.44a.21.21 0 0 0 .15-.06.21.21 0 0 0 .05-.14.18.18 0 0 0-.06-.14.21.21 0 0 0-.28 0 .21.21 0 0 0-.06.14.18.18 0 0 0 .06.14.2.2 0 0 0 .14.06zM40.15 8.24a.2.2 0 0 0 .15-.06.2.2 0 0 0 .05-.18.2.2 0 0 0-.06-.14.21.21 0 0 0-.28 0 .2.2 0 0 0 0 .29.2.2 0 0 0 .14.09zM39.34 9.05a.19.19 0 0 0 .14-.05.17.17 0 0 0 .06-.13.2.2 0 0 0-.06-.15.21.21 0 0 0-.28 0 .21.21 0 0 0-.06.15.2.2 0 0 0 .06.13.22.22 0 0 0 .14.05zM38.54 9.86a.18.18 0 0 0 .14-.06.21.21 0 0 0 .06-.14.21.21 0 0 0-.35-.14.2.2 0 0 0-.05.14.18.18 0 0 0 .06.14.19.19 0 0 0 .14.06zM37.73 10.66a.21.21 0 0 0 .15-.06.2.2 0 0 0 .05-.14.21.21 0 0 0-.06-.15.22.22 0 0 0-.28 0 .19.19 0 0 0 0 .28.21.21 0 0 0 .14.07zM36.93 11.46a.19.19 0 0 0 .15-.06.21.21 0 0 0 .05-.14.19.19 0 0 0-.06-.14.21.21 0 0 0-.28 0 .19.19 0 0 0-.06.14.21.21 0 0 0 .06.15.2.2 0 0 0 .14.05zM36.12 12.27a.2.2 0 0 0 .15-.06.18.18 0 0 0 .05-.14.2.2 0 0 0-.32-.15.19.19 0 0 0-.06.14.18.18 0 0 0 .06.15.2.2 0 0 0 .12.06zM35.32 13.08a.21.21 0 0 0 .2-.2.2.2 0 0 0-.06-.15.21.21 0 0 0-.29 0 .18.18 0 0 0-.05.14.21.21 0 0 0 .2.21zM34.52 13.88a.21.21 0 0 0 .2-.2.22.22 0 0 0-.07-.15.21.21 0 0 0-.28 0 .2.2 0 0 0-.05.14.2.2 0 0 0 .06.14.18.18 0 0 0 .14.07zM33.71 14.68a.2.2 0 0 0 .15-.34.22.22 0 0 0-.29 0 .2.2 0 0 0 0 .28.2.2 0 0 0 .14.06zM32.9 15.49a.2.2 0 0 0 .15-.06.2.2 0 0 0 .05-.14.18.18 0 0 0-.1-.15.21.21 0 0 0-.28 0 .18.18 0 0 0-.06.13.21.21 0 0 0 .06.15.2.2 0 0 0 .18.07zM32.1 16.29a.18.18 0 0 0 .14-.06.16.16 0 0 0 .06-.14.19.19 0 0 0-.06-.14.21.21 0 0 0-.28 0 .21.21 0 0 0-.06.14.19.19 0 0 0 .2.2zM31.3 17.1a.2.2 0 0 0 .13-.35.21.21 0 0 0-.28 0 .2.2 0 0 0-.05.14.22.22 0 0 0 .05.14.22.22 0 0 0 .15.07zM30.49 17.9a.19.19 0 0 0 .15-.06.2.2 0 0 0 .06-.14.22.22 0 0 0-.07-.15.21.21 0 0 0-.28 0 .2.2 0 0 0-.05.14.2.2 0 0 0 .05.14.21.21 0 0 0 .14.07zM29.68 18.71a.21.21 0 0 0 .14-.05.21.21 0 0 0 .06-.15.19.19 0 0 0-.06-.14.21.21 0 0 0-.28 0 .19.19 0 0 0 0 .28.19.19 0 0 0 .14.06zM28.88 19.51a.21.21 0 0 0 .12-.05.21.21 0 0 0 .06-.15.18.18 0 0 0-.06-.14.21.21 0 0 0-.28 0 .19.19 0 0 0-.06.14.19.19 0 0 0 .06.14.2.2 0 0 0 .16.06zM28.08 20.31a.2.2 0 0 0 .14-.05.18.18 0 0 0 .06-.15.19.19 0 0 0-.06-.11.22.22 0 0 0-.29 0 .23.23 0 0 0-.05.14.21.21 0 0 0 .06.15.2.2 0 0 0 .14.02zM27.27 21.12a.21.21 0 0 0 .2-.2.22.22 0 0 0-.06-.15.21.21 0 0 0-.29 0 .2.2 0 0 0-.05.14.22.22 0 0 0 .05.14.2.2 0 0 0 .15.07zM26.46 21.92a.21.21 0 0 0 .15-.06.2.2 0 0 0 .05-.14.21.21 0 0 0-.06-.15.2.2 0 0 0-.34.15.19.19 0 0 0 .07.14.18.18 0 0 0 .13.06zM25.66 22.73a.21.21 0 0 0 .15-.06.21.21 0 0 0 .05-.14.19.19 0 0 0-.06-.14.2.2 0 0 0-.28 0 .24.24 0 0 0-.06.15.22.22 0 0 0 .05.14.24.24 0 0 0 .15.05zM24.86 23.53a.2.2 0 0 0 .14-.05.2.2 0 0 0 0-.29.21.21 0 0 0-.28 0 .18.18 0 0 0-.06.13.19.19 0 0 0 .06.15.21.21 0 0 0 .14.06zM24.06 24.34a.23.23 0 0 0 .14-.06.2.2 0 0 0 0-.29.21.21 0 0 0-.28 0 .2.2 0 0 0 0 .29.21.21 0 0 0 .14.06zM23.25 25.14a.2.2 0 0 0 .2-.2.19.19 0 0 0-.06-.14.2.2 0 0 0-.34.14.22.22 0 0 0 .05.14.21.21 0 0 0 .15.06zM22.44 25.95a.2.2 0 0 0 .15-.06.2.2 0 0 0 .05-.14.18.18 0 0 0-.06-.14.21.21 0 0 0-.28 0 .21.21 0 0 0-.06.14.21.21 0 0 0 .06.14.2.2 0 0 0 .14.06zM21.64 26.75a.21.21 0 0 0 .15-.06.2.2 0 0 0 .05-.14.18.18 0 0 0-.06-.14.21.21 0 0 0-.28 0 .2.2 0 0 0-.06.14.2.2 0 0 0 .2.2zM20.84 27.55a.18.18 0 0 0 .16-.06.16.16 0 0 0 0-.13.19.19 0 0 0 0-.15.21.21 0 0 0-.28 0 .16.16 0 0 0-.06.14.19.19 0 0 0 .06.14.21.21 0 0 0 .12.06zM20 28.36a.21.21 0 0 0 .14-.06.18.18 0 0 0 .06-.14.22.22 0 0 0-.03-.16.21.21 0 0 0-.28 0 .2.2 0 0 0-.06.15.23.23 0 0 0 .05.14.25.25 0 0 0 .12.07zM19.23 29.17a.2.2 0 0 0 .14-.06.21.21 0 0 0 .06-.11.22.22 0 0 0-.07-.15.2.2 0 0 0-.36.15.19.19 0 0 0 .06.14.18.18 0 0 0 .17.03zM18.42 30a.2.2 0 0 0 .15-.06.19.19 0 0 0 0-.28.2.2 0 0 0-.35.14.21.21 0 0 0 .06.14.19.19 0 0 0 .14.06zM17.62 30.77a.22.22 0 0 0 .14-.05.21.21 0 0 0 .06-.15.18.18 0 0 0-.06-.14.21.21 0 0 0-.28 0 .19.19 0 0 0 0 .28.19.19 0 0 0 .14.06zM16.81 31.58a.22.22 0 0 0 .19-.06.2.2 0 0 0 0-.29.21.21 0 0 0-.28 0 .19.19 0 0 0-.06.14.2.2 0 0 0 .06.15.22.22 0 0 0 .09.06zM16 32.39a.19.19 0 0 0 .14-.06.21.21 0 0 0 .06-.14.19.19 0 0 0-.05-.19.2.2 0 0 0-.34.14.22.22 0 0 0 .05.14.25.25 0 0 0 .14.11zM15.21 33.19a.19.19 0 0 0 .14-.06.2.2 0 0 0 .06-.13.22.22 0 0 0-.06-.14.2.2 0 0 0-.35.14.2.2 0 0 0 .05.14.2.2 0 0 0 .16.05zM14.4 34a.2.2 0 0 0 .21-.2.19.19 0 0 0-.07-.14.19.19 0 0 0-.28 0 .18.18 0 0 0-.06.13.23.23 0 0 0 .06.14.21.21 0 0 0 .14.07zM13.59 34.8a.19.19 0 0 0 .2-.19.2.2 0 1 0-.4 0 .17.17 0 0 0 .06.13.19.19 0 0 0 .14.06zM12.79 35.61a.19.19 0 0 0 .14-.06.2.2 0 0 0 0-.29.21.21 0 0 0-.28 0 .2.2 0 0 0 0 .29.21.21 0 0 0 .14.06zM43.37 1a.19.19 0 0 0 .14-.05.19.19 0 0 0 .06-.14.2.2 0 1 0-.4 0 .19.19 0 0 0 .06.14.21.21 0 0 0 .14.05zM42.57 1.81a.18.18 0 0 0 .14-.06.2.2 0 0 0 .06-.14.24.24 0 0 0-.06-.15.22.22 0 0 0-.29 0 .2.2 0 0 0-.05.14.21.21 0 0 0 .05.14.2.2 0 0 0 .15.07zM41.76 2.62a.21.21 0 0 0 .24-.2.22.22 0 0 0-.07-.15.22.22 0 0 0-.28 0 .21.21 0 0 0-.06.14.22.22 0 0 0 .06.14.22.22 0 0 0 .11.07zM41 3.42a.19.19 0 0 0 .15-.06.2.2 0 0 0 .05-.14.18.18 0 0 0-.06-.14.21.21 0 0 0-.28 0 .19.19 0 0 0 0 .28.19.19 0 0 0 .14.06zM40.15 4.22a.21.21 0 0 0 .14-.05.22.22 0 0 0 .06-.17.2.2 0 0 0-.35-.11.18.18 0 0 0 0 .11.2.2 0 0 0 .06.15.21.21 0 0 0 .09.07zM39.35 5a.19.19 0 0 0 .14 0 .2.2 0 0 0 .06-.14.2.2 0 0 0-.35-.14.2.2 0 0 0 0 .28.19.19 0 0 0 .15 0zM38.55 5.84a.21.21 0 0 0 .2-.2.22.22 0 0 0-.07-.15.21.21 0 0 0-.28 0 .2.2 0 0 0-.05.14.22.22 0 0 0 .05.14.22.22 0 0 0 .15.07zM37.74 6.64a.19.19 0 0 0 .15-.06.21.21 0 0 0 .06-.14.23.23 0 0 0-.06-.14.22.22 0 0 0-.29 0 .19.19 0 0 0-.06.14.2.2 0 0 0 .06.14.18.18 0 0 0 .14.06zM36.93 7.44a.2.2 0 0 0 .15-.06.2.2 0 0 0 .05-.14.19.19 0 0 0-.06-.14.2.2 0 0 0-.28 0 .2.2 0 0 0-.06.14.22.22 0 0 0 .05.14.22.22 0 0 0 .15.06zM36.13 8.24a.2.2 0 0 0 .14-.05.19.19 0 0 0 .06-.19.18.18 0 0 0-.06-.15.21.21 0 0 0-.28 0 .18.18 0 0 0-.06.14.21.21 0 0 0 .06.14.21.21 0 0 0 .14.11zM35.33 9.05a.21.21 0 0 0 .14-.05.18.18 0 0 0 .06-.14.21.21 0 0 0-.06-.15.2.2 0 0 0-.28 0 .18.18 0 0 0-.06.14.19.19 0 0 0 .06.14.21.21 0 0 0 .14.06zM34.52 9.86a.2.2 0 0 0 .14-.06.19.19 0 0 0 .06-.14.23.23 0 0 0-.06-.15.22.22 0 0 0-.29 0 .2.2 0 0 0-.05.14.18.18 0 0 0 .06.14.18.18 0 0 0 .14.07zM33.71 10.66a.21.21 0 0 0 .15-.06.21.21 0 0 0 .05-.14.21.21 0 0 0-.06-.15.21.21 0 0 0-.34.15.19.19 0 0 0 .06.14.21.21 0 0 0 .14.06zM32.91 11.46a.21.21 0 0 0 .14-.05.22.22 0 0 0 .06-.15.18.18 0 0 0-.06-.14.2.2 0 0 0-.28 0 .19.19 0 0 0-.06.14.21.21 0 0 0 .2.2zM32.11 12.27a.18.18 0 0 0 .14-.06.16.16 0 0 0 .06-.14.2.2 0 0 0-.06-.14.2.2 0 0 0-.34.14.19.19 0 0 0 .06.15.2.2 0 0 0 .14.05zM31.3 13.08a.19.19 0 0 0 .14-.08.2.2 0 0 0 .06-.14.18.18 0 0 0-.06-.14.2.2 0 0 0-.34.14.21.21 0 0 0 .06.14.18.18 0 0 0 .14.08zM30.5 13.88a.18.18 0 0 0 .14-.06.21.21 0 0 0 .06-.14.18.18 0 0 0-.06-.14.2.2 0 0 0-.28 0 .22.22 0 0 0-.06.15.18.18 0 0 0 .06.14.17.17 0 0 0 .14.05zM29.69 14.68a.19.19 0 0 0 .2-.2.21.21 0 0 0-.05-.14.21.21 0 0 0-.29 0 .2.2 0 0 0 0 .28.2.2 0 0 0 .14.06zM28.89 15.49a.2.2 0 0 0 .11-.06.21.21 0 0 0 .06-.15.18.18 0 0 0-.06-.14.21.21 0 0 0-.28 0 .21.21 0 0 0-.06.14.22.22 0 0 0 .05.14.23.23 0 0 0 .18.07zM28.08 16.29a.18.18 0 0 0 .14-.06.17.17 0 0 0 .06-.13.2.2 0 0 0-.06-.15.21.21 0 0 0-.28 0 .21.21 0 0 0-.06.15.19.19 0 0 0 .2.19zM27.28 17.1a.21.21 0 0 0 .14-.1.2.2 0 0 0 .06-.14.2.2 0 0 0-.35-.14.22.22 0 0 0-.05.14.24.24 0 0 0 .05.14.22.22 0 0 0 .15.1zM26.47 17.9a.2.2 0 0 0 .15-.06.2.2 0 0 0 .06-.14.2.2 0 1 0-.4 0 .2.2 0 0 0 .05.14.21.21 0 0 0 .14.06zM25.67 18.71a.21.21 0 0 0 .15-.06.21.21 0 0 0 .05-.14.19.19 0 0 0-.06-.14.21.21 0 0 0-.28 0 .21.21 0 0 0-.06.14.21.21 0 0 0 .2.2zM24.87 19.51a.18.18 0 0 0 .13-.06.19.19 0 0 0 .06-.14.19.19 0 0 0-.06-.14.2.2 0 0 0-.34.14.2.2 0 0 0 .06.14.18.18 0 0 0 .15.06zM24.06 20.32a.21.21 0 0 0 .2-.2.18.18 0 0 0-.06-.12.21.21 0 0 0-.28 0 .21.21 0 0 0-.06.15.2.2 0 0 0 .05.13.23.23 0 0 0 .15.04zM23.26 21.12a.19.19 0 0 0 .14-.06.21.21 0 0 0 .06-.14.24.24 0 0 0-.06-.15.21.21 0 0 0-.28 0 .21.21 0 0 0-.06.15.22.22 0 0 0 .05.14.21.21 0 0 0 .15.06zM22.45 21.92a.19.19 0 0 0 .15-.06.22.22 0 0 0 .05-.14.21.21 0 0 0-.05-.14.21.21 0 0 0-.29 0 .22.22 0 0 0-.06.14.22.22 0 0 0 .06.14.19.19 0 0 0 .14.06zM21.65 22.73a.18.18 0 0 0 .14-.06.19.19 0 0 0 .06-.14.18.18 0 0 0-.06-.14.21.21 0 0 0-.28 0 .21.21 0 0 0-.06.14.2.2 0 0 0 .06.14.2.2 0 0 0 .14.06zM20.84 23.53a.2.2 0 0 0 .16-.05.19.19 0 0 0 0-.14.2.2 0 0 0 0-.15.21.21 0 0 0-.28 0 .2.2 0 0 0-.06.15.19.19 0 0 0 .18.19zM20 24.34a.2.2 0 0 0 .14-.06.21.21 0 0 0 .06-.14.22.22 0 0 0-.01-.14.21.21 0 0 0-.29 0 .21.21 0 0 0-.06.15.24.24 0 0 0 .05.14.22.22 0 0 0 .11.05zM19.24 25.14a.19.19 0 0 0 .14-.07.18.18 0 0 0 .06-.13.22.22 0 0 0-.06-.15.21.21 0 0 0-.29 0 .2.2 0 0 0-.05.14.19.19 0 0 0 .06.14.2.2 0 0 0 .14.07zM18.43 25.95a.22.22 0 0 0 .14-.05.23.23 0 0 0 .07-.15.21.21 0 0 0-.06-.14.2.2 0 0 0-.35.14.19.19 0 0 0 .06.14.21.21 0 0 0 .14.06zM17.62 26.75a.19.19 0 0 0 .2-.2.19.19 0 0 0-.06-.14.21.21 0 0 0-.29 0 .19.19 0 0 0-.05.13.19.19 0 0 0 .06.14.19.19 0 0 0 .14.07zM16.82 27.55a.18.18 0 0 0 .18-.05.22.22 0 0 0 0-.15.2.2 0 0 0 0-.13.2.2 0 0 0-.29 0 .21.21 0 0 0-.06.14.2.2 0 0 0 .17.19zM16 28.36a.19.19 0 0 0 .14-.06.2.2 0 0 0 .06-.14.18.18 0 0 0-.04-.16.2.2 0 0 0-.28 0 .2.2 0 0 0-.06.15.21.21 0 0 0 .06.14.22.22 0 0 0 .12.07zM15.21 29.17a.23.23 0 0 0 .14-.05.22.22 0 0 0 .06-.12.19.19 0 0 0-.06-.14.2.2 0 0 0-.29 0A.21.21 0 0 0 15 29a.2.2 0 0 0 .21.17zM14.4 30a.22.22 0 0 0 .14-.05.2.2 0 0 0 .07-.15.19.19 0 0 0-.06-.14.2.2 0 0 0-.29 0 .2.2 0 0 0 0 .28.22.22 0 0 0 .14.06zM13.6 30.77a.18.18 0 0 0 .14-.06.17.17 0 0 0 .06-.14.18.18 0 0 0-.06-.14.21.21 0 0 0-.28 0 .21.21 0 0 0-.06.14.24.24 0 0 0 .06.15.2.2 0 0 0 .14.05zM12.8 31.58a.2.2 0 0 0 .14-.05.22.22 0 0 0 .06-.15.2.2 0 0 0-.35-.13.2.2 0 0 0-.05.13.22.22 0 0 0 .05.14.21.21 0 0 0 .15.06zM12 32.39a.19.19 0 0 0 .14-.06.19.19 0 0 0 .06-.14.24.24 0 0 0-.07-.19.22.22 0 0 0-.29 0 .2.2 0 0 0-.05.14.18.18 0 0 0 .06.14.21.21 0 0 0 .15.11zM11.19 33.19a.19.19 0 0 0 .14-.06.19.19 0 0 0 .06-.13.22.22 0 0 0-.06-.14.21.21 0 0 0-.29 0A.21.21 0 0 0 11 33a.22.22 0 0 0 .19.19zM10.38 34a.2.2 0 0 0 .15-.06.21.21 0 0 0 .06-.14.21.21 0 0 0-.06-.14.21.21 0 0 0-.29 0 .2.2 0 0 0-.05.14.2.2 0 0 0 .05.14.18.18 0 0 0 .14.06zM9.58 34.8a.18.18 0 0 0 .14-.05.22.22 0 0 0 .06-.15.23.23 0 0 0-.05-.14.22.22 0 0 0-.29 0 .19.19 0 0 0-.06.14.21.21 0 0 0 .06.15.22.22 0 0 0 .14.05zM8.77 35.61a.21.21 0 0 0 .14-.06.2.2 0 0 0 .09-.15.2.2 0 0 0-.06-.14.21.21 0 0 0-.28 0 .2.2 0 0 0 0 .28.21.21 0 0 0 .11.07zM39.36 1a.21.21 0 0 0 .14-.05.2.2 0 0 0 .06-.14.23.23 0 0 0-.06-.15.21.21 0 0 0-.28 0 .18.18 0 0 0-.06.14.23.23 0 0 0 .05.14.24.24 0 0 0 .15.06zM38.55 1.81a.19.19 0 0 0 .14-.06.18.18 0 0 0 .06-.14.2.2 0 0 0-.35-.14.2.2 0 0 0-.05.14.22.22 0 0 0 .05.14.21.21 0 0 0 .15.06zM37.74 2.62a.2.2 0 0 0 .15-.06.21.21 0 0 0 .11-.14.22.22 0 0 0-.07-.15.21.21 0 0 0-.28 0 .21.21 0 0 0-.06.14.22.22 0 0 0 .06.14.21.21 0 0 0 .09.07zM36.94 3.42a.2.2 0 0 0 .15-.06.2.2 0 0 0 .05-.14.18.18 0 0 0-.06-.14.2.2 0 0 0-.28 0 .21.21 0 0 0-.06.14.25.25 0 0 0 .06.15.21.21 0 0 0 .14.05zM36.14 4.22a.2.2 0 0 0 .14-.34.21.21 0 0 0-.28 0 .18.18 0 0 0-.06.13.21.21 0 0 0 .06.15.21.21 0 0 0 .14.06zM35.33 5a.19.19 0 0 0 .14 0 .2.2 0 0 0 .06-.14.2.2 0 0 0-.34-.14.17.17 0 0 0-.06.14.19.19 0 0 0 .06.14.18.18 0 0 0 .14 0zM34.53 5.84a.18.18 0 0 0 .14-.06.21.21 0 0 0 .06-.14.18.18 0 0 0-.06-.14.19.19 0 0 0-.28 0 .18.18 0 0 0-.06.14.21.21 0 0 0 .2.2zM33.72 6.64a.18.18 0 0 0 .15-.06.2.2 0 0 0 .05-.14.19.19 0 0 0-.06-.14.2.2 0 0 0-.28 0 .21.21 0 0 0-.06.14.18.18 0 0 0 .07.14.16.16 0 0 0 .13.06zM32.92 7.44a.2.2 0 0 0 .14-.05.21.21 0 0 0 .06-.15.18.18 0 0 0-.06-.14.2.2 0 0 0-.28 0 .18.18 0 0 0-.06.13.21.21 0 0 0 .06.15.22.22 0 0 0 .14.06zM32.11 8.25a.21.21 0 0 0 .14-.06.2.2 0 0 0 .06-.19.21.21 0 0 0-.06-.15.2.2 0 0 0-.28 0 .19.19 0 0 0-.06.14.19.19 0 0 0 .06.14.22.22 0 0 0 .14.12zM31.31 9.05a.19.19 0 0 0 .14-.05.16.16 0 0 0 .06-.13.21.21 0 0 0-.06-.15.21.21 0 0 0-.29 0 .2.2 0 0 0-.05.14.21.21 0 0 0 .06.14.21.21 0 0 0 .14.05zM30.51 9.86a.19.19 0 0 0 .14-.06.2.2 0 0 0 .06-.14.2.2 0 0 0-.07-.15.21.21 0 0 0-.28 0 .2.2 0 0 0-.05.14.18.18 0 0 0 .06.14.18.18 0 0 0 .14.07zM29.7 10.66a.2.2 0 0 0 .2-.2.2.2 0 0 0-.34-.14.2.2 0 0 0-.06.14.19.19 0 0 0 .06.14.2.2 0 0 0 .14.06zM28.9 11.46a.18.18 0 0 0 .1-.06.19.19 0 0 0 .06-.14.18.18 0 0 0-.06-.14.2.2 0 0 0-.28 0 .2.2 0 0 0-.06.14.21.21 0 0 0 .06.15.21.21 0 0 0 .18.05zM28.09 12.27a.2.2 0 0 0 .14-.06.19.19 0 0 0 .06-.14.2.2 0 0 0-.06-.15.21.21 0 0 0-.28 0 .21.21 0 0 0-.06.15.21.21 0 0 0 .2.2zM27.29 13.08a.18.18 0 0 0 .14-.08.2.2 0 0 0 .06-.14.18.18 0 0 0-.06-.14.2.2 0 0 0-.28 0 .21.21 0 0 0-.06.15.2.2 0 0 0 .06.14.18.18 0 0 0 .14.07zM26.49 13.88a.22.22 0 0 0 .2-.2.2.2 0 0 0-.34-.15.22.22 0 0 0-.06.15.23.23 0 0 0 .05.14.2.2 0 0 0 .15.06zM25.67 14.68a.2.2 0 0 0 .15-.34.21.21 0 0 0-.28 0 .2.2 0 0 0-.07.15.2.2 0 0 0 .06.14.2.2 0 0 0 .14.05zM24.87 15.49a.2.2 0 0 0 .13-.06.21.21 0 0 0 .05-.14.2.2 0 0 0-.05-.15.21.21 0 0 0-.28 0 .2.2 0 0 0-.06.14.19.19 0 0 0 .06.14.18.18 0 0 0 .15.07zM24.07 16.3a.19.19 0 0 0 .14-.06.2.2 0 0 0 .06-.14.2.2 0 0 0-.35-.1.19.19 0 0 0-.05.14.2.2 0 0 0 .06.14.21.21 0 0 0 .14.02zM23.27 17.1a.2.2 0 0 0 .2-.2.2.2 0 0 0-.06-.15.2.2 0 0 0-.28 0 .18.18 0 0 0-.06.14.2.2 0 0 0 .06.14.21.21 0 0 0 .14.07zM22.46 17.9a.19.19 0 0 0 .15-.06.21.21 0 0 0 .06-.14.22.22 0 0 0-.07-.15.21.21 0 0 0-.28 0 .2.2 0 0 0-.05.14.2.2 0 0 0 .06.15.18.18 0 0 0 .13.06zM21.65 18.71a.22.22 0 0 0 .14-.05.19.19 0 0 0 .06-.15.22.22 0 0 0-.05-.14.21.21 0 0 0-.29 0 .22.22 0 0 0-.06.14.19.19 0 0 0 .06.14.21.21 0 0 0 .14.06zM20.85 19.51a.21.21 0 0 0 .15-.06.19.19 0 0 0 0-.14.18.18 0 0 0 0-.14.21.21 0 0 0-.28 0 .2.2 0 0 0-.06.14.2.2 0 0 0 .06.15.2.2 0 0 0 .13.05zM20 20.31a.21.21 0 0 0 .14-.05.18.18 0 0 0 .06-.14.18.18 0 0 0-.01-.12.21.21 0 0 0-.28 0 .21.21 0 0 0-.06.15.2.2 0 0 0 .15.16zM19.24 21.12a.19.19 0 0 0 .14-.06.2.2 0 0 0 0-.29.22.22 0 0 0-.29 0 .2.2 0 0 0-.05.14.22.22 0 0 0 .05.14.21.21 0 0 0 .15.07zM18.44 21.92a.21.21 0 0 0 .13-.05.2.2 0 0 0 .07-.15.22.22 0 0 0-.06-.14.21.21 0 0 0-.29 0 .22.22 0 0 0-.06.14.2.2 0 0 0 .06.14.21.21 0 0 0 .15.06zM17.63 22.73a.22.22 0 0 0 .14-.05.21.21 0 0 0 .06-.15.18.18 0 0 0-.06-.14.21.21 0 0 0-.28 0 .19.19 0 0 0-.06.14.19.19 0 0 0 .06.14.2.2 0 0 0 .14.06zM16.83 23.54a.19.19 0 0 0 .17-.06.2.2 0 0 0 0-.29.21.21 0 0 0-.28 0 .2.2 0 0 0-.06.14.18.18 0 0 0 .06.14.18.18 0 0 0 .11.07zM16 24.34a.19.19 0 0 0 .14-.06.2.2 0 0 0 0-.29.21.21 0 0 0-.28 0 .17.17 0 0 0-.06.14.2.2 0 0 0 .06.14.21.21 0 0 0 .14.07zM15.22 25.14a.21.21 0 0 0 .2-.2.18.18 0 0 0-.06-.14.2.2 0 0 0-.28 0 .19.19 0 0 0-.06.14.22.22 0 0 0 .05.14.21.21 0 0 0 .15.06zM14.41 25.95a.22.22 0 0 0 .14-.05.23.23 0 0 0 .07-.15.22.22 0 0 0-.06-.14.21.21 0 0 0-.29 0 .22.22 0 0 0-.06.15.19.19 0 0 0 .06.14.21.21 0 0 0 .14.05zM13.61 26.75a.21.21 0 0 0 .14-.05.22.22 0 0 0 .06-.15.19.19 0 0 0-.06-.14.21.21 0 0 0-.29 0 .19.19 0 0 0-.05.13.2.2 0 0 0 .06.14.21.21 0 0 0 .14.07zM12.8 27.55a.18.18 0 0 0 .14-.05.22.22 0 0 0 .06-.15.24.24 0 0 0 0-.14.22.22 0 0 0-.29 0 .21.21 0 0 0-.06.14.21.21 0 0 0 .05.14.22.22 0 0 0 .1.06zM12 28.36a.21.21 0 0 0 .14-.06.2.2 0 0 0 .06-.14.21.21 0 0 0-.06-.16.2.2 0 0 0-.29 0 .2.2 0 0 0 0 .28.21.21 0 0 0 .15.08zM11.2 29.17a.21.21 0 0 0 .2-.2.2.2 0 1 0-.4 0 .18.18 0 0 0 .06.14.19.19 0 0 0 .14.06zM10.39 30a.22.22 0 0 0 .14-.05.21.21 0 0 0 .06-.15.2.2 0 0 0-.34-.14.19.19 0 0 0 0 .28.2.2 0 0 0 .14.06zM9.58 30.77a.19.19 0 0 0 .2-.2.23.23 0 0 0-.05-.14.21.21 0 0 0-.29 0 .19.19 0 0 0-.06.14.18.18 0 0 0 .06.14.19.19 0 0 0 .14.06zM8.78 31.58a.18.18 0 0 0 .14-.05.22.22 0 0 0 .08-.15.21.21 0 0 0-.06-.14.21.21 0 0 0-.29 0 .19.19 0 0 0-.05.13.19.19 0 0 0 .18.21zM8 32.39a.19.19 0 0 0 .14-.06.2.2 0 0 0 .06-.14.18.18 0 0 0-.08-.19.2.2 0 0 0-.29 0 .2.2 0 0 0-.05.14.19.19 0 0 0 .06.14.21.21 0 0 0 .16.11zM7.17 33.19a.22.22 0 0 0 .13-.05.2.2 0 0 0 0-.29.21.21 0 0 0-.29 0A.19.19 0 0 0 7 33a.19.19 0 0 0 .06.14.18.18 0 0 0 .11.05zM6.37 34a.21.21 0 0 0 .14-.05.2.2 0 0 0 .07-.15.19.19 0 0 0-.06-.14.21.21 0 0 0-.29 0 .19.19 0 0 0-.06.14.2.2 0 0 0 .06.14.21.21 0 0 0 .14.06zM5.56 34.8a.21.21 0 0 0 .2-.2.19.19 0 0 0-.06-.14.21.21 0 0 0-.28 0 .19.19 0 0 0-.06.14.18.18 0 0 0 .06.14.19.19 0 0 0 .14.06zM4.76 35.6a.21.21 0 0 0 .14-.05.22.22 0 0 0 .1-.15.2.2 0 0 0-.06-.14.21.21 0 0 0-.29 0 .2.2 0 0 0-.05.13.22.22 0 0 0 .05.14.21.21 0 0 0 .11.07zM35.34 1a.19.19 0 0 0 .14-.06.16.16 0 0 0 .06-.13.2.2 0 0 0-.34-.14.18.18 0 0 0-.06.14.18.18 0 0 0 .06.14.2.2 0 0 0 .14.05zM34.54 1.81a.2.2 0 0 0 .2-.2.19.19 0 0 0-.06-.14.19.19 0 0 0-.28 0 .2.2 0 0 0 0 .28.17.17 0 0 0 .14.06zM33.73 2.62a.21.21 0 0 0 .15-.06.19.19 0 0 0 .06-.14.2.2 0 0 0-.35-.14.21.21 0 0 0-.05.14.19.19 0 0 0 .19.2zM32.92 3.42a.2.2 0 0 0 .15-.06.2.2 0 0 0 .05-.14.18.18 0 0 0-.06-.14.21.21 0 0 0-.28 0 .19.19 0 0 0 0 .28.18.18 0 0 0 .14.06zM32.12 4.22a.21.21 0 0 0 .14-.05.2.2 0 0 0 .06-.17.18.18 0 0 0-.06-.14.21.21 0 0 0-.28 0 .18.18 0 0 0-.06.13.21.21 0 0 0 .06.15.22.22 0 0 0 .14.08zM31.32 5a.21.21 0 0 0 .14 0 .18.18 0 0 0 .06-.14.2.2 0 0 0-.06-.15.21.21 0 0 0-.28 0 .21.21 0 0 0-.06.15.19.19 0 0 0 .06.14.21.21 0 0 0 .14 0zM30.51 5.84a.2.2 0 0 0 .14-.06.19.19 0 0 0 0-.29.2.2 0 0 0-.27 0 .18.18 0 0 0-.06.14.19.19 0 0 0 .06.14.18.18 0 0 0 .13.07zM29.7 6.64a.19.19 0 0 0 .15-.06.2.2 0 0 0 .05-.14.2.2 0 0 0-.06-.15.2.2 0 0 0-.34.15.19.19 0 0 0 .06.14.2.2 0 0 0 .14.06zM28.9 7.44a.2.2 0 0 0 .1-.06.21.21 0 0 0 .05-.14.2.2 0 0 0-.05-.14.21.21 0 0 0-.28 0 .2.2 0 0 0-.06.14.19.19 0 0 0 .06.14.18.18 0 0 0 .18.06zM28.1 8.24a.19.19 0 0 0 .14-.05.19.19 0 0 0 .06-.19.19.19 0 0 0-.06-.15.21.21 0 0 0-.28 0 .2.2 0 0 0-.06.15.19.19 0 0 0 .05.13.19.19 0 0 0 .15.11zM27.29 9.05a.21.21 0 0 0 .2-.2.21.21 0 0 0-.06-.15.21.21 0 0 0-.29 0 .18.18 0 0 0-.05.14.19.19 0 0 0 .06.14.21.21 0 0 0 .14.07zM26.49 9.86a.18.18 0 0 0 .14-.06.2.2 0 0 0 .06-.14.2.2 0 0 0-.07-.15.21.21 0 0 0-.28 0 .21.21 0 0 0-.06.14.2.2 0 0 0 .07.14.17.17 0 0 0 .14.07zM25.68 10.66a.21.21 0 0 0 .15-.06.21.21 0 0 0 .05-.14.2.2 0 0 0-.34-.14.2.2 0 0 0 0 .28.19.19 0 0 0 .14.06zM24.88 11.46a.21.21 0 0 0 .2-.2.18.18 0 0 0-.08-.14.21.21 0 0 0-.29 0 .19.19 0 0 0-.05.13.19.19 0 0 0 .06.14.19.19 0 0 0 .16.07zM24.08 12.27a.18.18 0 0 0 .14-.06.2.2 0 0 0 .06-.14.21.21 0 0 0-.06-.15.2.2 0 0 0-.34.15.18.18 0 0 0 .06.13.19.19 0 0 0 .14.07zM23.27 13.08a.22.22 0 0 0 .14-.08.24.24 0 0 0 .06-.15.18.18 0 0 0-.06-.14.21.21 0 0 0-.29 0 .2.2 0 0 0-.05.14.23.23 0 0 0 .05.14.22.22 0 0 0 .15.09zM22.47 13.88a.2.2 0 0 0 .14-.06.2.2 0 0 0-.29-.28.2.2 0 0 0-.05.14.22.22 0 0 0 .05.14.21.21 0 0 0 .15.06zM21.66 14.68a.2.2 0 0 0 .15-.06.21.21 0 0 0 0-.28.21.21 0 0 0-.29 0 .19.19 0 0 0 0 .28.2.2 0 0 0 .14.06zM20.86 15.49a.19.19 0 0 0 .14-.06.2.2 0 0 0 .05-.14.19.19 0 0 0-.05-.15.21.21 0 0 0-.28 0 .18.18 0 0 0-.06.13.2.2 0 0 0 .07.15.17.17 0 0 0 .13.07zM20.05 16.3a.19.19 0 0 0 .14-.06.18.18 0 0 0 .06-.14.21.21 0 0 0-.06-.15.22.22 0 0 0-.29 0 .18.18 0 0 0-.05.14.19.19 0 0 0 .06.14.21.21 0 0 0 .14.07zM19.25 17.1a.21.21 0 0 0 .2-.2.2.2 0 0 0-.06-.15.21.21 0 0 0-.28 0 .22.22 0 0 0-.06.15.24.24 0 0 0 .05.14.23.23 0 0 0 .15.06zM18.44 17.9a.21.21 0 0 0 .15-.06.2.2 0 0 0 .06-.14.21.21 0 0 0-.06-.14.2.2 0 0 0-.29 0 .2.2 0 0 0-.05.14.19.19 0 0 0 .05.14.2.2 0 0 0 .14.06zM17.64 18.71a.2.2 0 0 0 .15-.06.19.19 0 0 0 .05-.14.18.18 0 0 0-.06-.14.21.21 0 0 0-.28 0 .18.18 0 0 0-.06.13.22.22 0 0 0 .07.15.18.18 0 0 0 .13.06zM16.83 19.51a.18.18 0 0 0 .17-.06.17.17 0 0 0 0-.14.18.18 0 0 0 0-.14.21.21 0 0 0-.28 0 .18.18 0 0 0-.06.13.21.21 0 0 0 .06.15.2.2 0 0 0 .11.06zM16 20.31a.22.22 0 0 0 .14-.05.2.2 0 0 0 0-.29.2.2 0 0 0-.28 0 .18.18 0 0 0-.06.13.19.19 0 0 0 .2.21zM15.23 21.12a.2.2 0 0 0 .14-.06.21.21 0 0 0 .06-.14.24.24 0 0 0-.06-.15.21.21 0 0 0-.29 0 .2.2 0 0 0-.05.14.23.23 0 0 0 .05.14.22.22 0 0 0 .15.07zM14.42 21.92a.19.19 0 0 0 .14-.06.21.21 0 0 0 .06-.14.22.22 0 0 0-.06-.14.21.21 0 0 0-.29 0 .22.22 0 0 0-.06.14.21.21 0 0 0 .21.2zM13.61 22.73a.19.19 0 0 0 .2-.2.19.19 0 0 0-.06-.14.21.21 0 0 0-.28 0 .2.2 0 0 0-.06.14.18.18 0 0 0 .06.14.19.19 0 0 0 .14.06zM12.81 23.54a.19.19 0 0 0 .19-.06.21.21 0 0 0 0-.15.2.2 0 0 0 0-.13.21.21 0 0 0-.29 0 .22.22 0 0 0-.06.14.21.21 0 0 0 .05.14.21.21 0 0 0 .11.06zM12 24.34a.19.19 0 0 0 .14-.06.2.2 0 0 0 .06-.14.21.21 0 0 0-.05-.14.21.21 0 0 0-.29 0 .22.22 0 0 0-.06.15.24.24 0 0 0 .05.14.22.22 0 0 0 .15.05zM11.2 25.14a.19.19 0 0 0 .14-.06.18.18 0 0 0 .06-.14.18.18 0 0 0-.06-.14.21.21 0 0 0-.29 0 .2.2 0 0 0-.05.14.18.18 0 0 0 .06.14.18.18 0 0 0 .14.06zM10.39 25.95a.2.2 0 0 0 .15-.06.21.21 0 0 0 .06-.14.21.21 0 0 0-.06-.14.21.21 0 0 0-.29 0 .2.2 0 0 0 .14.34zM9.59 26.75a.21.21 0 0 0 .14-.05.22.22 0 0 0 .06-.15.23.23 0 0 0-.05-.14.21.21 0 0 0-.35.14.2.2 0 0 0 .06.14.21.21 0 0 0 .14.06zM8.79 27.55a.19.19 0 0 0 .14-.05.22.22 0 0 0 .07-.15.21.21 0 0 0-.06-.14.2.2 0 0 0-.28 0 .16.16 0 0 0-.06.13.19.19 0 0 0 .19.21zM8 28.36a.18.18 0 0 0 .14-.06.21.21 0 0 0 .06-.14.18.18 0 0 0-.07-.16.2.2 0 0 0-.29 0 .2.2 0 0 0-.05.14.23.23 0 0 0 .05.14.21.21 0 0 0 .16.08zM7.18 29.17a.21.21 0 0 0 .2-.2.19.19 0 0 0-.06-.14.2.2 0 0 0-.29 0A.21.21 0 0 0 7 29a.21.21 0 0 0 .05.14.2.2 0 0 0 .13.03zM6.37 30a.21.21 0 0 0 .15-.06.2.2 0 1 0-.29 0 .19.19 0 0 0 .14.06zM5.57 30.77a.22.22 0 0 0 .14-.05.22.22 0 0 0 .06-.15.23.23 0 0 0-.05-.14.21.21 0 0 0-.29 0 .19.19 0 0 0-.06.14.19.19 0 0 0 .06.14.21.21 0 0 0 .14.06zM4.76 31.58a.21.21 0 0 0 .15-.06.19.19 0 0 0 .09-.14.18.18 0 0 0-.06-.14.21.21 0 0 0-.28 0 .21.21 0 0 0 0 .29.22.22 0 0 0 .1.05zM4 32.39a.19.19 0 0 0 .14-.06.19.19 0 0 0 .06-.14.2.2 0 0 0-.38-.19.2.2 0 0 0-.06.15.18.18 0 0 0 .06.14.2.2 0 0 0 .18.1zM3.16 33.19a.18.18 0 0 0 .13-.06.19.19 0 0 0 .07-.13.22.22 0 0 0-.06-.14.21.21 0 0 0-.29 0A.2.2 0 0 0 3 33a.22.22 0 0 0 .05.14.21.21 0 0 0 .11.05zM2.35 34a.21.21 0 0 0 .15-.06.2.2 0 0 0 .05-.14.18.18 0 0 0-.06-.14.21.21 0 0 0-.28 0 .22.22 0 0 0-.06.14.2.2 0 0 0 .06.14.22.22 0 0 0 .14.06zM1.55 34.8a.2.2 0 0 0 .14-.05.21.21 0 0 0 .06-.14.21.21 0 0 0-.06-.15.21.21 0 0 0-.28 0 .18.18 0 0 0-.06.14.2.2 0 0 0 .06.14.22.22 0 0 0 .14.06zM.74 35.61a.21.21 0 0 0 .14-.06.22.22 0 0 0 .06-.15.2.2 0 0 0-.06-.14.21.21 0 0 0-.29 0 .2.2 0 0 0-.05.13.2.2 0 0 0 .2.22zM0 36.41a.19.19 0 0 0 .15-.07.18.18 0 0 0 .05-.13.18.18 0 0 0-.06-.15.21.21 0 0 0-.28 0 .21.21 0 0 0-.06.14.22.22 0 0 0 .06.14.19.19 0 0 0 .14.07zM31.32 1a.19.19 0 0 0 .14-.06.17.17 0 0 0 .06-.13.21.21 0 0 0-.06-.15.22.22 0 0 0-.29 0 .18.18 0 0 0-.05.14.18.18 0 0 0 .06.14.21.21 0 0 0 .14.06zM30.52 1.81a.21.21 0 0 0 .2-.2.18.18 0 0 0-.06-.14.19.19 0 0 0-.28 0 .2.2 0 0 0 0 .28.17.17 0 0 0 .14.06zM29.71 2.62a.19.19 0 0 0 .15-.06.21.21 0 0 0 .06-.14.21.21 0 0 0-.06-.14.21.21 0 0 0-.28 0 .2.2 0 0 0 0 .29.19.19 0 0 0 .13.05zM28.91 3.42a.2.2 0 0 0 .15-.06.2.2 0 0 0 .05-.14.18.18 0 0 0-.11-.14.2.2 0 0 0-.28 0 .18.18 0 0 0-.06.13.18.18 0 0 0 .06.14.19.19 0 0 0 .19.07zM28.1 4.22a.2.2 0 0 0 .14-.05.2.2 0 0 0 .07-.17.18.18 0 0 0-.06-.14.21.21 0 0 0-.28 0 .21.21 0 0 0-.07.14.22.22 0 0 0 .05.14.21.21 0 0 0 .15.08zM27.3 5a.19.19 0 0 0 .14 0 .16.16 0 0 0 .06-.13.23.23 0 0 0-.06-.15.22.22 0 0 0-.29 0 .2.2 0 0 0 0 .28.21.21 0 0 0 .15 0zM26.5 5.84a.21.21 0 0 0 .14-.06.2.2 0 0 0 .06-.14.25.25 0 0 0-.06-.15.21.21 0 0 0-.28 0 .18.18 0 0 0-.06.14.23.23 0 0 0 .05.14.22.22 0 0 0 .15.07zM25.69 6.64a.22.22 0 0 0 .14-.05.22.22 0 0 0 .06-.15.21.21 0 0 0-.05-.14.22.22 0 0 0-.29 0 .21.21 0 0 0-.06.14.19.19 0 0 0 .06.14.21.21 0 0 0 .14.06zM24.89 7.44a.19.19 0 0 0 .2-.2.19.19 0 0 0-.09-.14.21.21 0 0 0-.28 0 .2.2 0 0 0 0 .29.18.18 0 0 0 .17.05zM24.08 8.25a.21.21 0 0 0 .15-.07.18.18 0 0 0 .05-.18.19.19 0 0 0-.06-.15.21.21 0 0 0-.28 0 .21.21 0 0 0-.06.15.18.18 0 0 0 .06.13.2.2 0 0 0 .14.12zM23.28 9.05a.21.21 0 0 0 .14-.05.19.19 0 0 0 .06-.14.2.2 0 0 0-.06-.15.21.21 0 0 0-.28 0 .22.22 0 0 0-.06.15.2.2 0 0 0 .05.13.21.21 0 0 0 .15.06zM22.48 9.86a.19.19 0 0 0 .14-.06.22.22 0 0 0 .06-.14.21.21 0 0 0-.06-.14.21.21 0 0 0-.28 0 .23.23 0 0 0-.07.15.22.22 0 0 0 .06.14.21.21 0 0 0 .15.05zM21.67 10.66a.2.2 0 0 0 .15-.06.21.21 0 0 0 0-.28.21.21 0 0 0-.29 0 .2.2 0 0 0 .14.34zM20.86 11.46a.22.22 0 0 0 .14-.05.21.21 0 0 0 .06-.15.19.19 0 0 0-.06-.14.2.2 0 0 0-.28 0 .2.2 0 0 0-.06.14.21.21 0 0 0 .05.14.22.22 0 0 0 .15.06zM20.06 12.27a.19.19 0 0 0 .14-.06.2.2 0 0 0 0-.28.2.2 0 0 0-.35.14.18.18 0 0 0 .06.13.18.18 0 0 0 .15.07zM19.26 13.08a.2.2 0 0 0 .14-.08.16.16 0 0 0 .06-.13.23.23 0 0 0-.06-.15.21.21 0 0 0-.29 0 .19.19 0 0 0-.05.14.18.18 0 0 0 .06.14.21.21 0 0 0 .14.08zM18.45 13.88a.19.19 0 0 0 .14-.06.19.19 0 0 0 .06-.14.18.18 0 0 0-.06-.14.2.2 0 0 0-.28 0 .22.22 0 0 0-.06.15.23.23 0 0 0 .05.14.19.19 0 0 0 .15.05zM17.64 14.68a.21.21 0 0 0 .15-.06.19.19 0 0 0 0-.28.21.21 0 0 0-.29 0 .22.22 0 0 0-.06.14.21.21 0 0 0 .2.2zM16.84 15.49a.21.21 0 0 0 .16-.06.22.22 0 0 0 0-.14.24.24 0 0 0 0-.15.22.22 0 0 0-.29 0 .21.21 0 0 0-.06.14.2.2 0 0 0 .06.14.21.21 0 0 0 .13.07zM16 16.29a.21.21 0 0 0 .14-.05.19.19 0 0 0 .06-.15.18.18 0 0 0-.06-.14.22.22 0 0 0-.29 0 .19.19 0 0 0-.05.13.2.2 0 0 0 .06.15.2.2 0 0 0 .14.06zM15.23 17.1a.21.21 0 0 0 .2-.2.18.18 0 0 0-.06-.14.2.2 0 0 0-.34.14.22.22 0 0 0 .05.14.21.21 0 0 0 .15.06zM14.43 17.9a.2.2 0 0 0 .2-.2.21.21 0 0 0-.06-.14.21.21 0 0 0-.29 0 .2.2 0 0 0-.05.14.21.21 0 0 0 .05.14.22.22 0 0 0 .15.06zM13.62 18.71a.2.2 0 0 0 .2-.2.22.22 0 0 0-.05-.14.21.21 0 0 0-.29 0 .2.2 0 0 0-.06.14.18.18 0 0 0 .06.14.2.2 0 0 0 .14.06zM12.82 19.51a.21.21 0 0 0 .18-.05.21.21 0 0 0 0-.15.19.19 0 0 0 0-.14.21.21 0 0 0-.28 0 .19.19 0 0 0-.06.14.21.21 0 0 0 .06.15.21.21 0 0 0 .1.05zM12 20.32a.19.19 0 0 0 .14-.06.22.22 0 0 0 .06-.14.21.21 0 0 0-.05-.12.21.21 0 0 0-.28 0 .18.18 0 0 0-.06.15.19.19 0 0 0 .06.14.22.22 0 0 0 .13.03zM11.21 21.12a.19.19 0 0 0 .14-.06.22.22 0 0 0 .06-.14.18.18 0 0 0-.06-.14.2.2 0 0 0-.28 0 .21.21 0 0 0-.06.15.19.19 0 0 0 .06.14.21.21 0 0 0 .14.05zM10.41 21.92a.19.19 0 0 0 .14-.06.2.2 0 0 0 .06-.14.2.2 0 1 0-.4 0 .2.2 0 0 0 .2.2zM9.6 22.73a.21.21 0 0 0 .15-.06.21.21 0 0 0 .05-.14.22.22 0 0 0-.05-.14.21.21 0 0 0-.29 0 .17.17 0 0 0-.06.13.21.21 0 0 0 .07.15.18.18 0 0 0 .13.06zM8.79 23.53a.2.2 0 0 0 .14-.05.2.2 0 0 0 0-.29.2.2 0 0 0-.28 0 .17.17 0 0 0-.06.13.19.19 0 0 0 .06.15.21.21 0 0 0 .14.06zM8 24.34a.21.21 0 0 0 .14-.05.2.2 0 0 0 .06-.14.2.2 0 0 0-.07-.15.21.21 0 0 0-.28 0 .21.21 0 0 0-.06.15.21.21 0 0 0 .06.14.21.21 0 0 0 .15.05zM7.19 25.14a.2.2 0 0 0 .2-.2.19.19 0 0 0-.06-.14.2.2 0 0 0-.34.14.22.22 0 0 0 .05.14.21.21 0 0 0 .15.06zM6.38 25.95a.22.22 0 0 0 .14-.05.2.2 0 0 0 0-.29.2.2 0 0 0-.29 0 .2.2 0 0 0 0 .28.21.21 0 0 0 .15.06zM5.58 26.75a.19.19 0 0 0 .2-.2.18.18 0 0 0-.06-.14.21.21 0 0 0-.28 0 .18.18 0 0 0-.06.14.19.19 0 0 0 .06.14.2.2 0 0 0 .14.06zM4.77 27.55a.21.21 0 0 0 .14-.05.21.21 0 0 0 .09-.14.24.24 0 0 0-.05-.15.2.2 0 0 0-.35.15.2.2 0 0 0 .06.14.2.2 0 0 0 .11.05zM4 28.36a.21.21 0 0 0 .14-.06.2.2 0 0 0 .06-.14.19.19 0 0 0-.09-.16.2.2 0 0 0-.28 0 .21.21 0 0 0-.06.15.19.19 0 0 0 .06.14.21.21 0 0 0 .17.07zM3.17 29.17a.19.19 0 0 0 .14-.06.21.21 0 0 0 .06-.11.18.18 0 0 0-.06-.14A.2.2 0 0 0 3 29a.2.2 0 0 0 .05.14.2.2 0 0 0 .12.03zM2.36 30a.22.22 0 0 0 .14-.05.21.21 0 0 0 .07-.15.2.2 0 0 0-.35-.14.19.19 0 0 0 0 .28.2.2 0 0 0 .14.06zM1.55 30.77a.21.21 0 0 0 .15-.06.2.2 0 0 0 .05-.14.22.22 0 0 0-.05-.14.22.22 0 0 0-.29 0 .19.19 0 0 0-.06.14.18.18 0 0 0 .06.14.19.19 0 0 0 .14.06zM.75 31.58a.2.2 0 0 0 .2-.2.19.19 0 0 0-.06-.14.22.22 0 0 0-.28 0 .2.2 0 0 0-.06.14.21.21 0 0 0 .06.15.21.21 0 0 0 .14.05zM-.05 32.39a.2.2 0 0 0 .14-.06.2.2 0 0 0 .06-.14.21.21 0 0 0-.06-.19.21.21 0 0 0-.29 0 .21.21 0 0 0-.05.14.23.23 0 0 0 .05.14.22.22 0 0 0 .15.11zM27.31 1a.18.18 0 0 0 .14-.06.17.17 0 0 0 .06-.13.19.19 0 0 0-.06-.15.2.2 0 0 0-.28 0 .22.22 0 0 0-.06.15.21.21 0 0 0 .05.13.21.21 0 0 0 .15.06zM26.5 1.81a.18.18 0 0 0 .14-.06.19.19 0 0 0 .06-.14.18.18 0 0 0-.06-.14.21.21 0 0 0-.28 0 .22.22 0 0 0-.06.15.23.23 0 0 0 .05.14.19.19 0 0 0 .15.05zM25.7 2.62a.2.2 0 0 0 .14-.06.21.21 0 0 0 .06-.14.19.19 0 0 0-.07-.14.21.21 0 0 0-.28 0 .21.21 0 0 0-.06.14.21.21 0 0 0 .21.2zM24.89 3.42a.19.19 0 0 0 .11-.06.19.19 0 0 0 .05-.14.18.18 0 0 0-.05-.14.19.19 0 0 0-.28 0 .18.18 0 0 0-.06.13.22.22 0 0 0 .07.15.18.18 0 0 0 .16.06zM24.09 4.22a.2.2 0 0 0 .14-.05.2.2 0 0 0 .06-.17.18.18 0 0 0-.06-.14.21.21 0 0 0-.28 0 .17.17 0 0 0-.06.13.21.21 0 0 0 .06.15.21.21 0 0 0 .14.08zM23.29 5a.21.21 0 0 0 .14 0 .19.19 0 0 0 .06-.14.19.19 0 0 0-.06-.14.2.2 0 0 0-.34.14.19.19 0 0 0 .06.14.21.21 0 0 0 .14 0zM22.48 5.84a.18.18 0 0 0 .14-.06.21.21 0 0 0 .06-.14.23.23 0 0 0-.06-.15.22.22 0 0 0-.29 0 .19.19 0 0 0-.05.14.18.18 0 0 0 .06.14.17.17 0 0 0 .14.07zM21.67 6.64a.22.22 0 0 0 .14-.05.22.22 0 0 0 .07-.15.21.21 0 0 0-.06-.14.22.22 0 0 0-.29 0 .19.19 0 0 0-.06.14.19.19 0 0 0 .06.14.21.21 0 0 0 .14.06zM20.87 7.44a.2.2 0 0 0 .13-.05.21.21 0 0 0 .06-.15.19.19 0 0 0-.06-.14.2.2 0 0 0-.28 0 .19.19 0 0 0-.06.14.18.18 0 0 0 .06.14.19.19 0 0 0 .15.06zM20.07 8.24a.2.2 0 0 0 .14-.05.19.19 0 0 0 .06-.19.18.18 0 0 0-.06-.15.21.21 0 0 0-.28 0 .21.21 0 0 0-.06.15.2.2 0 0 0 .06.14.2.2 0 0 0 .14.1zM19.26 9.05A.22.22 0 0 0 19.4 9a.18.18 0 0 0 .06-.14.18.18 0 0 0-.06-.15.2.2 0 0 0-.34.15.2.2 0 0 0 .06.14.21.21 0 0 0 .14.05zM18.46 9.86a.21.21 0 0 0 .2-.2.2.2 0 0 0-.07-.15.21.21 0 0 0-.28 0 .19.19 0 0 0-.05.14.18.18 0 0 0 .06.14.19.19 0 0 0 .14.07zM17.65 10.66a.22.22 0 0 0 .14-.05.2.2 0 0 0 .06-.15.2.2 0 0 0-.05-.14.2.2 0 0 0-.29 0 .19.19 0 0 0 0 .28.21.21 0 0 0 .14.06zM16.85 11.46a.2.2 0 0 0 .15-.05.22.22 0 0 0 0-.15.23.23 0 0 0 0-.14.21.21 0 0 0-.29 0 .19.19 0 0 0-.06.14.21.21 0 0 0 .2.2zM16 12.27a.2.2 0 0 0 .14-.05.18.18 0 0 0 .06-.14.2.2 0 0 0-.06-.15.21.21 0 0 0-.28 0 .19.19 0 0 0-.06.14.18.18 0 0 0 .06.14.2.2 0 0 0 .14.06zM15.24 13.08a.19.19 0 0 0 .14-.08.2.2 0 0 0 .06-.14.19.19 0 0 0-.06-.14.2.2 0 0 0-.29 0 .21.21 0 0 0-.05.14.23.23 0 0 0 .05.14.22.22 0 0 0 .15.08zM14.44 13.88a.22.22 0 0 0 .14-.05.22.22 0 0 0 .06-.15.19.19 0 0 0-.06-.14.21.21 0 0 0-.29 0 .2.2 0 0 0 .15.34zM13.63 14.68a.21.21 0 0 0 .15-.06.19.19 0 0 0 0-.28.22.22 0 0 0-.29 0 .22.22 0 0 0-.06.14.19.19 0 0 0 .06.14.2.2 0 0 0 .14.06zM12.82 15.49a.2.2 0 0 0 .18-.06.21.21 0 0 0 0-.14.22.22 0 0 0 0-.15.22.22 0 0 0-.29 0 .2.2 0 0 0-.06.14.19.19 0 0 0 .06.14.2.2 0 0 0 .11.07zM12 16.29a.2.2 0 0 0 .2-.2.2.2 0 0 0-.06-.14.21.21 0 0 0-.29 0 .2.2 0 0 0 0 .27.2.2 0 0 0 .15.07zM11.22 17.1a.2.2 0 0 0 .14-.1.21.21 0 0 0 .06-.14.18.18 0 0 0-.06-.14.21.21 0 0 0-.29 0 .19.19 0 0 0-.05.14.18.18 0 0 0 .06.14.2.2 0 0 0 .14.1zM10.41 17.9a.2.2 0 0 0 .14-.05.21.21 0 0 0 .07-.15.2.2 0 0 0-.06-.14.2.2 0 0 0-.29 0 .2.2 0 0 0-.05.14.2.2 0 0 0 .05.14.2.2 0 0 0 .14.06zM9.6 18.71a.2.2 0 0 0 .15-.06.2.2 0 0 0 .05-.14.2.2 0 0 0-.34-.14.21.21 0 0 0-.06.14.21.21 0 0 0 .07.15.18.18 0 0 0 .13.05zM8.8 19.51a.18.18 0 0 0 .14-.06.2.2 0 0 0 .06-.14.19.19 0 0 0-.06-.14.2.2 0 0 0-.28 0 .19.19 0 0 0-.06.14.2.2 0 0 0 .06.14.19.19 0 0 0 .14.06zM8 20.31a.21.21 0 0 0 .14-.05.2.2 0 0 0 .06-.14.21.21 0 0 0-.06-.12.21.21 0 0 0-.28 0 .21.21 0 0 0-.06.15.2.2 0 0 0 .05.13.21.21 0 0 0 .15.03zM7.2 21.12a.21.21 0 0 0 .2-.2.19.19 0 0 0-.06-.14.2.2 0 0 0-.28 0 .22.22 0 0 0-.06.15.23.23 0 0 0 .05.14.22.22 0 0 0 .15.05zM6.39 21.92a.2.2 0 0 0 .2-.2.22.22 0 0 0-.06-.14.21.21 0 0 0-.29 0 .22.22 0 0 0-.06.14.19.19 0 0 0 .06.14.21.21 0 0 0 .15.06zM5.58 22.73a.21.21 0 0 0 .15-.06.21.21 0 0 0 .05-.14.2.2 0 0 0-.34-.14.22.22 0 0 0-.06.14.21.21 0 0 0 .06.14.2.2 0 0 0 .14.06zM4.78 23.53a.2.2 0 0 0 .14-.05.2.2 0 0 0 0-.29.2.2 0 0 0-.28 0 .18.18 0 0 0-.06.13.19.19 0 0 0 .07.15.17.17 0 0 0 .13.06zM4 24.34a.19.19 0 0 0 .14-.06.2.2 0 0 0 .06-.14.2.2 0 0 0-.08-.14.21.21 0 0 0-.29 0 .2.2 0 0 0-.05.14.2.2 0 0 0 .05.13.19.19 0 0 0 .17.07zM3.17 25.14a.19.19 0 0 0 .14-.06.2.2 0 0 0 .06-.14.19.19 0 0 0-.06-.14.22.22 0 0 0-.29 0 .21.21 0 0 0-.05.14.22.22 0 0 0 .05.14.21.21 0 0 0 .15.06zM2.36 25.95a.22.22 0 0 0 .14-.05.22.22 0 0 0 .07-.15.2.2 0 0 0-.35-.14.21.21 0 0 0-.06.14.19.19 0 0 0 .06.14.21.21 0 0 0 .14.06zM1.56 26.75a.22.22 0 0 0 .14-.05.22.22 0 0 0 .06-.15.21.21 0 0 0-.05-.14.21.21 0 0 0-.29 0 .19.19 0 0 0 0 .28.19.19 0 0 0 .14.06zM.76 27.55a.21.21 0 0 0 .14-.05.21.21 0 0 0 .1-.14.22.22 0 0 0-.1-.15.21.21 0 0 0-.29 0 .2.2 0 0 0-.05.14.18.18 0 0 0 .06.14.2.2 0 0 0 .14.06zM0 28.36a.19.19 0 0 0 .09-.06.16.16 0 0 0 .06-.13.21.21 0 0 0-.06-.17.21.21 0 0 0-.29 0 .2.2 0 0 0-.05.14.2.2 0 0 0 .06.14.18.18 0 0 0 .19.08zM23.29 1a.19.19 0 0 0 .14-.05.19.19 0 0 0 .06-.14.19.19 0 0 0-.06-.15.22.22 0 0 0-.29 0 .21.21 0 0 0-.05.14.23.23 0 0 0 .05.14.22.22 0 0 0 .15.06zM22.49 1.81a.2.2 0 0 0 .14-.06.2.2 0 0 0 .06-.14.18.18 0 0 0-.06-.14.21.21 0 0 0-.28 0 .21.21 0 0 0-.06.15.21.21 0 0 0 .05.14.22.22 0 0 0 .15.05zM21.69 2.62a.2.2 0 0 0 .13-.05.21.21 0 0 0 .07-.15.2.2 0 0 0-.35-.14.21.21 0 0 0-.06.14.22.22 0 0 0 .06.14.21.21 0 0 0 .15.06zM20.88 3.42a.22.22 0 0 0 .12-.05.19.19 0 0 0 .06-.15.17.17 0 0 0-.06-.14.2.2 0 0 0-.35.13.19.19 0 0 0 .06.14.2.2 0 0 0 .17.07zM20.07 4.22a.22.22 0 0 0 .14-.05.21.21 0 0 0 .06-.17.22.22 0 0 0-.05-.14.21.21 0 0 0-.29 0 .2.2 0 0 0-.06.14.18.18 0 0 0 .06.14.2.2 0 0 0 .14.08zM19.27 5a.22.22 0 0 0 .14 0 .18.18 0 0 0 .06-.14.22.22 0 0 0-.06-.15.2.2 0 0 0-.28 0 .18.18 0 0 0-.06.14.23.23 0 0 0 .05.14.24.24 0 0 0 .15.01zM18.47 5.84a.21.21 0 0 0 .2-.2.18.18 0 0 0-.06-.14.19.19 0 0 0-.28 0 .18.18 0 0 0-.06.14.2.2 0 0 0 .06.14.18.18 0 0 0 .14.06zM17.66 6.64a.21.21 0 0 0 .21-.2.2.2 0 0 0-.07-.14.21.21 0 0 0-.29 0 .19.19 0 0 0-.06.14.19.19 0 0 0 .06.14.19.19 0 0 0 .15.06zM16.85 7.44a.2.2 0 0 0 .2-.2.18.18 0 0 0-.05-.14.21.21 0 0 0-.28 0 .18.18 0 0 0-.06.13.22.22 0 0 0 .07.15.18.18 0 0 0 .12.06zM16 8.24a.2.2 0 0 0 .25-.24.2.2 0 0 0-.06-.15.2.2 0 0 0-.34.15.21.21 0 0 0 .06.14.2.2 0 0 0 .09.1zM15.25 9.05a.21.21 0 0 0 .14-.05.21.21 0 0 0 .06-.14.19.19 0 0 0-.06-.14.2.2 0 0 0-.28 0 .22.22 0 0 0-.06.15.23.23 0 0 0 .05.13.23.23 0 0 0 .15.05zM14.44 9.86a.21.21 0 0 0 .2-.2.21.21 0 0 0-.06-.14.21.21 0 0 0-.29 0 .2.2 0 0 0-.05.14.22.22 0 0 0 .05.14.21.21 0 0 0 .15.06zM13.63 10.66a.2.2 0 0 0 .15-.06.22.22 0 0 0 .05-.14.2.2 0 0 0-.05-.14.2.2 0 0 0-.35.14.21.21 0 0 0 .2.2zM12.83 11.46a.22.22 0 0 0 .17-.05.21.21 0 0 0 0-.29.21.21 0 0 0-.29 0 .2.2 0 0 0-.06.14.22.22 0 0 0 .05.14.22.22 0 0 0 .13.06zM12 12.27a.2.2 0 0 0 .14-.05.19.19 0 0 0 .06-.14.2.2 0 0 0-.35-.14.21.21 0 0 0-.05.14.19.19 0 0 0 .06.14.2.2 0 0 0 .14.05zM11.22 13.08a.19.19 0 0 0 .14-.08.2.2 0 0 0 0-.28.2.2 0 0 0-.29 0 .18.18 0 0 0-.06.14.2.2 0 0 0 .06.14.18.18 0 0 0 .15.08zM10.42 13.88a.21.21 0 0 0 .2-.2.18.18 0 0 0-.06-.14.21.21 0 0 0-.29 0 .2.2 0 0 0-.05.14.22.22 0 0 0 .05.14.2.2 0 0 0 .15.06zM9.61 14.68a.22.22 0 0 0 .14-.05.23.23 0 0 0 .07-.15.22.22 0 0 0-.06-.14.22.22 0 0 0-.29 0 .22.22 0 0 0-.06.14.19.19 0 0 0 .06.14.21.21 0 0 0 .14.06zM8.81 15.49a.21.21 0 0 0 .19-.06.21.21 0 0 0 0-.14.22.22 0 0 0 0-.15.22.22 0 0 0-.29 0 .21.21 0 0 0-.06.14.19.19 0 0 0 .06.14.2.2 0 0 0 .1.07zM8 16.3a.2.2 0 0 0 .14-.06.2.2 0 0 0 .06-.14.18.18 0 0 0-.05-.1.2.2 0 0 0-.28 0 .21.21 0 0 0-.06.15.19.19 0 0 0 .06.14.21.21 0 0 0 .13.01zM7.2 17.1a.2.2 0 0 0 .14-.1.23.23 0 0 0 .06-.1.24.24 0 0 0-.06-.15.22.22 0 0 0-.29 0 .19.19 0 0 0-.05.15.18.18 0 0 0 .06.14.2.2 0 0 0 .14.06zM6.4 17.9a.2.2 0 0 0 .13-.05.2.2 0 0 0 .07-.15.19.19 0 0 0-.06-.14.21.21 0 0 0-.29 0 .22.22 0 0 0-.05.14.21.21 0 0 0 .05.14.22.22 0 0 0 .15.06zM5.59 18.71a.2.2 0 0 0 .2-.2.22.22 0 0 0-.05-.14.21.21 0 0 0-.29 0 .19.19 0 0 0-.06.13.18.18 0 0 0 .06.14.19.19 0 0 0 .14.07zM4.79 19.51a.18.18 0 0 0 .14-.06.19.19 0 0 0 .07-.14.19.19 0 0 0-.06-.14.21.21 0 0 0-.28 0 .19.19 0 0 0-.06.14.19.19 0 0 0 .06.14.19.19 0 0 0 .13.06zM4 20.32a.19.19 0 0 0 .14-.06.2.2 0 0 0 0-.29.2.2 0 0 0-.34.14.22.22 0 0 0 .05.14.2.2 0 0 0 .15.07zM3.18 21.12a.2.2 0 0 0 .14-.34.2.2 0 0 0-.34.14.18.18 0 0 0 .06.14.2.2 0 0 0 .14.06zM2.38 21.92a.18.18 0 0 0 .14-.06.2.2 0 0 0 .05-.14.21.21 0 0 0-.06-.15.22.22 0 0 0-.28 0 .21.21 0 0 0-.06.14.22.22 0 0 0 .06.14.2.2 0 0 0 .15.07zM1.57 22.73a.2.2 0 0 0 .2-.2.24.24 0 0 0-.05-.14.21.21 0 0 0-.29 0 .2.2 0 0 0-.06.14.19.19 0 0 0 .06.14.2.2 0 0 0 .14.06zM.76 23.53a.19.19 0 0 0 .15-.06.19.19 0 0 0 .09-.14.19.19 0 0 0-.1-.14.21.21 0 0 0-.28 0 .2.2 0 0 0 0 .29.21.21 0 0 0 .14.05zM0 24.34a.21.21 0 0 0 .1-.06.21.21 0 0 0 .06-.14.21.21 0 0 0-.05-.14.21.21 0 0 0-.29 0 .22.22 0 0 0-.06.15.21.21 0 0 0 .06.14.21.21 0 0 0 .18.05zM19.28 1a.19.19 0 0 0 .14-.05.2.2 0 0 0 .06-.14.19.19 0 0 0-.06-.14.2.2 0 0 0-.28 0 .21.21 0 0 0-.06.15.22.22 0 0 0 .05.14.24.24 0 0 0 .15.04zM18.47 1.81a.19.19 0 0 0 .14-.06.18.18 0 0 0 .06-.14.24.24 0 0 0-.06-.15.22.22 0 0 0-.29 0 .2.2 0 0 0-.05.14.21.21 0 0 0 .05.14.21.21 0 0 0 .15.07zM17.67 2.62a.2.2 0 0 0 .2-.2.2.2 0 0 0-.06-.14.21.21 0 0 0-.29 0 .23.23 0 0 0-.06.14.2.2 0 0 0 .21.2zM16.86 3.42a.2.2 0 0 0 .14-.06.2.2 0 0 0 .05-.14.21.21 0 0 0-.05-.14.21.21 0 0 0-.29 0 .19.19 0 0 0-.06.14.21.21 0 0 0 .06.14.19.19 0 0 0 .15.06zM16.06 4.22a.2.2 0 0 0 .14-.05.2.2 0 0 0 .06-.17.18.18 0 0 0-.06-.14.21.21 0 0 0-.28 0 .2.2 0 0 0-.06.14.18.18 0 0 0 .06.14.19.19 0 0 0 .14.08zM15.25 5a.21.21 0 0 0 .2-.2.2.2 0 0 0-.34-.15.2.2 0 0 0 0 .29.18.18 0 0 0 .14.06zM14.45 5.84a.2.2 0 0 0 .14-.06.21.21 0 0 0 .06-.14.19.19 0 0 0-.06-.14.2.2 0 0 0-.29 0 .21.21 0 0 0-.05.14.23.23 0 0 0 .05.14.22.22 0 0 0 .15.06zM13.64 6.64a.22.22 0 0 0 .14-.05.21.21 0 0 0 .07-.15.2.2 0 0 0-.35-.14.19.19 0 0 0-.06.14.19.19 0 0 0 .06.14.2.2 0 0 0 .14.06zM12.84 7.44a.2.2 0 0 0 .2-.2.23.23 0 0 0-.04-.14.21.21 0 0 0-.29 0 .18.18 0 0 0-.06.13.18.18 0 0 0 .06.14.2.2 0 0 0 .13.07zM12 8.24a.2.2 0 0 0 .14-.05.21.21 0 0 0 .1-.19.2.2 0 0 0-.06-.14.21.21 0 0 0-.29 0 .19.19 0 0 0-.05.13.21.21 0 0 0 .06.15.2.2 0 0 0 .1.1zM11.23 9.05a.21.21 0 0 0 .14-.05.21.21 0 0 0 .06-.14.19.19 0 0 0-.06-.14.2.2 0 0 0-.29 0 .21.21 0 0 0-.05.14.23.23 0 0 0 .05.14.22.22 0 0 0 .15.05zM10.43 9.86a.21.21 0 0 0 .2-.2.19.19 0 0 0-.06-.14.2.2 0 0 0-.28 0 .19.19 0 0 0-.06.15.17.17 0 0 0 .05.13.19.19 0 0 0 .15.06zM9.62 10.66a.2.2 0 0 0 .2-.2.2.2 0 0 0-.05-.14.2.2 0 0 0-.35.14.19.19 0 0 0 .06.14.21.21 0 0 0 .14.06zM8.82 11.46a.22.22 0 0 0 .18-.05.23.23 0 0 0 0-.15.19.19 0 0 0 0-.14.21.21 0 0 0-.28 0 .2.2 0 0 0-.06.14.18.18 0 0 0 .06.14.19.19 0 0 0 .1.06zM8 12.27a.2.2 0 0 0 .14-.06.19.19 0 0 0 .06-.15.21.21 0 0 0-.06-.14.2.2 0 0 0-.28 0 .18.18 0 0 0-.06.13.19.19 0 0 0 .06.15.2.2 0 0 0 .14.07zM7.21 13.08a.19.19 0 0 0 .14-.08.2.2 0 0 0 .06-.14.18.18 0 0 0-.06-.14.2.2 0 0 0-.29 0 .2.2 0 0 0 0 .28.18.18 0 0 0 .15.08zM6.41 13.88a.23.23 0 0 0 .14-.05.22.22 0 0 0 .06-.15.19.19 0 0 0-.06-.14.21.21 0 0 0-.29 0 .2.2 0 0 0 .15.34zM5.59 14.68a.21.21 0 0 0 .15-.06.2.2 0 0 0 .05-.14.18.18 0 0 0-.06-.14.2.2 0 0 0-.28 0 .22.22 0 0 0-.06.14.2.2 0 0 0 .06.14.22.22 0 0 0 .14.06zM4.79 15.49a.21.21 0 0 0 .14-.05.2.2 0 1 0-.29-.28.19.19 0 0 0-.05.13.2.2 0 0 0 .06.14.21.21 0 0 0 .14.06zM4 16.29a.22.22 0 0 0 .14-.05.2.2 0 0 0 .06-.14.21.21 0 0 0-.06-.15.21.21 0 0 0-.29 0 .2.2 0 0 0 0 .28.2.2 0 0 0 .15.06zM3.19 17.1a.23.23 0 0 0 .14-.1.23.23 0 0 0 .06-.15.19.19 0 0 0-.06-.14.2.2 0 0 0-.28 0 .21.21 0 0 0-.05.19.24.24 0 0 0 0 .1.22.22 0 0 0 .19.1zM2.38 17.9a.18.18 0 0 0 .14-.06.2.2 0 0 0 .06-.14.22.22 0 0 0-.07-.15.21.21 0 0 0-.28 0 .2.2 0 0 0-.05.14.21.21 0 0 0 .05.14.2.2 0 0 0 .15.07zM1.57 18.71a.22.22 0 0 0 .14-.05.22.22 0 0 0 .06-.15.22.22 0 0 0-.05-.14.21.21 0 0 0-.29 0 .19.19 0 0 0 0 .28.2.2 0 0 0 .14.06zM.77 19.51a.21.21 0 0 0 .14-.05.22.22 0 0 0 .09-.15.2.2 0 0 0-.34-.14.21.21 0 0 0-.06.14.2.2 0 0 0 .06.14.2.2 0 0 0 .11.06zM0 20.32a.22.22 0 0 0 .14-.06.19.19 0 0 0 .06-.15.19.19 0 0 0-.09-.11.21.21 0 0 0-.28 0 .21.21 0 0 0-.06.14.2.2 0 0 0 .05.14.2.2 0 0 0 .18.04zM15.26 1a.19.19 0 0 0 .14-.05.2.2 0 0 0 .06-.14.21.21 0 0 0-.06-.15.21.21 0 0 0-.28 0 .2.2 0 0 0-.06.15.19.19 0 0 0 .06.14.2.2 0 0 0 .14.05zM14.46 1.81a.2.2 0 0 0 .2-.2.18.18 0 0 0-.06-.14.21.21 0 0 0-.29 0 .2.2 0 0 0-.05.14.22.22 0 0 0 .05.14.21.21 0 0 0 .15.06zM13.65 2.62a.21.21 0 0 0 .2-.2.23.23 0 0 0-.06-.14.21.21 0 0 0-.29 0 .23.23 0 0 0-.06.14.22.22 0 0 0 .06.14.21.21 0 0 0 .15.06zM12.84 3.42a.23.23 0 0 0 .16-.05.25.25 0 0 0 0-.15.2.2 0 0 0-.34-.14.2.2 0 0 0 .18.34zM12 4.22a.21.21 0 0 0 .14-.05.2.2 0 0 0 .1-.17.2.2 0 0 0-.06-.14.2.2 0 0 0-.34.14.18.18 0 0 0 .06.14.2.2 0 0 0 .1.08zM11.24 5a.19.19 0 0 0 .14 0 .2.2 0 0 0 .06-.14.18.18 0 0 0-.06-.14.19.19 0 0 0-.28 0 .19.19 0 0 0-.06.14.23.23 0 0 0 .05.14.22.22 0 0 0 .15 0zM10.43 5.84a.19.19 0 0 0 .14-.06.2.2 0 0 0 .06-.14.18.18 0 0 0-.06-.14.21.21 0 0 0-.29 0 .2.2 0 0 0-.05.14.21.21 0 0 0 .2.2zM9.63 6.64a.22.22 0 0 0 .14-.05.21.21 0 0 0 .07-.15.23.23 0 0 0-.07-.14.21.21 0 0 0-.29 0 .2.2 0 0 0-.06.14.21.21 0 0 0 .06.14.2.2 0 0 0 .15.06zM8.82 7.44a.2.2 0 0 0 .18-.2.18.18 0 0 0 0-.14.21.21 0 0 0-.28 0 .21.21 0 0 0-.06.14.2.2 0 0 0 .06.14.21.21 0 0 0 .1.06zM8 8.24a.18.18 0 0 0 .14-.05.2.2 0 0 0 0-.29.21.21 0 0 0-.29 0 .2.2 0 0 0-.03.1.2.2 0 0 0 .05.14.2.2 0 0 0 .13.1zM7.21 9.05A.22.22 0 0 0 7.36 9a.2.2 0 1 0-.29-.28.2.2 0 0 0 0 .27.22.22 0 0 0 .14.06zM6.41 9.86a.2.2 0 0 0 .14-.06.2.2 0 0 0 .06-.14.22.22 0 0 0-.05-.14.2.2 0 0 0-.29 0 .22.22 0 0 0-.05.14.23.23 0 0 0 .05.14.22.22 0 0 0 .14.06zM5.6 10.66a.2.2 0 0 0 .2-.2.2.2 0 0 0-.05-.14.2.2 0 0 0-.35.14.21.21 0 0 0 .06.14.19.19 0 0 0 .14.06zM4.8 11.46a.21.21 0 0 0 .2-.2.19.19 0 0 0-.06-.14.2.2 0 0 0-.28 0 .2.2 0 0 0-.06.14.18.18 0 0 0 .06.14.18.18 0 0 0 .14.06zM4 12.27a.19.19 0 0 0 .14-.06.2.2 0 0 0 .06-.14.2.2 0 0 0-.05-.14.2.2 0 0 0-.35.14.19.19 0 0 0 .06.14.22.22 0 0 0 .14.06zM3.19 13.08a.19.19 0 0 0 .14-.08.2.2 0 0 0 .06-.14.18.18 0 0 0-.06-.14.19.19 0 0 0-.28 0 .18.18 0 0 0-.06.14.2.2 0 0 0 .06.14.18.18 0 0 0 .14.08zM2.39 13.88a.19.19 0 0 0 .14-.07.18.18 0 0 0 .06-.13.21.21 0 0 0-.07-.15.21.21 0 0 0-.28 0 .2.2 0 0 0-.05.14.21.21 0 0 0 .05.14.2.2 0 0 0 .15.07zM1.58 14.68a.22.22 0 0 0 .14-.05.23.23 0 0 0 .07-.15.21.21 0 0 0-.35-.14.19.19 0 0 0 0 .28.21.21 0 0 0 .14.06zM.78 15.49a.21.21 0 0 0 .15-.06.21.21 0 0 0 .07-.14.22.22 0 0 0-.05-.14.22.22 0 0 0-.29 0 .2.2 0 0 0-.06.14.19.19 0 0 0 .06.14.19.19 0 0 0 .12.06zM0 16.29a.21.21 0 0 0 .14-.05.2.2 0 0 0 .03-.14.18.18 0 0 0-.06-.1.2.2 0 0 0-.29 0 .2.2 0 0 0-.05.14.2.2 0 0 0 .06.14.2.2 0 0 0 .17.01zM11.25 1a.19.19 0 0 0 .14-.05.22.22 0 0 0 .06-.14.22.22 0 0 0-.06-.14.21.21 0 0 0-.29 0 .2.2 0 0 0-.1.14.19.19 0 0 0 .06.14.18.18 0 0 0 .19.05zM10.44 1.81a.2.2 0 0 0 .2-.2.18.18 0 0 0-.06-.14.21.21 0 0 0-.29 0 .2.2 0 0 0-.05.14.22.22 0 0 0 .05.14.21.21 0 0 0 .15.06zM9.64 2.62a.2.2 0 0 0 .13-.05.2.2 0 0 0 .07-.15.21.21 0 0 0-.06-.14.2.2 0 0 0-.34.14.2.2 0 0 0 .05.14.21.21 0 0 0 .15.06zM8.83 3.42A.21.21 0 0 0 9 3.36a.2.2 0 0 0 0-.14.2.2 0 0 0-.34-.14.19.19 0 0 0-.06.14.18.18 0 0 0 .06.14.19.19 0 0 0 .17.06zM8 4.22a.2.2 0 0 0 .14-.05.2.2 0 0 0 .09-.17.19.19 0 0 0-.06-.14.21.21 0 0 0-.28 0 .21.21 0 0 0-.07.14.18.18 0 0 0 .06.14.18.18 0 0 0 .12.08zM7.22 5a.21.21 0 0 0 .14 0 .19.19 0 0 0 .06-.14.2.2 0 0 0-.35-.14.2.2 0 0 0-.07.11.19.19 0 0 0 .08.17.21.21 0 0 0 .14 0zM6.42 5.84a.2.2 0 0 0 .14-.06.2.2 0 0 0 .06-.14.21.21 0 0 0-.35-.14.2.2 0 0 0-.05.14.22.22 0 0 0 .05.14.21.21 0 0 0 .15.06zM5.61 6.64a.19.19 0 0 0 .15-.06.21.21 0 0 0 .06-.14.21.21 0 0 0-.06-.14.22.22 0 0 0-.29 0 .21.21 0 0 0-.06.14.21.21 0 0 0 .06.14.19.19 0 0 0 .14.06zM4.81 7.44a.22.22 0 0 0 .14-.05.23.23 0 0 0 .05-.15.2.2 0 0 0-.05-.14.19.19 0 0 0-.28 0 .18.18 0 0 0-.06.13.24.24 0 0 0 .06.15.22.22 0 0 0 .14.06zM4 8.24a.18.18 0 0 0 .14-.05.2.2 0 0 0 0-.29.21.21 0 0 0-.29 0 .2.2 0 0 0-.05.1.2.2 0 0 0 .05.14.19.19 0 0 0 .15.1zM3.2 9.05A.22.22 0 0 0 3.34 9a.2.2 0 0 0 0-.29.21.21 0 0 0-.29 0 .2.2 0 0 0-.05.14.21.21 0 0 0 .06.15.21.21 0 0 0 .14.05zM2.4 9.86a.19.19 0 0 0 .14-.06.19.19 0 0 0 .06-.14.21.21 0 0 0-.06-.14.21.21 0 0 0-.29 0 .21.21 0 0 0-.05.14.22.22 0 0 0 .05.14.21.21 0 0 0 .15.06zM1.59 10.66a.21.21 0 0 0 .14-.05.22.22 0 0 0 .06-.15.2.2 0 0 0-.05-.14.2.2 0 0 0-.35.14.19.19 0 0 0 .06.14.21.21 0 0 0 .14.06zM.78 11.46a.22.22 0 0 0 .14-.05.22.22 0 0 0 .08-.15.23.23 0 0 0-.05-.14.21.21 0 0 0-.29 0 .23.23 0 0 0-.06.15.2.2 0 0 0 .06.14.2.2 0 0 0 .12.05zM0 12.27a.2.2 0 0 0 .14-.05.2.2 0 0 0 .06-.14.21.21 0 0 0-.06-.15.21.21 0 0 0-.28 0 .22.22 0 0 0-.06.15.18.18 0 0 0 .06.14.2.2 0 0 0 .14.05zM7.23 1a.19.19 0 0 0 .14-.05.2.2 0 0 0 .06-.14.18.18 0 0 0-.06-.14.2.2 0 0 0-.29 0A.19.19 0 0 0 7 .81a.19.19 0 0 0 .06.14.21.21 0 0 0 .17.05zM6.42 1.81a.2.2 0 0 0 .14-.06.21.21 0 0 0 .06-.14.18.18 0 0 0-.06-.14.21.21 0 0 0-.29 0 .2.2 0 0 0-.05.14.23.23 0 0 0 .05.14.22.22 0 0 0 .15.06zM5.62 2.62a.19.19 0 0 0 .14-.06.18.18 0 0 0 .06-.14.2.2 0 0 0-.35-.14.21.21 0 0 0-.06.14.21.21 0 0 0 .21.2zM4.81 3.42A.21.21 0 0 0 5 3.37a.22.22 0 0 0 0-.15.22.22 0 0 0 0-.14.21.21 0 0 0-.29 0 .19.19 0 0 0-.06.14.18.18 0 0 0 .06.14.2.2 0 0 0 .1.06zM4 4.22a.2.2 0 0 0 .14-.05.2.2 0 0 0 .07-.17.2.2 0 0 0-.06-.14.21.21 0 0 0-.29 0 .2.2 0 0 0-.05.14.2.2 0 0 0 .19.22zM3.21 5a.21.21 0 0 0 .14 0 .2.2 0 0 0 .06-.14.21.21 0 0 0-.05-.14.21.21 0 0 0-.29 0 .22.22 0 0 0-.07.11.2.2 0 0 0 .07.17.21.21 0 0 0 .14 0zM2.4 5.84a.24.24 0 0 0 .14-.05.24.24 0 0 0 .06-.16.18.18 0 0 0-.06-.14.21.21 0 0 0-.29 0 .2.2 0 0 0-.05.14.23.23 0 0 0 .05.14.22.22 0 0 0 .15.07zM1.59 6.64a.2.2 0 0 0 .21-.2.21.21 0 0 0-.06-.14.21.21 0 0 0-.29 0 .23.23 0 0 0-.06.14.2.2 0 0 0 .06.14.2.2 0 0 0 .14.06zM.79 7.44a.19.19 0 0 0 .21-.2.2.2 0 0 0-.07-.14.21.21 0 0 0-.28 0 .2.2 0 0 0-.06.14.18.18 0 0 0 .06.14.19.19 0 0 0 .14.06zM0 8.24a.21.21 0 0 0 .13-.05A.2.2 0 0 0 .19 8a.21.21 0 0 0-.06-.09.21.21 0 0 0-.29 0A.21.21 0 0 0-.21 8a.2.2 0 0 0 .05.13.22.22 0 0 0 .16.11zM3.21 1a.2.2 0 0 0 .14-.05.19.19 0 0 0 .06-.14.22.22 0 0 0-.05-.14.2.2 0 0 0-.29 0A.22.22 0 0 0 3 .81a.2.2 0 0 0 .06.14.21.21 0 0 0 .15.05zM2.41 1.81a.19.19 0 0 0 .14-.06.19.19 0 0 0 .06-.14.19.19 0 0 0-.06-.14.21.21 0 0 0-.29 0 .21.21 0 0 0-.05.14.21.21 0 0 0 .05.14.21.21 0 0 0 .15.06zM1.61 2.62a.2.2 0 0 0 .14-.06.21.21 0 0 0 .06-.14.21.21 0 0 0-.06-.14.22.22 0 0 0-.29 0 .21.21 0 0 0 0 .29.18.18 0 0 0 .15.05zM.8 3.42a.19.19 0 0 0 .14-.06.2.2 0 0 0 .06-.14.21.21 0 0 0-.06-.14.21.21 0 0 0-.29 0 .2.2 0 0 0-.06.14.21.21 0 0 0 .06.14.19.19 0 0 0 .15.06zM0 4.22a.21.21 0 0 0 .13-.05A.22.22 0 0 0 .19 4a.2.2 0 0 0-.06-.12.21.21 0 0 0-.29 0A.2.2 0 0 0-.21 4a.19.19 0 0 0 .06.14.2.2 0 0 0 .15.08zM44.14 36.41a.19.19 0 0 0 .15-.06.21.21 0 0 0 .06-.14.21.21 0 0 0-.06-.14.2.2 0 0 0-.35.14.18.18 0 0 0 .07.14.18.18 0 0 0 .13.06zM40.13 36.41a.21.21 0 0 0 .15-.06.22.22 0 0 0 .06-.14.22.22 0 0 0-.07-.15.21.21 0 0 0-.28 0 .22.22 0 0 0-.06.14.22.22 0 0 0 .06.14.21.21 0 0 0 .14.07zM36.11 36.41a.22.22 0 0 0 .15-.06.21.21 0 0 0 .05-.14.2.2 0 0 0-.06-.15.21.21 0 0 0-.28 0 .21.21 0 0 0-.06.14.19.19 0 0 0 .06.14.2.2 0 0 0 .14.07zM32.09 36.41a.2.2 0 0 0 .15-.07.18.18 0 0 0 .05-.13.2.2 0 0 0-.06-.15.21.21 0 0 0-.28 0 .21.21 0 0 0-.06.14.22.22 0 0 0 .06.14.21.21 0 0 0 .14.07zM28.08 36.41a.2.2 0 0 0 .15-.07.18.18 0 0 0 .05-.13.2.2 0 0 0-.06-.15.21.21 0 0 0-.28 0 .2.2 0 0 0-.06.14.18.18 0 0 0 .07.14.17.17 0 0 0 .13.07zM24.06 36.41a.21.21 0 0 0 .15-.06.21.21 0 0 0 .05-.14.18.18 0 0 0-.06-.15.21.21 0 0 0-.28 0 .2.2 0 0 0-.06.14.21.21 0 0 0 .2.21zM20 36.41a.19.19 0 0 0 .15-.06.2.2 0 0 0 .05-.14.22.22 0 0 0-.05-.15.21.21 0 0 0-.35.15.19.19 0 0 0 .06.14.22.22 0 0 0 .14.06zM16 36.41a.2.2 0 0 0 .14-.35.21.21 0 0 0-.28 0 .21.21 0 0 0-.06.15.2.2 0 0 0 .06.14.2.2 0 0 0 .14.06zM12 36.41a.2.2 0 0 0 .15-.06.24.24 0 0 0 .06-.14.22.22 0 0 0-.06-.14.2.2 0 0 0-.29 0 .21.21 0 0 0-.06.14.2.2 0 0 0 .06.14.19.19 0 0 0 .14.06zM8 36.41a.23.23 0 0 0 .15-.06.22.22 0 0 0 .06-.14.24.24 0 0 0-.06-.15.22.22 0 0 0-.29 0 .24.24 0 0 0-.06.15.22.22 0 0 0 .06.14.21.21 0 0 0 .14.06zM4 36.41a.19.19 0 0 0 .14-.06.2.2 0 0 0 .06-.14.21.21 0 0 0-.05-.14.2.2 0 0 0-.29 0 .21.21 0 0 0-.06.14.21.21 0 0 0 .06.14.2.2 0 0 0 .14.06z"/><path class="c" d="M48.09 36.41a.19.19 0 0 0 .15-.07.18.18 0 0 0 .05-.13.18.18 0 0 0-.06-.15.21.21 0 0 0-.28 0 .22.22 0 0 0-.06.14.22.22 0 0 0 .06.14.19.19 0 0 0 .14.07zM48.08 32.39a.2.2 0 0 0 .14-.06.2.2 0 1 0-.29-.33.21.21 0 0 0-.05.14.23.23 0 0 0 .05.14.22.22 0 0 0 .15.11zM48.08 28.36a.19.19 0 0 0 .14-.07.16.16 0 0 0 .06-.13.2.2 0 0 0-.35-.16.2.2 0 0 0-.05.14.2.2 0 0 0 .06.14.18.18 0 0 0 .14.08zM48.09 24.34a.21.21 0 0 0 .14-.05.21.21 0 0 0 .06-.14.21.21 0 0 0-.05-.15.21.21 0 0 0-.29 0 .21.21 0 0 0-.06.15.2.2 0 0 0 .06.14.21.21 0 0 0 .14.05zM48.09 20.32a.22.22 0 0 0 .14-.06.19.19 0 0 0 .06-.15.19.19 0 0 0-.05-.11.2.2 0 0 0-.34.14.2.2 0 0 0 .05.14.2.2 0 0 0 .14.04zM48.1 16.29a.21.21 0 0 0 .14-.05.2.2 0 0 0 .06-.14.18.18 0 0 0-.06-.1.2.2 0 1 0-.14.29zM48.11 12.27a.2.2 0 0 0 .14-.05.2.2 0 0 0 .06-.14.21.21 0 0 0-.06-.15.21.21 0 0 0-.28 0 .22.22 0 0 0-.06.15.18.18 0 0 0 .06.14.2.2 0 0 0 .14.05zM48.12 8.24a.21.21 0 0 0 .14-.05.2.2 0 0 0 .06-.19.2.2 0 1 0-.4 0 .2.2 0 0 0 .05.13.22.22 0 0 0 .15.11zM48.12 4.22a.22.22 0 0 0 .14-.05.22.22 0 0 0 .06-.17.2.2 0 0 0-.06-.14.21.21 0 0 0-.29 0 .2.2 0 0 0-.05.13.19.19 0 0 0 .06.14.2.2 0 0 0 .14.09zM0 .2A.2.2 0 0 0 .11.14.18.18 0 0 0 .17 0a.19.19 0 0 0-.06-.15.21.21 0 0 0-.28 0A.21.21 0 0 0-.23 0a.22.22 0 0 0 .06.14A.2.2 0 0 0 0 .2zM44.14.2a.2.2 0 0 0 .15-.06.22.22 0 0 0 .06-.14.21.21 0 0 0-.06-.14.2.2 0 0 0-.29 0 .2.2 0 0 0-.06.14.19.19 0 0 0 .06.14.19.19 0 0 0 .14.06zM40.13.2a.21.21 0 0 0 .14-.06.22.22 0 0 0 .06-.14.22.22 0 0 0-.07-.15.21.21 0 0 0-.28 0 .21.21 0 0 0-.06.14.22.22 0 0 0 .08.15.22.22 0 0 0 .13.06zM36.11.2a.22.22 0 0 0 .15-.06.22.22 0 0 0 .05-.14.2.2 0 0 0-.06-.15.21.21 0 0 0-.28 0 .21.21 0 0 0-.06.14.19.19 0 0 0 .09.15.2.2 0 0 0 .11.06zM32.09.2a.21.21 0 0 0 .15-.06.18.18 0 0 0 .05-.14.2.2 0 0 0-.06-.15.21.21 0 0 0-.28 0 .21.21 0 0 0-.06.14.22.22 0 0 0 .11.15.22.22 0 0 0 .09.06zM28.08.2a.21.21 0 0 0 .15-.06.18.18 0 0 0 .05-.14.2.2 0 0 0-.06-.15.21.21 0 0 0-.28 0 .2.2 0 0 0-.06.14.18.18 0 0 0 .07.14.18.18 0 0 0 .13.07zM24.06.2a.21.21 0 0 0 .15-.06.22.22 0 0 0 .05-.14.19.19 0 0 0-.06-.15.21.21 0 0 0-.28 0 .2.2 0 0 0-.06.14.22.22 0 0 0 .06.14.22.22 0 0 0 .14.07zM20 .2a.2.2 0 0 0 .19-.06.2.2 0 0 0 .06-.14.22.22 0 0 0-.05-.15.22.22 0 0 0-.29 0 .21.21 0 0 0-.06.14.19.19 0 0 0 .06.14.22.22 0 0 0 .09.07zM16 .2a.21.21 0 0 0 .18-.06.21.21 0 0 0 .06-.14.2.2 0 0 0-.07-.15.22.22 0 0 0-.28 0 .21.21 0 0 0-.06.15.2.2 0 0 0 .06.14.21.21 0 0 0 .11.06zM12 .2a.21.21 0 0 0 .16-.06.24.24 0 0 0 .06-.14.21.21 0 0 0-.06-.14.2.2 0 0 0-.29 0 .21.21 0 0 0-.06.14.2.2 0 0 0 .06.14.19.19 0 0 0 .13.06zM8 .2a.24.24 0 0 0 .15-.06.22.22 0 0 0 .06-.14.25.25 0 0 0-.06-.15.23.23 0 0 0-.29 0A.24.24 0 0 0 7.8 0a.22.22 0 0 0 .06.14A.22.22 0 0 0 8 .2zM4 .2a.19.19 0 0 0 .12-.06.2.2 0 0 0 .06-.14.21.21 0 0 0-.05-.14.2.2 0 0 0-.29 0 .21.21 0 0 0-.06.14.21.21 0 0 0 .06.14A.21.21 0 0 0 4 .2zM48.09.2a.2.2 0 0 0 .15-.06.18.18 0 0 0 .06-.14.19.19 0 0 0-.06-.15.21.21 0 0 0-.28 0 .21.21 0 0 0-.06.14.22.22 0 0 0 .1.15.19.19 0 0 0 .09.06z"/></pattern></defs><title>han_wrobot</title><path class="d" d="M162.69 168.27v-51.93a5.09 5.09 0 0 0-.12-1.08 65.64 65.64 0 0 0-131 0 5.09 5.09 0 0 0-.12 1.08v53.6"/><circle class="e" cx="96.62" cy="21.37" r="21.37"/><path class="f" d="M97.04 47.58v-12.8"/><circle class="g" cx="96.62" cy="21.37" r="9.8"/><path class="g" d="M13.18 246.03l.84-44.25"/><path class="h" d="M12.45 263.27a9.8 9.8 0 1 1 10-9.61c-.01 7.11-4.08 9.69-10 9.61z"/><path class="g" d="M28.49 145.44L14.3 199.76M215.33 230.13l-32.64-29.89"/><circle class="h" cx="256.39" cy="400.58" r="9.8" transform="rotate(-47.52 50.504 357.82)"/><path class="g" d="M165.74 145.92l15.84 53.86"/><path class="i" d="M96.2 71.77c-8.78-.08-11.89.21-19.88 2.88a86.59 86.59 0 0 0-8.38 3.11 34.94 34.94 0 0 0-7.25 4.51c-5.87 5-12 13-12 20.13v12.37a18.55 18.55 0 0 0 18.5 18.5h5.87s9.78.5 22.92.06c15.71-.06 25.47-.06 25.47-.06h5.75a18.55 18.55 0 0 0 18.49-18.5V102.4c-.09-7.36-5-15.1-10.5-19.87-1.42-1.24-5.76-3.26-8.12-4.37a66.07 66.07 0 0 0-8.62-3.37c-8.13-2.73-12.31-2.92-22.25-3.02z"/><circle class="j" cx="77.84" cy="106.52" r="6.83"/><circle class="j" cx="129.03" cy="106.52" r="6.83"/><path class="k" d="M145.86 218.94H47.19a6.52 6.52 0 0 0-6.5 6.5v41c0 3.57 9.92 11.5 13.5 11.5h85.67c3.57 0 12.5-7.93 12.5-11.5v-41a6.52 6.52 0 0 0-6.5-6.5z"/><path class="l" d="M151.04 220.27c6.6 0 6 16.67 6-22l-2-61.5c-11 .5-15 13-34.5 15l-21.35 38.12h-4.15l-21.35-38.12c-19.5-2-23.5-14.5-34.5-15l-2 61.5c0 38.67-1.6 22 5 22 0 0 40.76 6 54.5 6s54.35-6 54.35-6z"/><path class="m" d="M104.02 240.6l48.67-15.66s1.47-9.68-1-8.67c-38 15.67-50.67 14-50.67 14zM88.12 240.6l-48.66-15.66s-1.47-9.68 1-8.67c38 15.67 50.67 14 50.67 14z"/><path class="m" d="M85.69 240.1a107.34 107.34 0 0 1-44.33 10.83c0 .71-4 .4-4 1.08 0 27 .67 37.92.67 37.92s9.57 1.41 9.67 0c1.67-25 13.67-35.67 39.33-43s5-7 5-7l-1-2.67z"/><path class="n" d="M89.69 229.27h14l3.67 10.83-3.67 5.17h-14l-4-5.17 4-10.83"/><path class="o" d="M37.36 257.27h6v32.67h-6z"/><path d="M27.19 144.27s4.44-8.57 12.5-7c11.17 2.17 10.5 28.5 36.5 30.5-3.5 24-7.5 58.5-10.5 63-8 8-30.74 3.83-35.4 1.17s-6.1-11.67-3.1-87.67zM166.62 144.27s-4.44-8.57-12.5-7c-11.17 2.17-10.5 28.5-36.5 30.5 3.5 24 7.5 58.5 10.5 63 8 8 30.74 3.83 35.4 1.17s6.1-11.67 3.1-87.67z"/><path class="p" d="M97.52 77.6c14.25-.07 28.12-7.47 34.17-5.33 6.71 2.37 23.67 6.33 20.67 49.33.9-1.2 5.73-.47 6.49-1.74.59-8.1 3.72-15.4 5.51-12.93 5.32 7.36 10.75-11.36 10.77-13.29.06-5.88 1.52-12.17 1.31-13.13-1.11 1.81-7 5.5-10 5 0 0 2.28-8.6 1.75-13.92-.31-3.1-1.94-6.88-4.65-10.66a53.53 53.53 0 0 0-8.84-9.2c-1.81-1.45 7.56.35 10.24 1.65-9-12.75-16.68-13.74-22.8-12.52-4.16.83 5.3-3.35 13.18-2.85-18.87-11.5-26 2.4-29.11.72-2.4-1.3-7.94-.92-9.76-1.72a17.79 17.79 0 0 0-18 2s-20-5.18-25.75-4.5c-21 2.5-23 15.2-30.33 21.75-10.33 9.17-19 .83-25.83-1 1.5 3.5 7.63 11.56 7.5 12.83-.39 3.87-6 4.67-12.5 2 2.17 4.67 8 13.17 8 13.17s-2.33 9.17-7.83 8.17c1.33 3 12 22.19 17.33 14.83 1.39-1.93 6.42 9.5 8 16.46.54 2.45 5.73-2.58 6.54-.55-5.56-41.9 12.44-44.23 17.61-47.4 2.75-1.68 21.58 2.91 36.33 2.83z"/><path class="q" d="M68.52 53.27s-7.33 1.33-9.67 2.67 11.33-.5 13.17.33 11.33 6.17 10.5 9.67-3.5 4.67-2 6.33 3.33 4.33 4.83 3.5-1.17-15.33-2.33-17-9.16-3.83-14.5-5.5z"/><path class="m" d="M74.94 75.02s11.5 0 10.75-2.42c-1.2-3.87 4.67-15.67-19.33-18.67s11-2 14.67 0 10.82 15.83 13 17.33 4 4.33 6 4.67-1-6.33-1.33-9.33 0-12-3.67-15-13-8.33-21-6.67-14.67 2.34-14.67 2.34 14.67-8 23-5.67 18.33 9.33 18.67 11.33 2.33 17 4.67 18.33 5.33 4 8 1.67 5.33-3.67 5.67-6 8.83 5.08 8.83 5.08-24.18 6.26-27.84 6.26-25.42-3.25-25.42-3.25zM57.44 76.27s-7.75 1-11.42 1.33 5.67 1.33 3.67 3-5.67 6.67-8.67 6.67 4 .33 3.33 4 6.84-10.75 13.09-15zM17.69 56.6s8.67 10.33 21.67 14.83c-3.33.33-10.49 1.32-14.5-.5-3.67-1.66-3.5-9.49-7.17-14.33zM12.82 72.65s9.79 8.29 10.13 9.63 4.25 4 5.08 6.67c-8.46-3.55-10.55-8.68-15.21-16.3zM12.19 92.02s9.38 6.88 12.25 8.75c-4.37.5-9.25-3.5-9.25-3.5a41 41 0 0 1-3-5.25z"/><path class="q" d="M49.86 64.44s11.33-2 16.83 2.67-3.67-4.84-6-5.84-9.67 2.17-10.83 3.17zM62.36 46.1s-4.33 2.33-3.33 2.5 21.33-1.83 26.67 2c11 9.5 6.33 21.17 14.5 26.5s-.17-12.67-.17-12.67-2.34-13.49-3.67-14.16-15.67-7-19.83-7-14.17 2.83-14.17 2.83zM103.15 42.86s4.2 5.4 4.5 8.1.45 7.2.45 7.2l5.85-4.95 2.4 6.9s4.5-5.85 6.6-6.6 2.85 7.5 3.9 7.8 1.8-6 3.9-8 1.5 12.15 1.5 12.15 4.24-13.84 9.15-17.25c-6 .15-9.45.3-13.95 3.15-1.05.75-1.5-3.9-1.5-3.9s-5.1 2.7-6.9 4.65-2.25-7.05-2.25-7.05-3.75 4.2-5.1 5-2.25-4.79-8.55-7.2zM133.69 70.77s.17-6.17 10.17-6.33 12.17 14.83 12.17 15.67a.68.68 0 0 0 1.33.17c.17-.67 1.1-12.4-4.83-16.67-4.75-3.42-7.42-2.25-8.08-2.25s-8.92 1.25-11.42 8.42c-.59 1.74.66.99.66.99z"/><path class="m" d="M133.36 69.1s3.67-7.5 11.5-7.67c10-.21 12.17 14.83 12.17 15.67 0 0 1 2.58 1.17 1.92s1.26-14.15-4.67-18.42c-4.75-3.42-7.42-2.23-8.08-2.25-2.25-.08-10.08 2.83-12.58 10-.6 1.75.49.75.49.75zM136.4 74.27c-.24-.17 11.05 1.77 13.74 4.07 1.41 1.21-5.74 1.48-5.74 1.48s4.62 3.7 6 4.54c-2.43 1.69-.56 4.6-.68 5.63-.82-.36-7.4-11.41-13.32-15.72zM155.69 88.27s2.67 9 7.33 7 4.67-12 4.67-12 1.33-12.67.5-14.33-1.67-1.67-1.67-1.67.67 7.5-.17 10.67-5.99 8.66-10.66 10.33zM163.57 105.15a3.4 3.4 0 0 0 3.5-1.75c2.38-2.87 5.46-9.12 8.21-13.79.75 5.25-2.71 18.42-6.83 19s-4.88-3.46-4.88-3.46z"/></svg>