<svg xmlns="http://www.w3.org/2000/svg" viewBox="0 0 475.43 273.05"><defs><style>.a,.c,.h{fill:#9c9;}.a,.c{stroke:#663;stroke-width:2px;}.a,.c,.f,.g{stroke-miterlimit:10;}.b{fill:#ffc;}.c,.f{stroke-linecap:round;}.d{fill:#344713;}.e{fill:#af1710;}.f,.g{fill:none;}.f{stroke:#996;stroke-width:1.5px;}.g{stroke:#889171;}</style></defs><title>Jabba_nomouth</title><path class="a" d="M355.16 6.51s-4.9-11.9-21.7-.7-21.7 17.5-22.4 21.7-22.53 12.49-29.2 31.16c-3.56 10-9.81 11.13-11.33 17.67-2.33 10 10.44 10.64 3.33 19-5.67 6.67-11 9.48-12 13.67-1.45 6.14-1.33 22.33-12.33 28.33s-18.17 2.33-38.67 10.33-111 60-118.5 62-38.38 6.23-47.5 6.5c-51.5 1.5-43.28 28-43.5 31-2.5 33.5 66.5 24 92 22.5 7.14-.42 20.5-11.5 23-17 1.13 3.38 2 5.5 2 5.5s62.5 3 68.5 2.5 168.5-.5 178-1 87-4.5 89.5-7c12.75-1.25 15-7.25 17-13.25 3.81-11.42 4-59.25 1-64.75s-4.5-26.5-3-31-1-31.5-1-31.5 2.5-6.66.5-12c-3-8-6.33-8.67-8.33-10.17s12.23-6.5 10.83-13.5-13.77-19.63-22.17-16.83c-8.05-9.45-28.93-26.56-32.43-27.26s-6.3-11.9-14.7-16.1-14.7-7-16.8-7-7.7-13.3-30.1-2.8z"/><path class="b" d="M371.53 112c-115.5 10.5-84.17 67.67-86.67 76.92 1 36.42-70.7 22.09-84.33 27.75-35.33 14.67-93.33 14.67-93.33 14.67-36 2.67-82.31 11.19-86 13.33-12.67 7.33 48.42 6 51.33 5.33 14.38-3.23 40.83-6.46 46.83 7.42 13.63.13 33.69.72 37.17 1.25 8.67 1.33 63.67.83 94.67.67 20.18-.11 67.33.17 106-.5 82.66-2.17 103.83-6.67 105.16-14.67s7.5-40.83-1.83-52.17c4.67-48-18.17-69.83-35.17-70.83-5.5-.32-45.81-9.9-53.83-9.17z"/><path class="c" d="M20.53 248.67s22.08 4.5 43.58 1.5c44-4 61-30.25 63.25-29.5 4.94 2.06-7.75 26.5-8.75 29.5s-4.25 5.5-4.25 5.5"/><path class="b" d="M359.19 20s-16.21-16.75-31.33-6.67-13.37 15.89-14 19.67-18.33 7.53-24.33 24.33c-3.21 9-.63 13.79-2 19.67-2.1 9-4 24.67 12 24.33 8-.17 8.27-3.75 29.33-5 7.32-.43 33.24 8 44.33 6 37-6.67 30.29-13.81 33.67-17.67 2.33-2.67 22 6.67 28.67 5 2.18-.55 9.93-7.7 8.67-14s.33-14.33-3.67-13.33c-3.67-19.66-26.15-24.16-27.67-26.99-2.33-4.33-6.69-11.22-14.25-15s-13.23-6.3-15.12-6.3-4.14-3.49-24.3 5.96z"/><path class="d" d="M370.33 43.14a6 6 0 0 1 6.07-.47c2.1 1.17 10.73 9.57 14.93 10.73 0 0-12.13-3.27-14.23-4.2s-5.37-.7-6.07-1.63-.7-4.43-.7-4.43zM352.13 48.74c1.36-.34 6.77-2.57 7.93-.23s0 5-1.4 5.13l-6.77.7c-1.4 1.17-7.93 7-9.57 7.93s-10.73 6.07-11 5.6 7.45-6.09 9.1-7c4.71-2.56 9.84-11.66 11.71-12.13z"/><path class="e" d="M376.39 37.07s7.23-8.17 14.23-8.4 15.63 1.4 16.8 4-8.4 4.9-11.67 4.9-17.26-.96-19.36-.5z"/><path d="M390.63 28.67a10.44 10.44 0 0 0-1.83.25l.4 8.37c2.87.13 5.4.25 6.57.25.28 0 .63 0 1-.06l-1.24-8.69a44.76 44.76 0 0 0-4.9-.12z"/><path class="e" d="M311.29 43.61s11.43-6.77 15.63-7.47 16.33-.47 19.13 1.17 3.5 3.27 2.8 3.5-9.33 3.27-16.33 4c-8.38.8-20.29-.97-21.23-1.2z"/><path d="M332.38 44.77c1.21-.12 2.55-.32 3.81-.55l-1.33-8.43a56.5 56.5 0 0 0-8 .32V45a53.53 53.53 0 0 0 5.52-.23z"/><path class="f" d="M290.86 100s13 10.67 23.33 9.67 60-5.33 67.67-7.33a83.94 83.94 0 0 1 24-3c8 .33 11 2 16.33 0s.33-6.33 10-8.67"/><path class="g" d="M376.16 85.61c2.33 1.87 14-7.6 18-9.27s3 6.94 3 6.94M319.43 31.01s9.8-5.6 15.87-6.07 15.4 2.8 17.27 6.53M370.86 29.21s2.8-6.53 6.07-9.33 4.2-4.2 9.8-4.2 15.4 7.47 15.4 7.47M350.49 21.21s-11.67-7.47-17.27-6.07M393.63 48.01s8.4 2.33 13.07-2.8l4.67-5.13M402.56 51.07s11.2-1.4 13.53-3.27a8.91 8.91 0 0 0 2.77-5.13M309.86 48.74s12.13 1.4 16.33 1.87 14-1.87 15.87-3.73M335.19 84.34s8 2 12.67 3.67 19.67 1.66 19.67 1.66"/><path class="f" d="M288.36 117.17s8.83 8 20.5 7 36.17-14.83 73-12.5c9.41.6 41.67 7.33 44 8.33s9.33 4.33 9.33 4.33M438.19 106.34c.33-1 4.67-8 10.33-7s12.33 2.33 14 3a15.52 15.52 0 0 1 3.83 2.83"/><path class="h" d="M424.53 161.67s0 28.33 4.33 31.33 13 12.67 13.33 24.33-3 20.67 3 20.33 13-4.33 13.33-12-.33-18-3.67-23.33-7.32-7.66-10.66-7.66 5.33 4 5-4.67.33-18-4.67-23-7-6.33-13.33-10.33-6.66 5-6.66 5z"/><path class="a" d="M261.19 127c1 1.33 1.88 5.82 6 6s3.82 3.32 6.33-.46 3-6.28 5.22-4.71c5.78 4.17 6.67 17.58 8.7 17 2.33-.67 1.45-10.78 1.42-11.83s2.75 1.1 3.33 2.67 2.58 7.74 3.94 7.4c1.56-.4 2.06-10.15 2-11.56-.06-1.83 2.61 9 5 8.5 2-.45.83-6.55.67-8.33s-4.83-5.92-5.92-6.75-7.27-5-8.83-4.42 7.58-15.47-7.2-20.94c-23.99-8.9-22.27 25.28-20.66 27.43zM468.53 150c-2.67.33-12 1.33-16 .33s-2-3.33-3.33-7.67-1-6.33-3.67-6-10.33 15-12.33 14.33 2-13.67 2.33-14.67-3.33 1.33-4.33 2.67-5 8.67-6.67 7.33-1-10 1.33-11.67-6 8-6 8-3.33-4.67-2.67-6.33 8-6.67 9-7.67 9.33-4 10.67-3-2-15.59 13.67-17c22.33-1.98 20.66 41.02 18 41.35z"/><path class="f" d="M265.86 142.34s-2 16 .67 21.33 8.67 8.67 8.67 8.67M239.52 144l20.67 28M212.53 148s26.33 22.67 31.66 29.34 8.34 23.33 8.34 23.33M185.53 161s28 12.67 32 24.67c.94 2.83 5.33 22.67 5.33 22.67M166.19 174.34s18 9.33 23.33 16 4 10 4 12 10 9.33 10 9.33M149.86 185.33L173.19 202l4 18M129.86 193.67c9.39 6 14 6.63 19.33 13.33 2.09 2.61 8.67 16.67 8.67 16.67M119.86 199.33l9.33 9.34L147.86 224M104.19 209.67l12.67 10.66M85.53 214.34s12 .67 20 14.67M67.19 215.67s19.67 6.67 20.33 15.67M52.53 217s16.33 10.67 16.33 16M40.19 219.34s10 5.33 10.67 12.67M52.52 269.95s4.23-10.52 0-16.56M83.53 268.34s-1-13.95-6.67-18.67M104.86 260.34s5.11-19.24-8-17M31.53 219s14 7.33 13.33 18M16.19 224s18.33 5.33 17 14.67M5.86 244s7 2.67 12.33 1.33M10.86 257.67s6 1 7.33-4.33M115.48 246.3s1.28-5.95-4-7.53M21.53 267.67s12.33-6.67 11-15.67M94.86 267s1.28-18.71-7.67-20.33M5.28 232.33s12.56 1.63 16.24 8M37.19 268.67s7.75-7.23 4.42-15.7M71.19 268.34s2.07-11.91-5.81-16.46"/></svg>