<svg xmlns="http://www.w3.org/2000/svg" viewBox="0 0 587.69 142.22"><defs><style>.a{fill:#aaa797;}.b,.c,.d{fill:none;stroke:#595851;stroke-miterlimit:10;}.b,.c{stroke-linecap:square;}.b{stroke-width:9px;}.c{stroke-width:10px;}.d{stroke-linecap:round;stroke-width:5px;}.e{fill:#ceccc2;}</style></defs><title>jabba_platform</title><path class="a" d="M0 28.33s.5 101 6 106.5 42 8.5 68.5 7S582 124.66 582 124.66s5-86.67 2.33-88.67S497 3.33 493 3.33s-493 25-493 25z"/><path class="b" d="M73.33 136l1.34-74"/><path class="c" d="M213 59.33l2.67 72.67"/><path class="b" d="M398.33 125.33L395 52M527 122l-2.67-80"/><path class="d" d="M3 114c0-4.67 2-65.33 2-65.33L31 44"/><path class="e" d="M0 28.33L4.33 50l32 8s550-16 551.33-20.67C589.21 31.89 494.99 0 494.99 0z"/></svg>