<svg xmlns="http://www.w3.org/2000/svg" viewBox="0 0 223.06 269.02"><defs><style>.a{fill:#513a17;}.b{fill:#fffbd7;stroke:#231f20;stroke-linecap:round;stroke-linejoin:round;stroke-width:2px;}.c{fill:#302f29;}</style></defs><title>Leia</title><path class="a" d="M105.68.02c26.67-1 56.67 35.67 56.67 35.67s2.33-17.33 12.33-17.33c10.41 0 13.33 3.92 12.69 11 15.14-8.13 16.2 16.28 14 31.29-4 27-19 44.33-23.67 31.67-1.9 8.53-6.33 8.33-10 7.67-7.24-1.32-8.67-13-8.67-13s-2.67-24.33-.67-31.67c-6.67 4-42.33-8.33-57.5-23.33h1.38c-15.17 15-50.83 27.33-57.5 23.33 1.99 7.37-.68 31.7-.68 31.7s-1.42 11.68-8.67 13c-3.67.67-8.1.87-10-7.67-4.33 12.17-19.66-4.66-23.66-31.66-2.22-15-1.17-39.42 14-31.29-.64-7.13 2.28-11 12.69-11 10 0 12.33 17.33 12.33 17.33S70.75-.94 97.42.06h8.28z"/><path class="b" d="M171.06 256.02s-42.5 12-70 12-70.5-12-70.5-12c-5.87 0-8-61 3.33-96-.22-4.35-.33-8.71-.33-13v-28.5c0-6.6 29.4 2 36 2h62.5c6.6 0 37-7.6 37-1v27.5c0 1.42-.44 6.86-1.19 13 10.19 27 8.37 96 3.19 96z"/><path class="c" d="M33.31 152.27s58.07 5.38 65.38 5.38 70.37-5.13 70.37-5.13l-1 6.5-69.5 10-64.5-11z"/><path class="b" d="M38.34 115.66s-15.45-6-18.47 11.21c-1.37 7.84-6.34 44.57-8.7 65.29C.92 197.82.06 203.69 1.58 206.02c5.42 8.36 22.71 6.95 28.19 4.22 10.1-5-2.33-15.41-2.33-15.41s4-44.79 6.49-60M164 116.66s15.45-6 18.47 11.21c.86 4.89 2.51 21.28 7.69 37.07 3.12 9.51 13.56 10.74 17.06 12.15 4.5-1.41 15.09 5.87 14.83 8.59-.94 9.92-9.22 16.21-15.33 16.33-11.28.22-12.69-15.07-12.69-15.07s-16.87-1.56-20.6-14.18-3.78-29.34-5-36.93"/></svg>