<svg xmlns="http://www.w3.org/2000/svg" viewBox="0 0 235.91 249.59"><defs><style>.a{fill:#fffbd7;stroke:#666;stroke-width:2px;}.a,.c{stroke-linecap:round;stroke-linejoin:round;}.b{fill:#49260e;}.c,.d{fill:#ffe708;stroke:#a89856;stroke-width:3px;}.d{stroke-miterlimit:10;}</style></defs><title>luke</title><path class="a" d="M162.65 248.56H50.15c-6.6 0-16-43.33-16-82v-61.5c0-6.6 12.4 5 19 5l62.5 30 41-28c6.6 0 22-12.6 22-6v63.5c0 6.6-9.4 79-16 79z"/><path class="a" d="M48.73 94.46c-1.26-3-8.69-2.69-8.69-2.69s-15.59 3.52-9 14.17c10.21 16.62 80.72 36.29 80.72 36.29l14-9.7-78-30.57s1.69-5.76.97-7.5zM174.98 106.19s4.17-5.13 12.27 7.86c7.5 8 48.44 52.5 47.66 62.44s-16.66 16.93-22.77 17.15c-11.27.4-10.77-8.87-10.77-8.87l-22.93-45.26z"/><path class="a" d="M163.59 92.88c1.21-3.07 6.6-2.82 6.6-2.82s17.69 3.19 11.35 14c-6.15 10.45-73.4 31-113.68 76.31-7.4 8.31-5.88 67.78-5.88 67.78l-14.08.41s-5.81-60.23 4.4-72.36c36.35-43.14 112.41-75.85 112.41-75.85s-1.8-5.73-1.12-7.47z"/><path class="b" d="M33.9 174.81s66.07 1.38 73.38 1.38 71.37-.13 71.37-.13l-1 10.5-70.5 1-72.5-2z"/><path class="a" d="M32.41 107.62s-10.76 4.88-14.08 15.33-21.42 68.15-16.48 76.8 22.29 8.21 27.91 5.8c10.37-4.45 5.54-13.52 5.54-13.52s.83-47.59.83-63.45c-.01-18.52-3.72-20.96-3.72-20.96z"/><path class="c" d="M47.65 23.89s-11.9 4.53-11.67 11.33c.47 13.63-.87 34.61-.87 35.67 0 1.6-5.29 3.49-10.8 7 1.6 2.8 10 1.8 10 1.8s-9.8 8-8.6 10.4 21.8 0 21.8 0l-.53-29.53s3.17-17.67 14.17-30-13.5-6.67-13.5-6.67zM166.42 22.89s11.9 4.53 11.67 11.33c-.47 13.63.87 33.61.87 34.67 0 1.6 5.68 5.66 10.8 9-1.6 2.8-10 .8-10 .8s10.8 8 9.6 10.4-22.8 0-22.8 0l.53-29.53s-3.17-17.67-14.17-30 13.5-6.67 13.5-6.67z"/><path class="d" d="M107.54 31.06s8.89 7.68 19.22 7.68c-3.5-7 5.67-7.34 6.17-6.67 6.22 8.3 9.33 12 20.5 15.33-2-6.17 2.83-12.92 5-9.92 5.32 7.36 30 15.82 28.67 14.46-3.62-3.62-6-13.35-6-13.35s-1.38-3.11-2.33-12.68c-1-10-14.33-23.13-35-24.22-15.34-.81-36.4 1.37-36.4 1.37h.34S86.65.87 71.31 1.68c-20.66 1.09-34 14.7-35 24.7-1 9.57-2.33 12.42-2.33 12.42s-2.38 9.59-6 13.21c-1.33 1.37 23.35-7.2 28.67-14.56 2.17-3 7 4.64 5 10.8 11.17-3.33 14.28-8.22 20.5-16.52.5-.67 9.67 0 6.17 7 10.33 0 19.22-7.69 19.22-7.69z"/></svg>