<svg xmlns="http://www.w3.org/2000/svg" viewBox="0 0 253.65 353.62"><defs><style>.a{fill:#754c24;}.b{fill:#ffc;}.b,.f,.p{stroke:#754c24;}.b,.c,.f,.g,.h,.i,.l,.m,.p{stroke-miterlimit:10;}.c,.g,.h,.i,.l,.m,.p{fill:none;}.c{stroke:#000;}.d{fill:#333;}.e{fill:#e0bb70;}.f{fill:#a67c52;}.f,.i,.m,.p{stroke-width:2px;}.g,.h,.i{stroke:#42210b;}.g{stroke-width:1.5px;}.j{fill:#ffe2c5;}.k,.r{fill:#fff;}.l,.m{stroke:#333;stroke-linecap:round;}.n{fill:#ccc;}.o{fill:#36c;}.q{fill:#009eff;opacity:0.76;}.r{opacity:0.6;}.s{fill:#999;}.t{fill:#666;}</style></defs><title>Obi_wan</title><path class="a" d="M164.6 214.05l-.25 29H133.6l-3.25-28.19 34.25-.81"/><path class="b" d="M132.85 227.8s13.25 12.75 15 13.75 16.5-13.25 16.5-13.25l-.75 116.75-29.75.25z"/><path class="c" d="M148.35 241.55l.5 103.5"/><path class="d" d="M129.73 278.48h34.5v7.49h-34.5z"/><path class="e" d="M140.64 276.11h14.58v11.34h-14.58z"/><path class="f" d="M219.73 229.18s16.13 12.13 15.38 29.13c-.46 10.5-8.84 21.25-11.83 21.42-6 .33-12.67-4.1-12.67-4.1l13.49 73.42-62.5 3.52-.5-136.52-26.5-.5a39.75 39.75 0 0 0 0 12.25c1 7.5 0 124.25 0 124.25l-55-3 9-75s-3.17 3.33-7.17 3.33-9.64-10.08-10.08-19.08c-.75-15.25 10.63-28.75 10.63-28.75s-9.94 4-18.94-1-9.47-8.5-11-16c-4-3-9-5-9.48-12.5s14.51-18.5 14-30.5-1.5-44-.5-49.5 6-27.5 23-44 33-22 37-23.5 10.54-15.5 28.54-16 26 11 33 14 54.5 22.5 62 58.5-2 39 1 51 11.59 25.67 12 35c.67 15.33-5.67 15.33-9.33 16.67 1 5.67 3 10-3.33 14.33s-18.93 4.72-20.21 3.13z"/><path class="a" d="M107.6 106.8a116.13 116.13 0 0 1 12.75-1.25c4.5 0 13.75 3.5 13.75 3.5s11.5 3.75 15.25 4 13-2.25 15.5-4a23.13 23.13 0 0 1 13.25-3.25c4.75.5 12.25 0 14 1.5s-5.25-5.75-8.75-5.75-7.25-2.25-13-.25-11.25 6.75-19.5 7-19-5.25-24-6.5-15.25 2.5-19.25 5zM232.6 182.05s9 14 9.33 19.33-.1 8.16 1.33 10.33c1.71-1.67 4.33.58 3.67-8.67-.66-11.66-11.66-14.99-14.33-20.99zM68.27 183.38c1-1.34-13.46 11.17-15.79 17.17s-4.08 5.92-3.75 8.25 3.54 3.25 3.54 3.25 1.67-6 3.33-10 9-13.67 12.67-18.67zM211.93 180.38s8 11.67 10.33 14.67 8.67 7.67 10 12.33 2 10.33-2 16-36.67-11-44.33-22 26-21 26-21zM89.44 179.25s-8.66 11.19-11.16 14-9.1 7.21-10.68 11.8-2.59 10.2 1.07 16.09 37.24-8.87 45.53-19.41-24.76-22.48-24.76-22.48z"/><path class="g" d="M90.6 223.55s1 .75 4.25.75 17.75-7.75 21.5-8 8.5 2.25 11.25 5.5M204.1 224.05a90.73 90.73 0 0 1-9.75 1c-3.25 0-14.75-5.75-18.5-6a12.49 12.49 0 0 0-10.25 4.75"/><path class="a" d="M92.85 274.3a6.08 6.08 0 0 0 4.75-.75c2-1.5 13-17 12.75-36.5-1.25-8.25-10-10.25-10-10.25s-8.25 34.25-7.5 47.5zM189.85 240.55c-.22 5 6.25 23.75 13.5 31.25s2.13-19.5 2.13-19.5-5.87-7.12-7.25-24.62c-2 1-7.88 1.37-8.38 12.87zM219.77 273.88c2.65-.3 7-4 8.33-13.67s-6.67-17.5-8.5-17.33-7.33 8.83-6.83 14.67 1.16 17 7 16.33zM84.77 273.88c2.65-.3 7-4 8.33-13.67s-6.67-17.5-8.5-17.33-7.33 8.83-6.83 14.67 1.16 17 7 16.33z"/><path class="h" d="M100.35 226.8l-4 19M198.23 228.18s2.5 19.75 7.13 23.5"/><path class="g" d="M169.85 238.8l.5 105"/><path class="i" d="M127.6 239.05v104"/><path class="d" d="M92.1 352.05s7-12.5 19-12.25 20 12.25 20 12.25h-39zM166.1 352.05s7-12.5 19-12.25 20 12.25 20 12.25h-39z"/><path class="j" d="M222.22 269.89c10.3-.88 10.63-13.09 10.63-13.09s13.19-4.09 11.38-7.25c-2.37-4.12-7.53 2-10.37 2-1 0-2.81-.69-.37-3.25s8.88-10.62 6.75-12.62c-4.21-4-10.87 9.38-10.87 9.38a1.53 1.53 0 0 1-2.19 1.12c-2.29-1.21 4.54-15.16-.44-16.74-4.48-1.43-6.21 11-6.33 13.26-.1 1.8 1 2.94-.8 3.18-2.23.29-2.09-1.59-2.15-2.4-.15-2-3.91-13.34-8.47-12.92-2.84.26 0 8.13.66 10.8.62 2.51 3 6.5 2.06 7.84-1.21 1.45-4.77 1.77-5 .45-2.46-3.12-9.65-2.79-9 1.83 1.33 2.64 6 5.64 6 5.64s4.15.54 5 2.47.81 11.39 13.51 10.3zM96.6 244.34c-.94-2.1-2.6-3-5.28-2.28-2.66-3.06-1.69-1-6.19-1a14.79 14.79 0 0 0-10.94 4.74c.38-.17 3.85-5.07 3.48 2.38 4.36.61 7.18-1.45 10.46 6.5 2.35 5.71-.18 10.12-4.79 12.58 10.21 3.5 11.25-8.59 11.29-16.4a4.83 4.83 0 0 0 1.97-6.52zM213.47 180.55a63 63 0 0 1-8.54-15.83c-3-8.28-5.67-3.17-5.67-14.5s1.35-15.55-.5-24.33c-2.67-12.67-14-10.67-19.67-10.83-7.33-.22-11.5 6.5-30.83 6.5s-31-5.16-37.67-5c-14 .33-14.67 10.67-16.33 15s3 18.67 3 18.67a78.51 78.51 0 0 0-3.67 13.5c-1.37 7.63-4.16 15.52-7.33 19.67 10.94 13.06 32.7 32.06 62.33 32.33 26.73.23 52.74-22.68 64.88-35.18z"/><ellipse class="k" cx="126.27" cy="142.55" rx="18.67" ry="13.5"/><ellipse class="k" cx="172.27" cy="142.55" rx="18.67" ry="13.5"/><path class="l" d="M116.93 194.05a12.87 12.87 0 0 1-2.67-7c-.33-4.33 3.67-10 3.67-10M123.6 178.72a10.35 10.35 0 0 1 7-5.33M169.27 172.72s6.66 5.33 7.33 9.33M179.27 177.38s3.33 2.67 3.33 6-2 7.33-2 7.33M197.27 160.72s5.67-1.67 6.67 8M99.6 160.05s-5 3-5.67 6M120.27 162.05c3 4 12.58-1.14 18.67-4.33"/><path class="m" d="M136.94 194.72l24.33-.34"/><path class="n" d="M214.27 181.72l-2.33-4.17s-7.17 7.83-8.5 9.33-11.34-.33-12.34 1.17 1.33 5.83.83 6a2.78 2.78 0 0 1-2.67-1.33c-.67-1.17-8-2.83-7.5 0s-4 15.5-3.33 2.33-4.67-14-7.33-14.17-1-3.33-3.17-5.5-7.5-3.17-10.83-3.33-6.5 2.83-7.5 2.83-4.61-3.29-6.67-3.67c-3.67-.67-20 4.83-22.33 10.17-1.13 2.59-.83 15.83-1.83 15.17s-1.5-3.67-3.33-5-6.33 3.83-6.33 3.83 1.33-4 .17-6.17-13.5-.33-16.17-2.5-4.5-8-4.5-8l-3.5 6c10.67 16 24.83 18.17 25.5 20.17s1.5 2 3 7.67 2.83 3.33 5.17 4.67 4.5 1 6 5.83 0 2.83 3.17 4.5 3-3.83 5.67-6.33 2-.5 4.33 2.83 9 2.5 11 2.83 3.5-4.83 7-5.17 8.67 4 12 3.67 4.5-6.33 6.17-6.5 2.67 5 5.17 5.33 1-5.67 2.17-9.17 4-.17 4.33-2.83-2.5-4.67-.67-6.5c11.48-4.33 29.15-23.99 29.15-23.99zm-45.67 21c-.83 2.5-5 5.17-8.5 4.83s-5.83-2.83-6.17-4-1.82-3.33-5.33-3.17c-3.67.17-2.53 3.61-3.33 4.83-1.27 1.94-5.67 2-9 2.17s-6.83-6-7.33-6.83-.5-8-.5-8a12.44 12.44 0 0 1 5.5-8.83s1.34 3.06 2.17 3c4.83-.33 8.67-4.5 12.17-4.33 2.09.1 9.17.67 9.33 2.33s4.83 4.17 6.33 3.83 4.33-1.5 4.67.83.82 10.84-.01 13.34z"/><circle class="o" cx="180.1" cy="142.88" r="5.83"/><circle cx="180.1" cy="142.88" r="2.92"/><circle class="o" cx="134.1" cy="142.88" r="5.83"/><circle cx="134.1" cy="142.88" r="2.92"/><path class="p" d="M213.93 184.38c-.58-2.83-3.58-8.83-9-19.67-3-8.28-5.67-3.17-5.67-14.5s1.35-15.55-.5-24.33c-2.67-12.67-14-10.67-19.67-10.83-7.33-.22-11.5 6.5-30.83 6.5s-31-5.16-37.67-5c-14 .33-14.67 10.67-16.33 15s3 18.67 3 18.67a78.51 78.51 0 0 0-3.67 13.5c-1.37 7.63-6.5 18.08-8.25 22.58"/><path class="q" d="M82.15 240.26c-3.93 1.26-6.65 3.83-7.91-.09L.46 9.97C-.8 6.04.46 2.24 5.32.54c5-1.74 8.17.93 9.43 4.86l73.79 230.19c1.25 3.93-2.46 3.46-6.39 4.67z"/><path class="r" d="M82.17 240.32c-1.93.62-2.45 1.14-3.07-.79L3.6 3.86C2.98 1.93 3.41 1.1 5.34.49 7.27-.13 8.1.3 8.71 2.23L84.25 237.9c.58 1.93-.15 1.8-2.08 2.42z"/><path class="s" d="M77.633 240.838l6.77-2.168a1.87 1.87 0 0 1 2.352 1.21l10.518 32.86a1.88 1.88 0 0 1-1.217 2.362l-6.772 2.168a1.87 1.87 0 0 1-2.35-1.21l-10.52-32.86a1.88 1.88 0 0 1 1.22-2.362z"/><path class="t" d="M77.26 241.11l7.55-2.42a1.5 1.5 0 0 1 1.89 1 1.5 1.5 0 0 1-1 1.89L78.15 244a1.5 1.5 0 0 1-1.89-1 1.5 1.5 0 0 1 1-1.89z"/><rect class="s" x="329.24" y="267.96" width="32.08" height="2.83" rx=".48" ry=".48" transform="matrix(.95 -.3 .3 .95 -330.08 88.12)"/><path class="j" d="M89.38 253.13c-1.07-3.5-6.9-7.45-10.65-5-2.35 1.52.74-5.7-2-4.87a26.11 26.11 0 0 0-2.6 1.57c-3.06 2-4.23 9.82-1.19 15.47 3.5 6.5 8.1 7.79 9.63 7.5a13.92 13.92 0 0 0 2.58-1.17c4.62-2.51 6.03-7.58 4.23-13.5z"/></svg>