<svg xmlns="http://www.w3.org/2000/svg" viewBox="0 0 217.79 307.13"><defs><style>.a,.h,.i,.m,.n,.o,.p,.q,.r,.u{fill:none;}.b,.c,.y{fill:#003767;}.b,.h,.i,.q,.r,.y{stroke:#003767;}.b,.e,.l,.m,.n,.o,.p,.q,.r,.u,.x{stroke-miterlimit:10;}.b{stroke-width:0.28px;}.d,.w,.x{fill:#754c24;}.aa,.e,.l{fill:#fff;}.e,.m,.o,.u,.w,.x{stroke:#754c24;}.f{fill:#333;}.g{fill:url(#a);}.h,.i,.q,.r,.w,.x,.y{stroke-linecap:round;}.h,.i,.w,.y{stroke-linejoin:round;}.h{stroke-width:8.5px;}.i,.y{stroke-width:5.67px;}.j{fill:#a67c52;}.k{fill:#ffd77d;}.l{stroke:#fff;stroke-width:7.5px;}.m{stroke-width:1.5px;}.n{stroke:#42210b;}.o,.r{stroke-width:3px;}.p{stroke:#000;}.s{fill:#ccc;}.t{fill:#4d4d4d;opacity:0.29;}.u{stroke-width:2px;}.v{fill:#e0bb70;}.z{fill:#009eff;opacity:0.61;}.aa{opacity:0.44;}.ab{fill:#999;}.ac{fill:#666;}</style><pattern id="a" width="48.13" height="36.21" patternTransform="matrix(2 0 0 2 -189.93 -156.49)" patternUnits="userSpaceOnUse" viewBox="0 0 48.13 36.2"><path class="a" d="M0 0h48.13v36.21H0z"/><path class="b" d="M47.33 33.19a.19.19 0 0 0 .14-.06.2.2 0 0 0 .07-.13.19.19 0 0 0-.06-.14.2.2 0 0 0-.28 0 .22.22 0 0 0-.06.15.21.21 0 0 0 .05.14.2.2 0 0 0 .14.04zM46.52 34a.2.2 0 0 0 .14-.05.2.2 0 0 0 .07-.15.2.2 0 0 0-.41 0 .23.23 0 0 0 .06.14.21.21 0 0 0 .14.06zM45.72 34.8a.19.19 0 0 0 .15-.06.2.2 0 0 0 .05-.14.19.19 0 0 0-.06-.14.21.21 0 0 0-.28 0 .19.19 0 0 0-.06.14.19.19 0 0 0 .06.14.18.18 0 0 0 .14.06zM44.92 35.61a.22.22 0 0 0 .14-.06.21.21 0 0 0 .06-.15.2.2 0 0 0-.34-.14.19.19 0 0 0-.06.14.18.18 0 0 0 .06.15.21.21 0 0 0 .14.06zM47.34 29.17a.21.21 0 0 0 .2-.2.21.21 0 0 0-.06-.14.2.2 0 0 0-.29 0 .21.21 0 0 0-.05.14.19.19 0 0 0 .06.14.16.16 0 0 0 .14.06zM46.53 30a.22.22 0 0 0 .14-.05.2.2 0 0 0 .07-.15.2.2 0 1 0-.35.14.2.2 0 0 0 .14.06zM45.73 30.77a.21.21 0 0 0 .15-.06.21.21 0 0 0 .05-.14.23.23 0 0 0-.05-.14.21.21 0 0 0-.29 0 .2.2 0 0 0-.06.14.19.19 0 0 0 .07.15.18.18 0 0 0 .13.05zM44.92 31.58a.21.21 0 0 0 .14-.05.22.22 0 0 0 .06-.15.24.24 0 0 0-.05-.14.22.22 0 0 0-.3 0 .18.18 0 0 0-.05.13.21.21 0 0 0 .06.15.21.21 0 0 0 .14.06zM44.12 32.39a.19.19 0 0 0 .14-.06.2.2 0 0 0 .06-.14.21.21 0 0 0-.06-.19.22.22 0 0 0-.26 0 .21.21 0 0 0-.05.14.23.23 0 0 0 .05.14.21.21 0 0 0 .12.11zM43.32 33.19a.18.18 0 0 0 .14-.06.19.19 0 0 0 .06-.13.21.21 0 0 0-.07-.15.2.2 0 0 0-.33.15.19.19 0 0 0 .06.14.18.18 0 0 0 .14.05zM42.51 34a.22.22 0 0 0 .14-.05.2.2 0 0 0 .07-.15.2.2 0 1 0-.4 0 .19.19 0 0 0 .19.2zM41.71 34.8a.2.2 0 0 0 .15-.06.2.2 0 0 0 0-.28.21.21 0 0 0-.28 0 .19.19 0 0 0-.06.14.18.18 0 0 0 .06.14.18.18 0 0 0 .13.06zM40.9 35.61a.19.19 0 0 0 .1-.07.17.17 0 0 0 .06-.14.2.2 0 0 0-.06-.14.2.2 0 0 0-.28 0 .22.22 0 0 0-.06.14.21.21 0 0 0 .05.14.23.23 0 0 0 .19.07zM47.35 25.14a.2.2 0 0 0 .14-.06.19.19 0 0 0 .06-.14.19.19 0 0 0-.06-.14.2.2 0 0 0-.34.14.19.19 0 0 0 .06.14.18.18 0 0 0 .14.06zM46.54 25.95a.2.2 0 0 0 .15-.06.21.21 0 0 0 .06-.14.22.22 0 0 0-.06-.14.21.21 0 0 0-.29 0 .19.19 0 0 0-.06.14.19.19 0 0 0 .07.14.17.17 0 0 0 .13.06zM45.73 26.75a.2.2 0 0 0 .2-.2.22.22 0 0 0-.05-.14.21.21 0 0 0-.29 0 .19.19 0 0 0-.06.14.2.2 0 0 0 .2.2zM44.93 27.55a.21.21 0 0 0 .14-.05.22.22 0 0 0 .06-.15.18.18 0 0 0-.06-.13.2.2 0 0 0-.34.13.21.21 0 0 0 .06.15.2.2 0 0 0 .14.05zM44.13 28.36a.2.2 0 0 0 .14-.06.2.2 0 0 0 .06-.14.18.18 0 0 0-.06-.16.2.2 0 0 0-.27 0 .2.2 0 0 0 .13.36zM43.33 29.17a.21.21 0 0 0 .2-.2.19.19 0 0 0-.06-.14.2.2 0 0 0-.28 0 .23.23 0 0 0-.07.15.2.2 0 0 0 .07.14.17.17 0 0 0 .14.05zM42.51 30a.2.2 0 0 0 .15-.06.19.19 0 0 0 .06-.14.2.2 0 0 0-.35-.14.21.21 0 0 0-.06.14.19.19 0 0 0 .06.14.18.18 0 0 0 .14.06zM41.71 30.77a.19.19 0 0 0 .15-.06.21.21 0 0 0 .05-.14.18.18 0 0 0-.06-.14.2.2 0 0 0-.28 0 .18.18 0 0 0-.06.13.19.19 0 0 0 .06.14.18.18 0 0 0 .14.07zM40.91 31.58a.2.2 0 0 0 .2-.2.24.24 0 0 0-.05-.14.2.2 0 0 0-.29 0 .17.17 0 0 0-.06.13.21.21 0 0 0 .06.15.22.22 0 0 0 .14.06zM40.11 32.39a.19.19 0 0 0 .14-.06.2.2 0 0 0 .06-.14.21.21 0 0 0-.06-.19.22.22 0 0 0-.25 0 .21.21 0 0 0-.05.14.23.23 0 0 0 .05.14.22.22 0 0 0 .11.11zM39.3 33.19a.21.21 0 0 0 .2-.2.22.22 0 0 0-.07-.15.2.2 0 0 0-.33.15.19.19 0 0 0 .05.14.2.2 0 0 0 .15.06zM38.49 34a.21.21 0 0 0 .15-.06.2.2 0 0 0 .06-.14.19.19 0 0 0-.07-.14.21.21 0 0 0-.28 0 .21.21 0 0 0-.06.14.23.23 0 0 0 .06.14.21.21 0 0 0 .14.06zM37.69 34.8a.2.2 0 0 0 .14-.05.21.21 0 0 0 .06-.15.18.18 0 0 0-.06-.14.21.21 0 0 0-.28 0 .18.18 0 0 0-.06.13.18.18 0 0 0 .06.14.19.19 0 0 0 .14.07zM36.89 35.6a.2.2 0 0 0 .2-.2.18.18 0 0 0-.09-.14.2.2 0 0 0-.28 0 .2.2 0 0 0 0 .29.21.21 0 0 0 .17.05zM47.35 21.12a.2.2 0 0 0 .14-.06.2.2 0 0 0 .06-.14.19.19 0 0 0-.06-.14.2.2 0 0 0-.28 0 .21.21 0 0 0-.06.15.22.22 0 0 0 .05.14.21.21 0 0 0 .15.05zM46.54 21.92a.19.19 0 0 0 .15-.06.22.22 0 0 0 .06-.14.21.21 0 0 0-.35-.14.22.22 0 0 0-.06.14.2.2 0 0 0 .2.2zM45.74 22.73a.19.19 0 0 0 .2-.2.22.22 0 0 0-.05-.14.21.21 0 0 0-.29 0 .19.19 0 0 0-.06.14.24.24 0 0 0 .06.15.21.21 0 0 0 .14.05zM44.94 23.54a.2.2 0 0 0 .14-.06.19.19 0 0 0 .06-.14.2.2 0 0 0-.06-.15.21.21 0 0 0-.28 0 .2.2 0 0 0-.06.15.2.2 0 0 0 .05.13.19.19 0 0 0 .15.07zM44.14 24.34a.19.19 0 0 0 .14-.07.17.17 0 0 0 .06-.13A.2.2 0 0 0 44 24a.18.18 0 0 0-.06.14.19.19 0 0 0 .06.14.21.21 0 0 0 .14.06zM43.33 25.14a.19.19 0 0 0 .14-.06.19.19 0 0 0 .06-.14.2.2 0 0 0-.06-.15.21.21 0 0 0-.29 0 .21.21 0 0 0-.05.14.24.24 0 0 0 .05.14.22.22 0 0 0 .15.07zM42.52 25.95a.21.21 0 0 0 .15-.06.22.22 0 0 0 .06-.14.19.19 0 0 0-.07-.14.2.2 0 0 0-.28 0 .21.21 0 0 0-.06.14.21.21 0 0 0 .06.14.19.19 0 0 0 .14.06zM41.72 26.75a.2.2 0 0 0 .15-.06.21.21 0 0 0 .05-.14.18.18 0 0 0-.06-.14.21.21 0 0 0-.28 0 .19.19 0 0 0-.06.14.2.2 0 0 0 .06.14.18.18 0 0 0 .14.06zM40.92 27.55a.18.18 0 0 0 .14-.06.17.17 0 0 0 .06-.14.2.2 0 0 0-.34-.14.22.22 0 0 0-.06.14.21.21 0 0 0 .2.2zM40.11 28.36a.19.19 0 0 0 .14-.06.21.21 0 0 0 .06-.14A.2.2 0 0 0 40 28a.18.18 0 0 0-.05.14.2.2 0 0 0 .06.14.18.18 0 0 0 .1.08zM39.31 29.17a.19.19 0 0 0 .14-.06.21.21 0 0 0 .06-.11.21.21 0 0 0-.07-.15.2.2 0 0 0-.33.15.21.21 0 0 0 .05.14.2.2 0 0 0 .15.03zM38.5 30a.2.2 0 0 0 .15-.06.21.21 0 0 0 0-.28.22.22 0 0 0-.29 0 .22.22 0 0 0-.06.15.22.22 0 0 0 .06.14.2.2 0 0 0 .14.05zM37.7 30.77a.21.21 0 0 0 .15-.06.2.2 0 0 0 .05-.14.23.23 0 0 0-.05-.14.21.21 0 0 0-.29 0 .18.18 0 0 0-.06.14.21.21 0 0 0 .07.15.18.18 0 0 0 .13.05zM36.89 31.58a.22.22 0 0 0 .11-.06.21.21 0 0 0 .06-.15.2.2 0 0 0-.06-.14.2.2 0 0 0-.28 0 .17.17 0 0 0-.06.13.21.21 0 0 0 .06.15.22.22 0 0 0 .17.07zM36.09 32.39a.19.19 0 0 0 .14-.07.18.18 0 0 0 .06-.13A.2.2 0 0 0 36 32a.22.22 0 0 0-.06.15.19.19 0 0 0 .06.14.21.21 0 0 0 .09.1zM35.29 33.19a.19.19 0 0 0 .14-.06.21.21 0 0 0 .06-.13.22.22 0 0 0-.07-.15.2.2 0 0 0-.28.29.2.2 0 0 0 .15.05zM34.48 34a.2.2 0 0 0 .15-.06.21.21 0 0 0 .05-.14.2.2 0 0 0-.05-.14.2.2 0 0 0-.35.14.21.21 0 0 0 .2.2zM33.67 34.8a.21.21 0 0 0 .15-.06.19.19 0 0 0 .05-.14.18.18 0 0 0-.06-.14.21.21 0 0 0-.28 0 .17.17 0 0 0-.06.13.18.18 0 0 0 .06.14.19.19 0 0 0 .14.07zM32.87 35.6a.19.19 0 0 0 .13-.06.17.17 0 0 0 .06-.14.19.19 0 0 0-.06-.14.2.2 0 0 0-.34.14.21.21 0 0 0 .06.15.2.2 0 0 0 .15.05zM47.36 17.1a.2.2 0 0 0 .2-.2.19.19 0 0 0-.06-.14.2.2 0 0 0-.28 0 .2.2 0 0 0-.06.15.18.18 0 0 0 .06.14.21.21 0 0 0 .14.05zM46.55 17.9a.21.21 0 0 0 .15-.06.19.19 0 0 0 .06-.14.21.21 0 0 0-.06-.14.2.2 0 0 0-.29 0 .2.2 0 0 0-.05.14.21.21 0 0 0 .05.14.2.2 0 0 0 .14.06zM45.75 18.71a.2.2 0 0 0 .14-.05.22.22 0 0 0 .06-.15.18.18 0 0 0-.06-.14.2.2 0 0 0-.28 0 .2.2 0 0 0-.06.14.19.19 0 0 0 .06.14.2.2 0 0 0 .14.06zM44.94 19.51a.21.21 0 0 0 .14-.05.22.22 0 0 0 .06-.15.19.19 0 0 0-.06-.14.2.2 0 0 0-.28 0 .19.19 0 0 0-.06.14.21.21 0 0 0 .06.15.22.22 0 0 0 .14.05zM44.14 20.32a.2.2 0 0 0 .14-.06.2.2 0 0 0 .06-.14.2.2 0 0 0-.06-.12.21.21 0 0 0-.28 0 .19.19 0 0 0-.05.14.2.2 0 0 0 .06.14.22.22 0 0 0 .13.04zM43.34 21.12a.21.21 0 0 0 .14-.06.19.19 0 0 0 0-.28.2.2 0 0 0-.28 0 .2.2 0 0 0-.06.15.18.18 0 0 0 .06.14.2.2 0 0 0 .14.05zM42.53 21.92a.2.2 0 0 0 .15-.06.2.2 0 0 0 .06-.14.22.22 0 0 0-.06-.14.21.21 0 0 0-.29 0 .22.22 0 0 0-.06.14.22.22 0 0 0 .06.14.18.18 0 0 0 .14.06zM41.73 22.73a.18.18 0 0 0 .14-.06.2.2 0 0 0 .06-.14.18.18 0 0 0-.06-.14.2.2 0 0 0-.28 0 .18.18 0 0 0-.06.13.19.19 0 0 0 .06.14.2.2 0 0 0 .14.07zM40.92 23.54a.21.21 0 0 0 .15-.07.17.17 0 0 0 .05-.13.2.2 0 0 0-.06-.15.21.21 0 0 0-.28 0 .18.18 0 0 0-.06.14.22.22 0 0 0 .06.14.2.2 0 0 0 .14.07zM40.12 24.34a.23.23 0 0 0 .14-.06.21.21 0 0 0 .06-.14.2.2 0 0 0-.06-.14.22.22 0 0 0-.26 0 .2.2 0 0 0-.05.14.21.21 0 0 0 .06.14.21.21 0 0 0 .11.06zM39.32 25.14a.19.19 0 0 0 .14-.06.18.18 0 0 0 .06-.14.21.21 0 0 0-.07-.15.2.2 0 0 0-.34.15.22.22 0 0 0 .05.14.21.21 0 0 0 .16.06zM38.51 25.95a.21.21 0 0 0 .15-.06.22.22 0 0 0 .06-.14.19.19 0 0 0-.07-.14.2.2 0 0 0-.28 0 .21.21 0 0 0-.06.14.19.19 0 0 0 .06.14.21.21 0 0 0 .14.06zM37.7 26.75a.21.21 0 0 0 .15-.06.21.21 0 0 0 .05-.14.19.19 0 0 0-.06-.14.21.21 0 0 0-.28 0 .18.18 0 0 0-.06.14.24.24 0 0 0 .06.15.2.2 0 0 0 .14.05zM36.9 27.55a.19.19 0 0 0 .1-.33.2.2 0 0 0-.28 0 .2.2 0 0 0 0 .29.21.21 0 0 0 .18.04zM36.1 28.36a.21.21 0 0 0 .2-.2.19.19 0 0 0-.06-.16.2.2 0 0 0-.24 0 .2.2 0 0 0-.06.15.18.18 0 0 0 .06.14.2.2 0 0 0 .1.07zM35.29 29.17a.18.18 0 0 0 .14-.06.2.2 0 0 0 .06-.11.19.19 0 0 0-.06-.14.21.21 0 0 0-.28 0 .22.22 0 0 0-.06.15.2.2 0 0 0 .05.14.2.2 0 0 0 .15.02zM34.48 30a.19.19 0 0 0 .15-.06.2.2 0 0 0 .05-.14.2.2 0 0 0-.34-.14.19.19 0 0 0 0 .28.2.2 0 0 0 .14.06zM33.68 30.77a.2.2 0 0 0 .15-.06.2.2 0 0 0 .05-.14.19.19 0 0 0-.06-.14.21.21 0 0 0-.28 0 .2.2 0 0 0-.06.14.19.19 0 0 0 .06.14.18.18 0 0 0 .14.06zM32.88 31.58a.2.2 0 0 0 .12-.06.19.19 0 0 0 .06-.15.18.18 0 0 0-.06-.14.22.22 0 0 0-.28 0 .21.21 0 0 0-.06.14.18.18 0 0 0 .06.14.19.19 0 0 0 .16.07zM32.07 32.39a.19.19 0 0 0 .14-.06.19.19 0 0 0 .06-.14.23.23 0 0 0-.06-.19.22.22 0 0 0-.29 0 .21.21 0 0 0-.05.14.23.23 0 0 0 .05.14.22.22 0 0 0 .15.11zM31.27 33.19a.19.19 0 0 0 .14-.06.21.21 0 0 0 .06-.13.25.25 0 0 0-.06-.15.22.22 0 0 0-.29 0 .22.22 0 0 0-.05.14.21.21 0 0 0 .05.14.19.19 0 0 0 .15.06zM30.46 34a.2.2 0 0 0 .15-.06.21.21 0 0 0 .05-.14.2.2 0 0 0-.05-.14.21.21 0 0 0-.29 0 .22.22 0 0 0-.06.14.21.21 0 0 0 .07.15.18.18 0 0 0 .13.05zM29.66 34.8a.2.2 0 0 0 .14-.05.21.21 0 0 0 .06-.15.19.19 0 0 0-.06-.14.21.21 0 0 0-.28 0 .21.21 0 0 0-.06.14.19.19 0 0 0 .06.14.19.19 0 0 0 .14.06zM28.85 35.6a.19.19 0 0 0 .15-.06.17.17 0 0 0 .06-.14.19.19 0 0 0-.06-.14.21.21 0 0 0-.28 0 .2.2 0 0 0-.06.14.2.2 0 0 0 .19.2zM47.37 13.08a.19.19 0 0 0 .14-.08.2.2 0 0 0 .06-.14.18.18 0 0 0-.06-.14.2.2 0 0 0-.34.14.2.2 0 0 0 .06.14.18.18 0 0 0 .14.08zM46.56 13.88a.19.19 0 0 0 .14-.06.21.21 0 0 0 .06-.14.19.19 0 0 0-.06-.14.2.2 0 0 0-.28 0 .21.21 0 0 0 0 .29.21.21 0 0 0 .14.05zM45.75 14.68a.21.21 0 0 0 .15-.06.2.2 0 0 0 .1-.14.21.21 0 0 0-.06-.14.21.21 0 0 0-.29 0 .22.22 0 0 0-.06.14.21.21 0 0 0 .07.15.18.18 0 0 0 .09.05zM45 15.49a.18.18 0 0 0 .14-.06.19.19 0 0 0 .06-.14.19.19 0 0 0-.06-.14.2.2 0 0 0-.28 0 .18.18 0 0 0-.06.13.21.21 0 0 0 .06.15.21.21 0 0 0 .14.06zM44.15 16.3a.19.19 0 0 0 .14-.07.17.17 0 0 0 .06-.14.2.2 0 0 0-.35-.14.2.2 0 0 0-.06.14.21.21 0 0 0 .21.21zM43.35 17.1a.21.21 0 0 0 .2-.2.21.21 0 0 0-.07-.15.21.21 0 0 0-.28 0 .2.2 0 0 0-.05.14.2.2 0 0 0 .06.14.18.18 0 0 0 .14.07zM42.54 17.9a.21.21 0 0 0 .15-.06.19.19 0 0 0 .06-.14.21.21 0 0 0-.06-.14.21.21 0 0 0-.29 0 .2.2 0 0 0-.05.14.2.2 0 0 0 .05.14.19.19 0 0 0 .14.06zM41.73 18.71a.21.21 0 0 0 .15-.06.19.19 0 0 0 .05-.14.18.18 0 0 0-.06-.14.2.2 0 0 0-.28 0 .19.19 0 0 0-.06.14.18.18 0 0 0 .06.14.19.19 0 0 0 .14.06zM40.93 19.51a.21.21 0 0 0 .15-.06.2.2 0 0 0 .05-.14.19.19 0 0 0-.06-.14.21.21 0 0 0-.28 0 .21.21 0 0 0-.06.14.2.2 0 0 0 .06.14.18.18 0 0 0 .14.06zM40.13 20.31a.2.2 0 0 0 .14-.05.2.2 0 0 0 .06-.15.19.19 0 0 0-.06-.11.21.21 0 0 0-.27 0 .18.18 0 0 0-.05.13.2.2 0 0 0 .06.15.2.2 0 0 0 .12.03zM39.32 21.12a.19.19 0 0 0 .14-.07.18.18 0 0 0 .06-.13.24.24 0 0 0-.06-.15.22.22 0 0 0-.29 0 .2.2 0 0 0-.05.14.19.19 0 0 0 .06.14.18.18 0 0 0 .14.07zM38.51 21.92a.21.21 0 0 0 .15-.06.2.2 0 0 0 .05-.14.2.2 0 0 0-.34-.14.22.22 0 0 0-.06.14.19.19 0 0 0 .06.14.21.21 0 0 0 .14.06zM37.71 22.73a.21.21 0 0 0 .15-.06.22.22 0 0 0 .05-.14.24.24 0 0 0-.05-.14.21.21 0 0 0-.29 0 .2.2 0 0 0-.06.14.22.22 0 0 0 .06.15.2.2 0 0 0 .14.05zM36.91 23.54a.2.2 0 0 0 .09-.06.19.19 0 0 0 .06-.14.19.19 0 0 0-.06-.15.21.21 0 0 0-.28 0 .18.18 0 0 0-.06.14.2.2 0 0 0 .06.14.21.21 0 0 0 .19.07zM36.1 24.34a.21.21 0 0 0 .14-.05.19.19 0 0 0 .06-.14.2.2 0 0 0-.06-.15.21.21 0 0 0-.24 0 .21.21 0 0 0-.06.15.2.2 0 0 0 .06.14.21.21 0 0 0 .1.05zM35.3 25.14a.21.21 0 0 0 .14-.06.21.21 0 0 0 .06-.14.23.23 0 0 0-.06-.15.21.21 0 0 0-.29 0 .21.21 0 0 0-.05.14.19.19 0 0 0 .06.14.2.2 0 0 0 .14.07zM34.49 25.95a.2.2 0 0 0 .15-.06.2.2 0 0 0 .05-.14.2.2 0 0 0-.33-.15.2.2 0 0 0-.07.15.21.21 0 0 0 .2.2zM33.69 26.75a.2.2 0 0 0 .15-.06.2.2 0 0 0 .05-.14.19.19 0 0 0-.06-.14.21.21 0 0 0-.28 0 .2.2 0 0 0-.06.14.24.24 0 0 0 .06.15.2.2 0 0 0 .14.05zM32.88 27.55a.18.18 0 0 0 .12-.06.16.16 0 0 0 .06-.14.2.2 0 0 0-.06-.14.21.21 0 0 0-.28 0 .2.2 0 0 0 0 .29.21.21 0 0 0 .16.05zM32.08 28.36a.22.22 0 0 0 .14-.06.2.2 0 0 0 .06-.14.21.21 0 0 0-.06-.16.21.21 0 0 0-.28 0 .21.21 0 0 0-.06.15.23.23 0 0 0 .05.14.21.21 0 0 0 .15.07zM31.28 29.17a.18.18 0 0 0 .14-.06.19.19 0 0 0 .06-.11.21.21 0 0 0-.06-.14.21.21 0 0 0-.28 0 .22.22 0 0 0-.06.15.23.23 0 0 0 .05.14.2.2 0 0 0 .15.02zM30.47 30a.19.19 0 0 0 .15-.06.2.2 0 0 0 .05-.14.21.21 0 0 0-.06-.15.21.21 0 0 0-.28 0 .21.21 0 0 0-.06.14.22.22 0 0 0 .07.15.18.18 0 0 0 .13.06zM29.66 30.77a.2.2 0 0 0 .14-.34.21.21 0 0 0-.28 0 .2.2 0 0 0 0 .28.19.19 0 0 0 .14.06zM28.86 31.58a.2.2 0 0 0 .14-.06.19.19 0 0 0 .06-.15.18.18 0 0 0-.06-.14.21.21 0 0 0-.28 0 .18.18 0 0 0-.06.13.2.2 0 0 0 .06.15.22.22 0 0 0 .14.07zM28.06 32.39a.21.21 0 0 0 .2-.2.2.2 0 0 0-.35-.19.2.2 0 0 0 0 .28.18.18 0 0 0 .15.11zM27.25 33.19a.19.19 0 0 0 .14-.06.22.22 0 0 0 .07-.13.22.22 0 0 0-.06-.14.21.21 0 0 0-.28 0 .21.21 0 0 0 0 .29.2.2 0 0 0 .13.04zM26.44 34a.19.19 0 0 0 .15-.06.2.2 0 0 0 .05-.14.18.18 0 0 0-.06-.14.2.2 0 0 0-.34.14.21.21 0 0 0 .06.14.2.2 0 0 0 .14.06zM25.64 34.8a.2.2 0 0 0 .15-.06.2.2 0 0 0 0-.28.21.21 0 0 0-.28 0 .2.2 0 0 0-.06.14.18.18 0 0 0 .06.14.19.19 0 0 0 .13.06zM24.84 35.6a.22.22 0 0 0 .16-.06.2.2 0 0 0 0-.29.22.22 0 0 0-.29 0 .2.2 0 0 0-.05.13.2.2 0 0 0 .18.22zM47.37 9.05a.21.21 0 0 0 .14-.05.2.2 0 0 0 0-.29.21.21 0 0 0-.29 0 .19.19 0 0 0-.05.14.2.2 0 0 0 .06.14.21.21 0 0 0 .14.06zM46.57 9.86a.19.19 0 0 0 .14-.06.19.19 0 0 0 .06-.14.19.19 0 0 0-.06-.14.2.2 0 0 0-.34.14.18.18 0 0 0 .06.14.17.17 0 0 0 .14.06zM45.76 10.66a.21.21 0 0 0 .14-.05.22.22 0 0 0 .1-.15.2.2 0 0 0-.05-.14.21.21 0 0 0-.29 0 .21.21 0 0 0 0 .28.2.2 0 0 0 .1.06zM45 11.46a.21.21 0 0 0 .2-.2.21.21 0 0 0-.05-.14.21.21 0 0 0-.29 0 .18.18 0 0 0-.06.14.2.2 0 0 0 .07.15.18.18 0 0 0 .13.05zM44.16 12.27a.2.2 0 0 0 .14-.06.22.22 0 0 0 .06-.14.2.2 0 0 0-.36-.14.18.18 0 0 0-.06.14.2.2 0 0 0 .06.14.2.2 0 0 0 .16.06zM43.35 13.08a.21.21 0 0 0 .2-.2.18.18 0 0 0-.06-.14.2.2 0 0 0-.29 0 .19.19 0 0 0-.05.14.19.19 0 0 0 .06.14.18.18 0 0 0 .14.06zM42.55 13.88a.2.2 0 0 0 .14-.06.19.19 0 0 0 .06-.14.21.21 0 0 0-.06-.14.2.2 0 0 0-.34.14.22.22 0 0 0 .05.14.2.2 0 0 0 .15.06zM41.74 14.68a.2.2 0 0 0 .15-.06.2.2 0 0 0 .06-.14.22.22 0 0 0-.06-.14.22.22 0 0 0-.29 0 .22.22 0 0 0-.06.15.18.18 0 0 0 .06.14.19.19 0 0 0 .14.05zM40.94 15.49a.19.19 0 0 0 .2-.2.18.18 0 0 0-.06-.14.21.21 0 0 0-.28 0 .21.21 0 0 0-.06.14.19.19 0 0 0 .06.14.19.19 0 0 0 .14.06zM40.13 16.29a.18.18 0 0 0 .14-.06.17.17 0 0 0 .06-.13.19.19 0 0 0-.06-.15.21.21 0 0 0-.27.05.18.18 0 0 0-.06.14.2.2 0 0 0 .19.15zM39.33 17.1a.19.19 0 0 0 .14-.1.21.21 0 0 0 .06-.14.2.2 0 0 0-.07-.15.21.21 0 0 0-.28 0 .2.2 0 0 0-.05.14.24.24 0 0 0 .05.14.23.23 0 0 0 .15.11zM38.52 17.9a.21.21 0 0 0 .15-.06.18.18 0 0 0 .06-.14.22.22 0 0 0-.07-.15.21.21 0 0 0-.28 0 .2.2 0 0 0-.05.14.18.18 0 0 0 .06.14.18.18 0 0 0 .13.07zM37.72 18.71a.2.2 0 0 0 .15-.06.19.19 0 0 0 .05-.14.22.22 0 0 0-.05-.14.21.21 0 0 0-.29 0 .22.22 0 0 0-.06.14.21.21 0 0 0 .07.15.18.18 0 0 0 .13.05zM36.91 19.51a.19.19 0 0 0 .15-.06.2.2 0 0 0 .05-.14.19.19 0 0 0-.06-.14.21.21 0 0 0-.28 0 .19.19 0 0 0-.06.14.21.21 0 0 0 .06.15.2.2 0 0 0 .14.05zM36.11 20.32a.19.19 0 0 0 .14-.06.2.2 0 0 0 .06-.14A.2.2 0 0 0 36 20a.18.18 0 0 0-.05.14.19.19 0 0 0 .06.14.22.22 0 0 0 .1.04zM35.31 21.12a.22.22 0 0 0 .14-.06.21.21 0 0 0 .06-.14.2.2 0 0 0-.07-.15.21.21 0 0 0-.28 0 .2.2 0 0 0-.05.14.19.19 0 0 0 .06.14.2.2 0 0 0 .14.07zM34.5 21.92a.18.18 0 0 0 .14-.06.21.21 0 0 0 .05-.14.21.21 0 0 0-.05-.14.22.22 0 0 0-.29 0 .19.19 0 0 0-.06.14.19.19 0 0 0 .06.14.21.21 0 0 0 .15.06zM33.69 22.73a.21.21 0 0 0 .15-.06.2.2 0 0 0 .05-.14.18.18 0 0 0-.06-.14.2.2 0 0 0-.34.14.18.18 0 0 0 .06.14.19.19 0 0 0 .14.06zM32.89 23.53a.2.2 0 0 0 .11-.05.2.2 0 0 0 0-.29.2.2 0 0 0-.34.14.21.21 0 0 0 .23.2zM32.09 24.34a.23.23 0 0 0 .14-.06.19.19 0 0 0 .06-.14.18.18 0 0 0-.06-.14.21.21 0 0 0-.28 0 .21.21 0 0 0-.06.15.2.2 0 0 0 .05.13.19.19 0 0 0 .15.06zM31.28 25.14a.2.2 0 0 0 .2-.2.23.23 0 0 0-.06-.15.22.22 0 0 0-.29 0 .21.21 0 0 0-.05.14.18.18 0 0 0 .06.14.2.2 0 0 0 .14.07zM30.47 25.95a.19.19 0 0 0 .2-.2.18.18 0 0 0-.06-.14.2.2 0 0 0-.28 0 .21.21 0 0 0-.06.14.19.19 0 0 0 .07.14.16.16 0 0 0 .13.06zM29.67 26.75a.2.2 0 0 0 .14-.05.21.21 0 0 0 .06-.15.18.18 0 0 0-.06-.14.21.21 0 0 0-.28 0 .21.21 0 0 0-.06.14.19.19 0 0 0 .06.14.2.2 0 0 0 .14.06zM28.87 27.55a.18.18 0 0 0 .13-.06.17.17 0 0 0 .06-.13.19.19 0 0 0-.06-.15.2.2 0 0 0-.34.15.19.19 0 0 0 .05.13.21.21 0 0 0 .16.06zM28.06 28.36a.19.19 0 0 0 .14-.06.19.19 0 0 0 .06-.14.21.21 0 0 0-.05-.16.2.2 0 0 0-.28 0 .18.18 0 0 0-.06.14.19.19 0 0 0 .06.14.21.21 0 0 0 .13.08zM27.26 29.17a.21.21 0 0 0 .2-.2.18.18 0 0 0-.06-.14.2.2 0 0 0-.29 0 .22.22 0 0 0-.05.14.23.23 0 0 0 .05.14.2.2 0 0 0 .15.06zM26.45 30a.21.21 0 0 0 .15-.06.2.2 0 0 0 .05-.14.2.2 0 0 0-.34-.14.21.21 0 0 0-.06.14.19.19 0 0 0 .06.14.2.2 0 0 0 .14.06zM25.65 30.77a.2.2 0 0 0 .15-.06.19.19 0 0 0 .05-.14.18.18 0 0 0-.06-.14.21.21 0 0 0-.28 0 .18.18 0 0 0-.06.14.21.21 0 0 0 .06.15.2.2 0 0 0 .14.05zM24.84 31.58a.22.22 0 0 0 .16-.06.2.2 0 0 0 0-.29.22.22 0 0 0-.28 0 .21.21 0 0 0-.06.14.19.19 0 0 0 .06.14.19.19 0 0 0 .12.07zM24 32.39a.19.19 0 0 0 .14-.06.21.21 0 0 0 .06-.14.23.23 0 0 0-.02-.19.22.22 0 0 0-.29 0 .21.21 0 0 0-.05.14.19.19 0 0 0 .06.14.21.21 0 0 0 .1.11zM23.24 33.19a.21.21 0 0 0 .13-.05.2.2 0 0 0 .07-.14.24.24 0 0 0-.06-.15.21.21 0 0 0-.28 0 .21.21 0 0 0-.1.15.22.22 0 0 0 .05.14.21.21 0 0 0 .19.05zM22.43 34a.22.22 0 0 0 .14-.05.21.21 0 0 0 0-.29.21.21 0 0 0-.28 0 .22.22 0 0 0-.06.14.2.2 0 0 0 .06.14.21.21 0 0 0 .14.06zM21.63 34.8a.19.19 0 0 0 .15-.06.2.2 0 0 0 0-.28.21.21 0 0 0-.28 0 .2.2 0 0 0-.06.14.18.18 0 0 0 .06.14.18.18 0 0 0 .13.06zM20.82 35.6a.2.2 0 0 0 .18-.06.2.2 0 0 0 0-.29.21.21 0 0 0-.28 0 .22.22 0 0 0-.06.14.22.22 0 0 0 .05.14.21.21 0 0 0 .11.07zM47.38 5a.21.21 0 0 0 .14 0 .19.19 0 0 0 .06-.14.19.19 0 0 0-.06-.14.2.2 0 0 0-.34.14.18.18 0 0 0 .06.14.21.21 0 0 0 .14 0zM46.58 5.84a.19.19 0 0 0 .14-.07.18.18 0 0 0 .06-.14.18.18 0 0 0-.06-.14.21.21 0 0 0-.28 0 .22.22 0 0 0-.06.15.19.19 0 0 0 .06.14.17.17 0 0 0 .14.06zM45.77 6.64a.19.19 0 0 0 .15-.06.21.21 0 0 0 .08-.14.19.19 0 0 0-.06-.14.21.21 0 0 0-.29 0 .22.22 0 0 0-.06.14.19.19 0 0 0 .07.14.16.16 0 0 0 .11.06zM45 7.44a.21.21 0 0 0 .15-.06.21.21 0 0 0 .05-.14.2.2 0 0 0-.34-.14.19.19 0 0 0-.06.14.21.21 0 0 0 .07.15.18.18 0 0 0 .13.05zM44.16 8.24a.2.2 0 0 0 .14-.05.2.2 0 1 0-.3-.29.19.19 0 0 0 0 .1.21.21 0 0 0 .06.15.2.2 0 0 0 .1.09zM43.36 9.05A.22.22 0 0 0 43.5 9a.2.2 0 0 0 0-.29.21.21 0 0 0-.29 0 .18.18 0 0 0-.05.14.2.2 0 0 0 .06.14.21.21 0 0 0 .14.06zM42.55 9.86a.21.21 0 0 0 .15-.06.19.19 0 0 0 .06-.14.2.2 0 0 0-.35-.14.2.2 0 0 0-.05.14.21.21 0 0 0 .19.2zM41.75 10.66a.2.2 0 0 0 .15-.06.21.21 0 0 0 .05-.14.2.2 0 0 0-.4 0 .21.21 0 0 0 .2.2zM40.94 11.46a.2.2 0 0 0 .14-.05.21.21 0 0 0 .06-.15.18.18 0 0 0-.06-.14.21.21 0 0 0-.28 0 .19.19 0 0 0-.06.14.21.21 0 0 0 .2.2zM40.14 12.27a.2.2 0 0 0 .14-.06.21.21 0 0 0 .06-.14.22.22 0 0 0-.06-.15.2.2 0 0 0-.28 0 .19.19 0 0 0-.06.14.19.19 0 0 0 .06.14.22.22 0 0 0 .14.07zM39.34 13.08a.18.18 0 0 0 .14-.08.19.19 0 0 0 .06-.14.23.23 0 0 0-.06-.15.21.21 0 0 0-.29 0 .2.2 0 0 0-.05.14.23.23 0 0 0 .05.14.21.21 0 0 0 .15.09zM38.53 13.88a.18.18 0 0 0 .14-.06.21.21 0 0 0 .06-.14.18.18 0 0 0-.06-.14.21.21 0 0 0-.28 0 .22.22 0 0 0-.06.15.22.22 0 0 0 .05.14.2.2 0 0 0 .15.05zM37.72 14.68a.2.2 0 0 0 .15-.06.19.19 0 0 0 0-.28.21.21 0 0 0-.29 0 .19.19 0 0 0 0 .28.18.18 0 0 0 .14.06zM36.92 15.49a.19.19 0 0 0 .2-.2.19.19 0 0 0-.06-.14.21.21 0 0 0-.28 0 .21.21 0 0 0-.06.14.19.19 0 0 0 .06.14.2.2 0 0 0 .14.06zM36.12 16.3a.22.22 0 0 0 .14-.06.2.2 0 0 0 .06-.14.2.2 0 0 0-.06-.15.21.21 0 0 0-.26.05.2.2 0 0 0 0 .28.21.21 0 0 0 .12.02zM35.31 17.1a.21.21 0 0 0 .14-.1.23.23 0 0 0 .06-.14.2.2 0 0 0-.07-.15.21.21 0 0 0-.28 0 .2.2 0 0 0-.05.14.23.23 0 0 0 .05.14.22.22 0 0 0 .15.11zM34.5 17.9a.19.19 0 0 0 .15-.06.2.2 0 0 0 .06-.14.21.21 0 0 0-.06-.14.21.21 0 0 0-.28 0 .22.22 0 0 0-.06.15.21.21 0 0 0 .05.14.19.19 0 0 0 .14.05zM33.7 18.71a.2.2 0 0 0 .15-.06.21.21 0 0 0 .05-.14.18.18 0 0 0-.06-.14.21.21 0 0 0-.28 0 .2.2 0 0 0-.06.14.21.21 0 0 0 .05.14.22.22 0 0 0 .15.06zM32.9 19.51a.2.2 0 0 0 .1-.06.19.19 0 0 0 .05-.14.18.18 0 0 0-.05-.14.22.22 0 0 0-.28 0 .19.19 0 0 0-.06.14.19.19 0 0 0 .06.14.18.18 0 0 0 .18.06zM32.09 20.32a.22.22 0 0 0 .15-.07.18.18 0 0 0 .05-.13.19.19 0 0 0-.06-.12.22.22 0 0 0-.29 0 .2.2 0 0 0-.05.14.2.2 0 0 0 .06.14.22.22 0 0 0 .14.04zM31.29 21.12a.21.21 0 0 0 .14-.06.21.21 0 0 0 .06-.14.24.24 0 0 0-.06-.15.21.21 0 0 0-.28 0 .21.21 0 0 0-.06.15.18.18 0 0 0 .06.14.2.2 0 0 0 .14.06zM30.48 21.92a.18.18 0 0 0 .15-.06.2.2 0 0 0 .05-.14.21.21 0 0 0-.05-.14.22.22 0 0 0-.29 0 .21.21 0 0 0-.05.14.2.2 0 0 0 .05.14.18.18 0 0 0 .14.06zM29.68 22.73a.2.2 0 0 0 .15-.06.21.21 0 0 0 .05-.14.19.19 0 0 0-.06-.14.21.21 0 0 0-.28 0 .19.19 0 0 0-.06.14.21.21 0 0 0 .2.2zM28.87 23.53a.2.2 0 0 0 .13-.05.2.2 0 0 0 0-.29.21.21 0 0 0-.28 0 .19.19 0 0 0-.06.14.2.2 0 0 0 .06.15.22.22 0 0 0 .15.05zM28.07 24.34a.18.18 0 0 0 .14-.06.16.16 0 0 0 .06-.13.18.18 0 0 0-.06-.15.21.21 0 0 0-.28 0 .2.2 0 0 0-.06.15.23.23 0 0 0 .05.14.24.24 0 0 0 .15.05zM27.27 25.14a.19.19 0 0 0 .14-.06.21.21 0 0 0 .06-.14.21.21 0 0 0-.07-.15.2.2 0 0 0-.33.15.22.22 0 0 0 .05.14.21.21 0 0 0 .15.06zM26.46 25.95a.2.2 0 0 0 .15-.06.2.2 0 0 0 .05-.14.2.2 0 0 0-.34-.14.21.21 0 0 0-.06.14.22.22 0 0 0 .07.15.19.19 0 0 0 .13.05zM25.66 26.75a.22.22 0 0 0 .14-.05.21.21 0 0 0 .06-.15.18.18 0 0 0-.06-.14.21.21 0 0 0-.28 0 .19.19 0 0 0-.06.14.19.19 0 0 0 .06.14.2.2 0 0 0 .14.06zM24.85 27.56a.19.19 0 0 0 .15-.07.17.17 0 0 0 .06-.13.19.19 0 0 0-.06-.15.21.21 0 0 0-.28 0 .16.16 0 0 0-.06.14.19.19 0 0 0 .06.14.21.21 0 0 0 .13.07zM24 28.36a.19.19 0 0 0 .14-.06.2.2 0 0 0 .06-.14.2.2 0 0 0-.01-.16.2.2 0 0 0-.28 0 .18.18 0 0 0-.06.14.2.2 0 0 0 .06.14.21.21 0 0 0 .09.08zM23.25 29.17a.21.21 0 0 0 .13-.05.2.2 0 0 0 .07-.12.22.22 0 0 0-.07-.15.21.21 0 0 0-.28 0 .21.21 0 0 0-.1.15.23.23 0 0 0 .05.14.21.21 0 0 0 .2.03zM22.44 30a.2.2 0 0 0 .15-.06.21.21 0 0 0 0-.28.21.21 0 0 0-.29 0 .21.21 0 0 0 0 .28.18.18 0 0 0 .14.06zM21.63 30.77a.21.21 0 0 0 .15-.06.21.21 0 0 0 .05-.14.23.23 0 0 0-.05-.14.2.2 0 0 0-.35.14.2.2 0 0 0 .06.14.2.2 0 0 0 .14.06zM20.83 31.58a.21.21 0 0 0 .17-.06.2.2 0 0 0 0-.14.19.19 0 0 0 0-.15.22.22 0 0 0-.28 0 .19.19 0 0 0-.06.14.21.21 0 0 0 .06.15.22.22 0 0 0 .11.06zM20 32.39a.2.2 0 0 0 .14-.06.2.2 0 0 0 .06-.14.2.2 0 0 0-.31-.19.2.2 0 0 0-.06.15.23.23 0 0 0 .05.14.22.22 0 0 0 .12.1zM19.22 33.19a.21.21 0 0 0 .13-.05.19.19 0 0 0 .07-.14.21.21 0 0 0-.07-.15.2.2 0 0 0-.35.15.21.21 0 0 0 .05.14.21.21 0 0 0 .17.05zM18.41 34a.2.2 0 0 0 .14-.05.2.2 0 0 0 .07-.15.19.19 0 0 0-.06-.14.21.21 0 0 0-.29 0 .19.19 0 0 0-.06.14.19.19 0 0 0 .06.14.21.21 0 0 0 .14.06zM17.61 34.8a.19.19 0 0 0 .14-.05.21.21 0 0 0 .06-.15.18.18 0 0 0-.06-.14.21.21 0 0 0-.28 0 .2.2 0 0 0-.06.14.21.21 0 0 0 .05.14.21.21 0 0 0 .15.06zM16.81 35.61a.22.22 0 0 0 .14-.06.2.2 0 0 0 0-.29.2.2 0 0 0-.28 0 .22.22 0 0 0-.06.14.2.2 0 0 0 .2.21zM47.39 1a.19.19 0 0 0 .14-.05.2.2 0 0 0 .06-.14.2.2 0 0 0-.34-.14.17.17 0 0 0-.06.14.19.19 0 0 0 .06.14.21.21 0 0 0 .14.05zM46.58 1.81a.18.18 0 0 0 .14-.06.2.2 0 0 0 .06-.14.18.18 0 0 0-.06-.14.21.21 0 0 0-.29 0 .19.19 0 0 0-.05.14.21.21 0 0 0 .05.14.19.19 0 0 0 .15.06zM45.77 2.62a.21.21 0 0 0 .15-.06.18.18 0 0 0 .08-.14.2.2 0 0 0-.06-.14.21.21 0 0 0-.29 0 .21.21 0 0 0-.05.14.2.2 0 0 0 .06.15.19.19 0 0 0 .11.05zM45 3.42a.2.2 0 0 0 .14-.05.23.23 0 0 0 .07-.15.19.19 0 0 0-.07-.14.2.2 0 0 0-.28 0 .21.21 0 0 0-.06.14.2.2 0 0 0 .06.14.2.2 0 0 0 .14.06zM44.17 4.22a.2.2 0 0 0 .14-.05.21.21 0 0 0 0-.29.21.21 0 0 0-.29 0A.16.16 0 0 0 44 4a.21.21 0 0 0 .17.22zM43.37 5a.22.22 0 0 0 .14 0 .19.19 0 0 0 .06-.14.22.22 0 0 0-.05-.14.2.2 0 0 0-.29 0 .21.21 0 0 0-.06.15.19.19 0 0 0 .06.14.21.21 0 0 0 .14-.01zM42.56 5.84a.21.21 0 0 0 .2-.2.18.18 0 0 0-.06-.14.2.2 0 0 0-.34.14.22.22 0 0 0 .05.14.21.21 0 0 0 .15.06zM41.75 6.64a.18.18 0 0 0 .15-.06.21.21 0 0 0 .1-.14.23.23 0 0 0-.1-.14.21.21 0 0 0-.28 0 .21.21 0 0 0-.07.15.22.22 0 0 0 .06.14.19.19 0 0 0 .14.05zM40.95 7.44a.21.21 0 0 0 .15-.06.21.21 0 0 0 .05-.14.18.18 0 0 0-.06-.14.21.21 0 0 0-.28 0 .21.21 0 0 0-.06.14.18.18 0 0 0 .06.14.2.2 0 0 0 .14.06zM40.15 8.24a.2.2 0 0 0 .15-.06.2.2 0 0 0 .05-.18.2.2 0 0 0-.06-.14.21.21 0 0 0-.28 0 .2.2 0 0 0 0 .29.2.2 0 0 0 .14.09zM39.34 9.05a.19.19 0 0 0 .14-.05.17.17 0 0 0 .06-.13.2.2 0 0 0-.06-.15.21.21 0 0 0-.28 0 .21.21 0 0 0-.06.15.2.2 0 0 0 .06.13.22.22 0 0 0 .14.05zM38.54 9.86a.18.18 0 0 0 .14-.06.21.21 0 0 0 .06-.14.21.21 0 0 0-.35-.14.2.2 0 0 0-.05.14.18.18 0 0 0 .06.14.19.19 0 0 0 .14.06zM37.73 10.66a.21.21 0 0 0 .15-.06.2.2 0 0 0 .05-.14.21.21 0 0 0-.06-.15.22.22 0 0 0-.28 0 .19.19 0 0 0 0 .28.21.21 0 0 0 .14.07zM36.93 11.46a.19.19 0 0 0 .15-.06.21.21 0 0 0 .05-.14.19.19 0 0 0-.06-.14.21.21 0 0 0-.28 0 .19.19 0 0 0-.06.14.21.21 0 0 0 .06.15.2.2 0 0 0 .14.05zM36.12 12.27a.2.2 0 0 0 .15-.06.18.18 0 0 0 .05-.14.2.2 0 0 0-.32-.15.19.19 0 0 0-.06.14.18.18 0 0 0 .06.15.2.2 0 0 0 .12.06zM35.32 13.08a.21.21 0 0 0 .2-.2.2.2 0 0 0-.06-.15.21.21 0 0 0-.29 0 .18.18 0 0 0-.05.14.21.21 0 0 0 .2.21zM34.52 13.88a.21.21 0 0 0 .2-.2.22.22 0 0 0-.07-.15.21.21 0 0 0-.28 0 .2.2 0 0 0-.05.14.2.2 0 0 0 .06.14.18.18 0 0 0 .14.07zM33.71 14.68a.2.2 0 0 0 .15-.34.22.22 0 0 0-.29 0 .2.2 0 0 0 0 .28.2.2 0 0 0 .14.06zM32.9 15.49a.2.2 0 0 0 .15-.06.2.2 0 0 0 .05-.14.18.18 0 0 0-.1-.15.21.21 0 0 0-.28 0 .18.18 0 0 0-.06.13.21.21 0 0 0 .06.15.2.2 0 0 0 .18.07zM32.1 16.29a.18.18 0 0 0 .14-.06.16.16 0 0 0 .06-.14.19.19 0 0 0-.06-.14.21.21 0 0 0-.28 0 .21.21 0 0 0-.06.14.19.19 0 0 0 .2.2zM31.3 17.1a.2.2 0 0 0 .13-.35.21.21 0 0 0-.28 0 .2.2 0 0 0-.05.14.22.22 0 0 0 .05.14.22.22 0 0 0 .15.07zM30.49 17.9a.19.19 0 0 0 .15-.06.2.2 0 0 0 .06-.14.22.22 0 0 0-.07-.15.21.21 0 0 0-.28 0 .2.2 0 0 0-.05.14.2.2 0 0 0 .05.14.21.21 0 0 0 .14.07zM29.68 18.71a.21.21 0 0 0 .14-.05.21.21 0 0 0 .06-.15.19.19 0 0 0-.06-.14.21.21 0 0 0-.28 0 .19.19 0 0 0 0 .28.19.19 0 0 0 .14.06zM28.88 19.51a.21.21 0 0 0 .12-.05.21.21 0 0 0 .06-.15.18.18 0 0 0-.06-.14.21.21 0 0 0-.28 0 .19.19 0 0 0-.06.14.19.19 0 0 0 .06.14.2.2 0 0 0 .16.06zM28.08 20.31a.2.2 0 0 0 .14-.05.18.18 0 0 0 .06-.15.19.19 0 0 0-.06-.11.22.22 0 0 0-.29 0 .23.23 0 0 0-.05.14.21.21 0 0 0 .06.15.2.2 0 0 0 .14.02zM27.27 21.12a.21.21 0 0 0 .2-.2.22.22 0 0 0-.06-.15.21.21 0 0 0-.29 0 .2.2 0 0 0-.05.14.22.22 0 0 0 .05.14.2.2 0 0 0 .15.07zM26.46 21.92a.21.21 0 0 0 .15-.06.2.2 0 0 0 .05-.14.21.21 0 0 0-.06-.15.2.2 0 0 0-.34.15.19.19 0 0 0 .07.14.18.18 0 0 0 .13.06zM25.66 22.73a.21.21 0 0 0 .15-.06.21.21 0 0 0 .05-.14.19.19 0 0 0-.06-.14.2.2 0 0 0-.28 0 .24.24 0 0 0-.06.15.22.22 0 0 0 .05.14.24.24 0 0 0 .15.05zM24.86 23.53a.2.2 0 0 0 .14-.05.2.2 0 0 0 0-.29.21.21 0 0 0-.28 0 .18.18 0 0 0-.06.13.19.19 0 0 0 .06.15.21.21 0 0 0 .14.06zM24.06 24.34a.23.23 0 0 0 .14-.06.2.2 0 0 0 0-.29.21.21 0 0 0-.28 0 .2.2 0 0 0 0 .29.21.21 0 0 0 .14.06zM23.25 25.14a.2.2 0 0 0 .2-.2.19.19 0 0 0-.06-.14.2.2 0 0 0-.34.14.22.22 0 0 0 .05.14.21.21 0 0 0 .15.06zM22.44 25.95a.2.2 0 0 0 .15-.06.2.2 0 0 0 .05-.14.18.18 0 0 0-.06-.14.21.21 0 0 0-.28 0 .21.21 0 0 0-.06.14.21.21 0 0 0 .06.14.2.2 0 0 0 .14.06zM21.64 26.75a.21.21 0 0 0 .15-.06.2.2 0 0 0 .05-.14.18.18 0 0 0-.06-.14.21.21 0 0 0-.28 0 .2.2 0 0 0-.06.14.2.2 0 0 0 .2.2zM20.84 27.55a.18.18 0 0 0 .16-.06.16.16 0 0 0 0-.13.19.19 0 0 0 0-.15.21.21 0 0 0-.28 0 .16.16 0 0 0-.06.14.19.19 0 0 0 .06.14.21.21 0 0 0 .12.06zM20 28.36a.21.21 0 0 0 .14-.06.18.18 0 0 0 .06-.14.22.22 0 0 0-.03-.16.21.21 0 0 0-.28 0 .2.2 0 0 0-.06.15.23.23 0 0 0 .05.14.25.25 0 0 0 .12.07zM19.23 29.17a.2.2 0 0 0 .14-.06.21.21 0 0 0 .06-.11.22.22 0 0 0-.07-.15.2.2 0 0 0-.36.15.19.19 0 0 0 .06.14.18.18 0 0 0 .17.03zM18.42 30a.2.2 0 0 0 .15-.06.19.19 0 0 0 0-.28.2.2 0 0 0-.35.14.21.21 0 0 0 .06.14.19.19 0 0 0 .14.06zM17.62 30.77a.22.22 0 0 0 .14-.05.21.21 0 0 0 .06-.15.18.18 0 0 0-.06-.14.21.21 0 0 0-.28 0 .19.19 0 0 0 0 .28.19.19 0 0 0 .14.06zM16.81 31.58a.22.22 0 0 0 .19-.06.2.2 0 0 0 0-.29.21.21 0 0 0-.28 0 .19.19 0 0 0-.06.14.2.2 0 0 0 .06.15.22.22 0 0 0 .09.06zM16 32.39a.19.19 0 0 0 .14-.06.21.21 0 0 0 .06-.14.19.19 0 0 0-.05-.19.2.2 0 0 0-.34.14.22.22 0 0 0 .05.14.25.25 0 0 0 .14.11zM15.21 33.19a.19.19 0 0 0 .14-.06.2.2 0 0 0 .06-.13.22.22 0 0 0-.06-.14.2.2 0 0 0-.35.14.2.2 0 0 0 .05.14.2.2 0 0 0 .16.05zM14.4 34a.2.2 0 0 0 .21-.2.19.19 0 0 0-.07-.14.19.19 0 0 0-.28 0 .18.18 0 0 0-.06.13.23.23 0 0 0 .06.14.21.21 0 0 0 .14.07zM13.59 34.8a.19.19 0 0 0 .2-.19.2.2 0 1 0-.4 0 .17.17 0 0 0 .06.13.19.19 0 0 0 .14.06zM12.79 35.61a.19.19 0 0 0 .14-.06.2.2 0 0 0 0-.29.21.21 0 0 0-.28 0 .2.2 0 0 0 0 .29.21.21 0 0 0 .14.06zM43.37 1a.19.19 0 0 0 .14-.05.19.19 0 0 0 .06-.14.2.2 0 1 0-.4 0 .19.19 0 0 0 .06.14.21.21 0 0 0 .14.05zM42.57 1.81a.18.18 0 0 0 .14-.06.2.2 0 0 0 .06-.14.24.24 0 0 0-.06-.15.22.22 0 0 0-.29 0 .2.2 0 0 0-.05.14.21.21 0 0 0 .05.14.2.2 0 0 0 .15.07zM41.76 2.62a.21.21 0 0 0 .24-.2.22.22 0 0 0-.07-.15.22.22 0 0 0-.28 0 .21.21 0 0 0-.06.14.22.22 0 0 0 .06.14.22.22 0 0 0 .11.07zM41 3.42a.19.19 0 0 0 .15-.06.2.2 0 0 0 .05-.14.18.18 0 0 0-.06-.14.21.21 0 0 0-.28 0 .19.19 0 0 0 0 .28.19.19 0 0 0 .14.06zM40.15 4.22a.21.21 0 0 0 .14-.05.22.22 0 0 0 .06-.17.2.2 0 0 0-.35-.11.18.18 0 0 0 0 .11.2.2 0 0 0 .06.15.21.21 0 0 0 .09.07zM39.35 5a.19.19 0 0 0 .14 0 .2.2 0 0 0 .06-.14.2.2 0 0 0-.35-.14.2.2 0 0 0 0 .28.19.19 0 0 0 .15 0zM38.55 5.84a.21.21 0 0 0 .2-.2.22.22 0 0 0-.07-.15.21.21 0 0 0-.28 0 .2.2 0 0 0-.05.14.22.22 0 0 0 .05.14.22.22 0 0 0 .15.07zM37.74 6.64a.19.19 0 0 0 .15-.06.21.21 0 0 0 .06-.14.23.23 0 0 0-.06-.14.22.22 0 0 0-.29 0 .19.19 0 0 0-.06.14.2.2 0 0 0 .06.14.18.18 0 0 0 .14.06zM36.93 7.44a.2.2 0 0 0 .15-.06.2.2 0 0 0 .05-.14.19.19 0 0 0-.06-.14.2.2 0 0 0-.28 0 .2.2 0 0 0-.06.14.22.22 0 0 0 .05.14.22.22 0 0 0 .15.06zM36.13 8.24a.2.2 0 0 0 .14-.05.19.19 0 0 0 .06-.19.18.18 0 0 0-.06-.15.21.21 0 0 0-.28 0 .18.18 0 0 0-.06.14.21.21 0 0 0 .06.14.21.21 0 0 0 .14.11zM35.33 9.05a.21.21 0 0 0 .14-.05.18.18 0 0 0 .06-.14.21.21 0 0 0-.06-.15.2.2 0 0 0-.28 0 .18.18 0 0 0-.06.14.19.19 0 0 0 .06.14.21.21 0 0 0 .14.06zM34.52 9.86a.2.2 0 0 0 .14-.06.19.19 0 0 0 .06-.14.23.23 0 0 0-.06-.15.22.22 0 0 0-.29 0 .2.2 0 0 0-.05.14.18.18 0 0 0 .06.14.18.18 0 0 0 .14.07zM33.71 10.66a.21.21 0 0 0 .15-.06.21.21 0 0 0 .05-.14.21.21 0 0 0-.06-.15.21.21 0 0 0-.34.15.19.19 0 0 0 .06.14.21.21 0 0 0 .14.06zM32.91 11.46a.21.21 0 0 0 .14-.05.22.22 0 0 0 .06-.15.18.18 0 0 0-.06-.14.2.2 0 0 0-.28 0 .19.19 0 0 0-.06.14.21.21 0 0 0 .2.2zM32.11 12.27a.18.18 0 0 0 .14-.06.16.16 0 0 0 .06-.14.2.2 0 0 0-.06-.14.2.2 0 0 0-.34.14.19.19 0 0 0 .06.15.2.2 0 0 0 .14.05zM31.3 13.08a.19.19 0 0 0 .14-.08.2.2 0 0 0 .06-.14.18.18 0 0 0-.06-.14.2.2 0 0 0-.34.14.21.21 0 0 0 .06.14.18.18 0 0 0 .14.08zM30.5 13.88a.18.18 0 0 0 .14-.06.21.21 0 0 0 .06-.14.18.18 0 0 0-.06-.14.2.2 0 0 0-.28 0 .22.22 0 0 0-.06.15.18.18 0 0 0 .06.14.17.17 0 0 0 .14.05zM29.69 14.68a.19.19 0 0 0 .2-.2.21.21 0 0 0-.05-.14.21.21 0 0 0-.29 0 .2.2 0 0 0 0 .28.2.2 0 0 0 .14.06zM28.89 15.49a.2.2 0 0 0 .11-.06.21.21 0 0 0 .06-.15.18.18 0 0 0-.06-.14.21.21 0 0 0-.28 0 .21.21 0 0 0-.06.14.22.22 0 0 0 .05.14.23.23 0 0 0 .18.07zM28.08 16.29a.18.18 0 0 0 .14-.06.17.17 0 0 0 .06-.13.2.2 0 0 0-.06-.15.21.21 0 0 0-.28 0 .21.21 0 0 0-.06.15.19.19 0 0 0 .2.19zM27.28 17.1a.21.21 0 0 0 .14-.1.2.2 0 0 0 .06-.14.2.2 0 0 0-.35-.14.22.22 0 0 0-.05.14.24.24 0 0 0 .05.14.22.22 0 0 0 .15.1zM26.47 17.9a.2.2 0 0 0 .15-.06.2.2 0 0 0 .06-.14.2.2 0 1 0-.4 0 .2.2 0 0 0 .05.14.21.21 0 0 0 .14.06zM25.67 18.71a.21.21 0 0 0 .15-.06.21.21 0 0 0 .05-.14.19.19 0 0 0-.06-.14.21.21 0 0 0-.28 0 .21.21 0 0 0-.06.14.21.21 0 0 0 .2.2zM24.87 19.51a.18.18 0 0 0 .13-.06.19.19 0 0 0 .06-.14.19.19 0 0 0-.06-.14.2.2 0 0 0-.34.14.2.2 0 0 0 .06.14.18.18 0 0 0 .15.06zM24.06 20.32a.21.21 0 0 0 .2-.2.18.18 0 0 0-.06-.12.21.21 0 0 0-.28 0 .21.21 0 0 0-.06.15.2.2 0 0 0 .05.13.23.23 0 0 0 .15.04zM23.26 21.12a.19.19 0 0 0 .14-.06.21.21 0 0 0 .06-.14.24.24 0 0 0-.06-.15.21.21 0 0 0-.28 0 .21.21 0 0 0-.06.15.22.22 0 0 0 .05.14.21.21 0 0 0 .15.06zM22.45 21.92a.19.19 0 0 0 .15-.06.22.22 0 0 0 .05-.14.21.21 0 0 0-.05-.14.21.21 0 0 0-.29 0 .22.22 0 0 0-.06.14.22.22 0 0 0 .06.14.19.19 0 0 0 .14.06zM21.65 22.73a.18.18 0 0 0 .14-.06.19.19 0 0 0 .06-.14.18.18 0 0 0-.06-.14.21.21 0 0 0-.28 0 .21.21 0 0 0-.06.14.2.2 0 0 0 .06.14.2.2 0 0 0 .14.06zM20.84 23.53a.2.2 0 0 0 .16-.05.19.19 0 0 0 0-.14.2.2 0 0 0 0-.15.21.21 0 0 0-.28 0 .2.2 0 0 0-.06.15.19.19 0 0 0 .18.19zM20 24.34a.2.2 0 0 0 .14-.06.21.21 0 0 0 .06-.14.22.22 0 0 0-.01-.14.21.21 0 0 0-.29 0 .21.21 0 0 0-.06.15.24.24 0 0 0 .05.14.22.22 0 0 0 .11.05zM19.24 25.14a.19.19 0 0 0 .14-.07.18.18 0 0 0 .06-.13.22.22 0 0 0-.06-.15.21.21 0 0 0-.29 0 .2.2 0 0 0-.05.14.19.19 0 0 0 .06.14.2.2 0 0 0 .14.07zM18.43 25.95a.22.22 0 0 0 .14-.05.23.23 0 0 0 .07-.15.21.21 0 0 0-.06-.14.2.2 0 0 0-.35.14.19.19 0 0 0 .06.14.21.21 0 0 0 .14.06zM17.62 26.75a.19.19 0 0 0 .2-.2.19.19 0 0 0-.06-.14.21.21 0 0 0-.29 0 .19.19 0 0 0-.05.13.19.19 0 0 0 .06.14.19.19 0 0 0 .14.07zM16.82 27.55a.18.18 0 0 0 .18-.05.22.22 0 0 0 0-.15.2.2 0 0 0 0-.13.2.2 0 0 0-.29 0 .21.21 0 0 0-.06.14.2.2 0 0 0 .17.19zM16 28.36a.19.19 0 0 0 .14-.06.2.2 0 0 0 .06-.14.18.18 0 0 0-.04-.16.2.2 0 0 0-.28 0 .2.2 0 0 0-.06.15.21.21 0 0 0 .06.14.22.22 0 0 0 .12.07zM15.21 29.17a.23.23 0 0 0 .14-.05.22.22 0 0 0 .06-.12.19.19 0 0 0-.06-.14.2.2 0 0 0-.29 0A.21.21 0 0 0 15 29a.2.2 0 0 0 .21.17zM14.4 30a.22.22 0 0 0 .14-.05.2.2 0 0 0 .07-.15.19.19 0 0 0-.06-.14.2.2 0 0 0-.29 0 .2.2 0 0 0 0 .28.22.22 0 0 0 .14.06zM13.6 30.77a.18.18 0 0 0 .14-.06.17.17 0 0 0 .06-.14.18.18 0 0 0-.06-.14.21.21 0 0 0-.28 0 .21.21 0 0 0-.06.14.24.24 0 0 0 .06.15.2.2 0 0 0 .14.05zM12.8 31.58a.2.2 0 0 0 .14-.05.22.22 0 0 0 .06-.15.2.2 0 0 0-.35-.13.2.2 0 0 0-.05.13.22.22 0 0 0 .05.14.21.21 0 0 0 .15.06zM12 32.39a.19.19 0 0 0 .14-.06.19.19 0 0 0 .06-.14.24.24 0 0 0-.07-.19.22.22 0 0 0-.29 0 .2.2 0 0 0-.05.14.18.18 0 0 0 .06.14.21.21 0 0 0 .15.11zM11.19 33.19a.19.19 0 0 0 .14-.06.19.19 0 0 0 .06-.13.22.22 0 0 0-.06-.14.21.21 0 0 0-.29 0A.21.21 0 0 0 11 33a.22.22 0 0 0 .19.19zM10.38 34a.2.2 0 0 0 .15-.06.21.21 0 0 0 .06-.14.21.21 0 0 0-.06-.14.21.21 0 0 0-.29 0 .2.2 0 0 0-.05.14.2.2 0 0 0 .05.14.18.18 0 0 0 .14.06zM9.58 34.8a.18.18 0 0 0 .14-.05.22.22 0 0 0 .06-.15.23.23 0 0 0-.05-.14.22.22 0 0 0-.29 0 .19.19 0 0 0-.06.14.21.21 0 0 0 .06.15.22.22 0 0 0 .14.05zM8.77 35.61a.21.21 0 0 0 .14-.06.2.2 0 0 0 .09-.15.2.2 0 0 0-.06-.14.21.21 0 0 0-.28 0 .2.2 0 0 0 0 .28.21.21 0 0 0 .11.07zM39.36 1a.21.21 0 0 0 .14-.05.2.2 0 0 0 .06-.14.23.23 0 0 0-.06-.15.21.21 0 0 0-.28 0 .18.18 0 0 0-.06.14.23.23 0 0 0 .05.14.24.24 0 0 0 .15.06zM38.55 1.81a.19.19 0 0 0 .14-.06.18.18 0 0 0 .06-.14.2.2 0 0 0-.35-.14.2.2 0 0 0-.05.14.22.22 0 0 0 .05.14.21.21 0 0 0 .15.06zM37.74 2.62a.2.2 0 0 0 .15-.06.21.21 0 0 0 .11-.14.22.22 0 0 0-.07-.15.21.21 0 0 0-.28 0 .21.21 0 0 0-.06.14.22.22 0 0 0 .06.14.21.21 0 0 0 .09.07zM36.94 3.42a.2.2 0 0 0 .15-.06.2.2 0 0 0 .05-.14.18.18 0 0 0-.06-.14.2.2 0 0 0-.28 0 .21.21 0 0 0-.06.14.25.25 0 0 0 .06.15.21.21 0 0 0 .14.05zM36.14 4.22a.2.2 0 0 0 .14-.34.21.21 0 0 0-.28 0 .18.18 0 0 0-.06.13.21.21 0 0 0 .06.15.21.21 0 0 0 .14.06zM35.33 5a.19.19 0 0 0 .14 0 .2.2 0 0 0 .06-.14.2.2 0 0 0-.34-.14.17.17 0 0 0-.06.14.19.19 0 0 0 .06.14.18.18 0 0 0 .14 0zM34.53 5.84a.18.18 0 0 0 .14-.06.21.21 0 0 0 .06-.14.18.18 0 0 0-.06-.14.19.19 0 0 0-.28 0 .18.18 0 0 0-.06.14.21.21 0 0 0 .2.2zM33.72 6.64a.18.18 0 0 0 .15-.06.2.2 0 0 0 .05-.14.19.19 0 0 0-.06-.14.2.2 0 0 0-.28 0 .21.21 0 0 0-.06.14.18.18 0 0 0 .07.14.16.16 0 0 0 .13.06zM32.92 7.44a.2.2 0 0 0 .14-.05.21.21 0 0 0 .06-.15.18.18 0 0 0-.06-.14.2.2 0 0 0-.28 0 .18.18 0 0 0-.06.13.21.21 0 0 0 .06.15.22.22 0 0 0 .14.06zM32.11 8.25a.21.21 0 0 0 .14-.06.2.2 0 0 0 .06-.19.21.21 0 0 0-.06-.15.2.2 0 0 0-.28 0 .19.19 0 0 0-.06.14.19.19 0 0 0 .06.14.22.22 0 0 0 .14.12zM31.31 9.05a.19.19 0 0 0 .14-.05.16.16 0 0 0 .06-.13.21.21 0 0 0-.06-.15.21.21 0 0 0-.29 0 .2.2 0 0 0-.05.14.21.21 0 0 0 .06.14.21.21 0 0 0 .14.05zM30.51 9.86a.19.19 0 0 0 .14-.06.2.2 0 0 0 .06-.14.2.2 0 0 0-.07-.15.21.21 0 0 0-.28 0 .2.2 0 0 0-.05.14.18.18 0 0 0 .06.14.18.18 0 0 0 .14.07zM29.7 10.66a.2.2 0 0 0 .2-.2.2.2 0 0 0-.34-.14.2.2 0 0 0-.06.14.19.19 0 0 0 .06.14.2.2 0 0 0 .14.06zM28.9 11.46a.18.18 0 0 0 .1-.06.19.19 0 0 0 .06-.14.18.18 0 0 0-.06-.14.2.2 0 0 0-.28 0 .2.2 0 0 0-.06.14.21.21 0 0 0 .06.15.21.21 0 0 0 .18.05zM28.09 12.27a.2.2 0 0 0 .14-.06.19.19 0 0 0 .06-.14.2.2 0 0 0-.06-.15.21.21 0 0 0-.28 0 .21.21 0 0 0-.06.15.21.21 0 0 0 .2.2zM27.29 13.08a.18.18 0 0 0 .14-.08.2.2 0 0 0 .06-.14.18.18 0 0 0-.06-.14.2.2 0 0 0-.28 0 .21.21 0 0 0-.06.15.2.2 0 0 0 .06.14.18.18 0 0 0 .14.07zM26.49 13.88a.22.22 0 0 0 .2-.2.2.2 0 0 0-.34-.15.22.22 0 0 0-.06.15.23.23 0 0 0 .05.14.2.2 0 0 0 .15.06zM25.67 14.68a.2.2 0 0 0 .15-.34.21.21 0 0 0-.28 0 .2.2 0 0 0-.07.15.2.2 0 0 0 .06.14.2.2 0 0 0 .14.05zM24.87 15.49a.2.2 0 0 0 .13-.06.21.21 0 0 0 .05-.14.2.2 0 0 0-.05-.15.21.21 0 0 0-.28 0 .2.2 0 0 0-.06.14.19.19 0 0 0 .06.14.18.18 0 0 0 .15.07zM24.07 16.3a.19.19 0 0 0 .14-.06.2.2 0 0 0 .06-.14.2.2 0 0 0-.35-.1.19.19 0 0 0-.05.14.2.2 0 0 0 .06.14.21.21 0 0 0 .14.02zM23.27 17.1a.2.2 0 0 0 .2-.2.2.2 0 0 0-.06-.15.2.2 0 0 0-.28 0 .18.18 0 0 0-.06.14.2.2 0 0 0 .06.14.21.21 0 0 0 .14.07zM22.46 17.9a.19.19 0 0 0 .15-.06.21.21 0 0 0 .06-.14.22.22 0 0 0-.07-.15.21.21 0 0 0-.28 0 .2.2 0 0 0-.05.14.2.2 0 0 0 .06.15.18.18 0 0 0 .13.06zM21.65 18.71a.22.22 0 0 0 .14-.05.19.19 0 0 0 .06-.15.22.22 0 0 0-.05-.14.21.21 0 0 0-.29 0 .22.22 0 0 0-.06.14.19.19 0 0 0 .06.14.21.21 0 0 0 .14.06zM20.85 19.51a.21.21 0 0 0 .15-.06.19.19 0 0 0 0-.14.18.18 0 0 0 0-.14.21.21 0 0 0-.28 0 .2.2 0 0 0-.06.14.2.2 0 0 0 .06.15.2.2 0 0 0 .13.05zM20 20.31a.21.21 0 0 0 .14-.05.18.18 0 0 0 .06-.14.18.18 0 0 0-.01-.12.21.21 0 0 0-.28 0 .21.21 0 0 0-.06.15.2.2 0 0 0 .15.16zM19.24 21.12a.19.19 0 0 0 .14-.06.2.2 0 0 0 0-.29.22.22 0 0 0-.29 0 .2.2 0 0 0-.05.14.22.22 0 0 0 .05.14.21.21 0 0 0 .15.07zM18.44 21.92a.21.21 0 0 0 .13-.05.2.2 0 0 0 .07-.15.22.22 0 0 0-.06-.14.21.21 0 0 0-.29 0 .22.22 0 0 0-.06.14.2.2 0 0 0 .06.14.21.21 0 0 0 .15.06zM17.63 22.73a.22.22 0 0 0 .14-.05.21.21 0 0 0 .06-.15.18.18 0 0 0-.06-.14.21.21 0 0 0-.28 0 .19.19 0 0 0-.06.14.19.19 0 0 0 .06.14.2.2 0 0 0 .14.06zM16.83 23.54a.19.19 0 0 0 .17-.06.2.2 0 0 0 0-.29.21.21 0 0 0-.28 0 .2.2 0 0 0-.06.14.18.18 0 0 0 .06.14.18.18 0 0 0 .11.07zM16 24.34a.19.19 0 0 0 .14-.06.2.2 0 0 0 0-.29.21.21 0 0 0-.28 0 .17.17 0 0 0-.06.14.2.2 0 0 0 .06.14.21.21 0 0 0 .14.07zM15.22 25.14a.21.21 0 0 0 .2-.2.18.18 0 0 0-.06-.14.2.2 0 0 0-.28 0 .19.19 0 0 0-.06.14.22.22 0 0 0 .05.14.21.21 0 0 0 .15.06zM14.41 25.95a.22.22 0 0 0 .14-.05.23.23 0 0 0 .07-.15.22.22 0 0 0-.06-.14.21.21 0 0 0-.29 0 .22.22 0 0 0-.06.15.19.19 0 0 0 .06.14.21.21 0 0 0 .14.05zM13.61 26.75a.21.21 0 0 0 .14-.05.22.22 0 0 0 .06-.15.19.19 0 0 0-.06-.14.21.21 0 0 0-.29 0 .19.19 0 0 0-.05.13.2.2 0 0 0 .06.14.21.21 0 0 0 .14.07zM12.8 27.55a.18.18 0 0 0 .14-.05.22.22 0 0 0 .06-.15.24.24 0 0 0 0-.14.22.22 0 0 0-.29 0 .21.21 0 0 0-.06.14.21.21 0 0 0 .05.14.22.22 0 0 0 .1.06zM12 28.36a.21.21 0 0 0 .14-.06.2.2 0 0 0 .06-.14.21.21 0 0 0-.06-.16.2.2 0 0 0-.29 0 .2.2 0 0 0 0 .28.21.21 0 0 0 .15.08zM11.2 29.17a.21.21 0 0 0 .2-.2.2.2 0 1 0-.4 0 .18.18 0 0 0 .06.14.19.19 0 0 0 .14.06zM10.39 30a.22.22 0 0 0 .14-.05.21.21 0 0 0 .06-.15.2.2 0 0 0-.34-.14.19.19 0 0 0 0 .28.2.2 0 0 0 .14.06zM9.58 30.77a.19.19 0 0 0 .2-.2.23.23 0 0 0-.05-.14.21.21 0 0 0-.29 0 .19.19 0 0 0-.06.14.18.18 0 0 0 .06.14.19.19 0 0 0 .14.06zM8.78 31.58a.18.18 0 0 0 .14-.05.22.22 0 0 0 .08-.15.21.21 0 0 0-.06-.14.21.21 0 0 0-.29 0 .19.19 0 0 0-.05.13.19.19 0 0 0 .18.21zM8 32.39a.19.19 0 0 0 .14-.06.2.2 0 0 0 .06-.14.18.18 0 0 0-.08-.19.2.2 0 0 0-.29 0 .2.2 0 0 0-.05.14.19.19 0 0 0 .06.14.21.21 0 0 0 .16.11zM7.17 33.19a.22.22 0 0 0 .13-.05.2.2 0 0 0 0-.29.21.21 0 0 0-.29 0A.19.19 0 0 0 7 33a.19.19 0 0 0 .06.14.18.18 0 0 0 .11.05zM6.37 34a.21.21 0 0 0 .14-.05.2.2 0 0 0 .07-.15.19.19 0 0 0-.06-.14.21.21 0 0 0-.29 0 .19.19 0 0 0-.06.14.2.2 0 0 0 .06.14.21.21 0 0 0 .14.06zM5.56 34.8a.21.21 0 0 0 .2-.2.19.19 0 0 0-.06-.14.21.21 0 0 0-.28 0 .19.19 0 0 0-.06.14.18.18 0 0 0 .06.14.19.19 0 0 0 .14.06zM4.76 35.6a.21.21 0 0 0 .14-.05.22.22 0 0 0 .1-.15.2.2 0 0 0-.06-.14.21.21 0 0 0-.29 0 .2.2 0 0 0-.05.13.22.22 0 0 0 .05.14.21.21 0 0 0 .11.07zM35.34 1a.19.19 0 0 0 .14-.06.16.16 0 0 0 .06-.13.2.2 0 0 0-.34-.14.18.18 0 0 0-.06.14.18.18 0 0 0 .06.14.2.2 0 0 0 .14.05zM34.54 1.81a.2.2 0 0 0 .2-.2.19.19 0 0 0-.06-.14.19.19 0 0 0-.28 0 .2.2 0 0 0 0 .28.17.17 0 0 0 .14.06zM33.73 2.62a.21.21 0 0 0 .15-.06.19.19 0 0 0 .06-.14.2.2 0 0 0-.35-.14.21.21 0 0 0-.05.14.19.19 0 0 0 .19.2zM32.92 3.42a.2.2 0 0 0 .15-.06.2.2 0 0 0 .05-.14.18.18 0 0 0-.06-.14.21.21 0 0 0-.28 0 .19.19 0 0 0 0 .28.18.18 0 0 0 .14.06zM32.12 4.22a.21.21 0 0 0 .14-.05.2.2 0 0 0 .06-.17.18.18 0 0 0-.06-.14.21.21 0 0 0-.28 0 .18.18 0 0 0-.06.13.21.21 0 0 0 .06.15.22.22 0 0 0 .14.08zM31.32 5a.21.21 0 0 0 .14 0 .18.18 0 0 0 .06-.14.2.2 0 0 0-.06-.15.21.21 0 0 0-.28 0 .21.21 0 0 0-.06.15.19.19 0 0 0 .06.14.21.21 0 0 0 .14 0zM30.51 5.84a.2.2 0 0 0 .14-.06.19.19 0 0 0 0-.29.2.2 0 0 0-.27 0 .18.18 0 0 0-.06.14.19.19 0 0 0 .06.14.18.18 0 0 0 .13.07zM29.7 6.64a.19.19 0 0 0 .15-.06.2.2 0 0 0 .05-.14.2.2 0 0 0-.06-.15.2.2 0 0 0-.34.15.19.19 0 0 0 .06.14.2.2 0 0 0 .14.06zM28.9 7.44a.2.2 0 0 0 .1-.06.21.21 0 0 0 .05-.14.2.2 0 0 0-.05-.14.21.21 0 0 0-.28 0 .2.2 0 0 0-.06.14.19.19 0 0 0 .06.14.18.18 0 0 0 .18.06zM28.1 8.24a.19.19 0 0 0 .14-.05.19.19 0 0 0 .06-.19.19.19 0 0 0-.06-.15.21.21 0 0 0-.28 0 .2.2 0 0 0-.06.15.19.19 0 0 0 .05.13.19.19 0 0 0 .15.11zM27.29 9.05a.21.21 0 0 0 .2-.2.21.21 0 0 0-.06-.15.21.21 0 0 0-.29 0 .18.18 0 0 0-.05.14.19.19 0 0 0 .06.14.21.21 0 0 0 .14.07zM26.49 9.86a.18.18 0 0 0 .14-.06.2.2 0 0 0 .06-.14.2.2 0 0 0-.07-.15.21.21 0 0 0-.28 0 .21.21 0 0 0-.06.14.2.2 0 0 0 .07.14.17.17 0 0 0 .14.07zM25.68 10.66a.21.21 0 0 0 .15-.06.21.21 0 0 0 .05-.14.2.2 0 0 0-.34-.14.2.2 0 0 0 0 .28.19.19 0 0 0 .14.06zM24.88 11.46a.21.21 0 0 0 .2-.2.18.18 0 0 0-.08-.14.21.21 0 0 0-.29 0 .19.19 0 0 0-.05.13.19.19 0 0 0 .06.14.19.19 0 0 0 .16.07zM24.08 12.27a.18.18 0 0 0 .14-.06.2.2 0 0 0 .06-.14.21.21 0 0 0-.06-.15.2.2 0 0 0-.34.15.18.18 0 0 0 .06.13.19.19 0 0 0 .14.07zM23.27 13.08a.22.22 0 0 0 .14-.08.24.24 0 0 0 .06-.15.18.18 0 0 0-.06-.14.21.21 0 0 0-.29 0 .2.2 0 0 0-.05.14.23.23 0 0 0 .05.14.22.22 0 0 0 .15.09zM22.47 13.88a.2.2 0 0 0 .14-.06.2.2 0 0 0-.29-.28.2.2 0 0 0-.05.14.22.22 0 0 0 .05.14.21.21 0 0 0 .15.06zM21.66 14.68a.2.2 0 0 0 .15-.06.21.21 0 0 0 0-.28.21.21 0 0 0-.29 0 .19.19 0 0 0 0 .28.2.2 0 0 0 .14.06zM20.86 15.49a.19.19 0 0 0 .14-.06.2.2 0 0 0 .05-.14.19.19 0 0 0-.05-.15.21.21 0 0 0-.28 0 .18.18 0 0 0-.06.13.2.2 0 0 0 .07.15.17.17 0 0 0 .13.07zM20.05 16.3a.19.19 0 0 0 .14-.06.18.18 0 0 0 .06-.14.21.21 0 0 0-.06-.15.22.22 0 0 0-.29 0 .18.18 0 0 0-.05.14.19.19 0 0 0 .06.14.21.21 0 0 0 .14.07zM19.25 17.1a.21.21 0 0 0 .2-.2.2.2 0 0 0-.06-.15.21.21 0 0 0-.28 0 .22.22 0 0 0-.06.15.24.24 0 0 0 .05.14.23.23 0 0 0 .15.06zM18.44 17.9a.21.21 0 0 0 .15-.06.2.2 0 0 0 .06-.14.21.21 0 0 0-.06-.14.2.2 0 0 0-.29 0 .2.2 0 0 0-.05.14.19.19 0 0 0 .05.14.2.2 0 0 0 .14.06zM17.64 18.71a.2.2 0 0 0 .15-.06.19.19 0 0 0 .05-.14.18.18 0 0 0-.06-.14.21.21 0 0 0-.28 0 .18.18 0 0 0-.06.13.22.22 0 0 0 .07.15.18.18 0 0 0 .13.06zM16.83 19.51a.18.18 0 0 0 .17-.06.17.17 0 0 0 0-.14.18.18 0 0 0 0-.14.21.21 0 0 0-.28 0 .18.18 0 0 0-.06.13.21.21 0 0 0 .06.15.2.2 0 0 0 .11.06zM16 20.31a.22.22 0 0 0 .14-.05.2.2 0 0 0 0-.29.2.2 0 0 0-.28 0 .18.18 0 0 0-.06.13.19.19 0 0 0 .2.21zM15.23 21.12a.2.2 0 0 0 .14-.06.21.21 0 0 0 .06-.14.24.24 0 0 0-.06-.15.21.21 0 0 0-.29 0 .2.2 0 0 0-.05.14.23.23 0 0 0 .05.14.22.22 0 0 0 .15.07zM14.42 21.92a.19.19 0 0 0 .14-.06.21.21 0 0 0 .06-.14.22.22 0 0 0-.06-.14.21.21 0 0 0-.29 0 .22.22 0 0 0-.06.14.21.21 0 0 0 .21.2zM13.61 22.73a.19.19 0 0 0 .2-.2.19.19 0 0 0-.06-.14.21.21 0 0 0-.28 0 .2.2 0 0 0-.06.14.18.18 0 0 0 .06.14.19.19 0 0 0 .14.06zM12.81 23.54a.19.19 0 0 0 .19-.06.21.21 0 0 0 0-.15.2.2 0 0 0 0-.13.21.21 0 0 0-.29 0 .22.22 0 0 0-.06.14.21.21 0 0 0 .05.14.21.21 0 0 0 .11.06zM12 24.34a.19.19 0 0 0 .14-.06.2.2 0 0 0 .06-.14.21.21 0 0 0-.05-.14.21.21 0 0 0-.29 0 .22.22 0 0 0-.06.15.24.24 0 0 0 .05.14.22.22 0 0 0 .15.05zM11.2 25.14a.19.19 0 0 0 .14-.06.18.18 0 0 0 .06-.14.18.18 0 0 0-.06-.14.21.21 0 0 0-.29 0 .2.2 0 0 0-.05.14.18.18 0 0 0 .06.14.18.18 0 0 0 .14.06zM10.39 25.95a.2.2 0 0 0 .15-.06.21.21 0 0 0 .06-.14.21.21 0 0 0-.06-.14.21.21 0 0 0-.29 0 .2.2 0 0 0 .14.34zM9.59 26.75a.21.21 0 0 0 .14-.05.22.22 0 0 0 .06-.15.23.23 0 0 0-.05-.14.21.21 0 0 0-.35.14.2.2 0 0 0 .06.14.21.21 0 0 0 .14.06zM8.79 27.55a.19.19 0 0 0 .14-.05.22.22 0 0 0 .07-.15.21.21 0 0 0-.06-.14.2.2 0 0 0-.28 0 .16.16 0 0 0-.06.13.19.19 0 0 0 .19.21zM8 28.36a.18.18 0 0 0 .14-.06.21.21 0 0 0 .06-.14.18.18 0 0 0-.07-.16.2.2 0 0 0-.29 0 .2.2 0 0 0-.05.14.23.23 0 0 0 .05.14.21.21 0 0 0 .16.08zM7.18 29.17a.21.21 0 0 0 .2-.2.19.19 0 0 0-.06-.14.2.2 0 0 0-.29 0A.21.21 0 0 0 7 29a.21.21 0 0 0 .05.14.2.2 0 0 0 .13.03zM6.37 30a.21.21 0 0 0 .15-.06.2.2 0 1 0-.29 0 .19.19 0 0 0 .14.06zM5.57 30.77a.22.22 0 0 0 .14-.05.22.22 0 0 0 .06-.15.23.23 0 0 0-.05-.14.21.21 0 0 0-.29 0 .19.19 0 0 0-.06.14.19.19 0 0 0 .06.14.21.21 0 0 0 .14.06zM4.76 31.58a.21.21 0 0 0 .15-.06.19.19 0 0 0 .09-.14.18.18 0 0 0-.06-.14.21.21 0 0 0-.28 0 .21.21 0 0 0 0 .29.22.22 0 0 0 .1.05zM4 32.39a.19.19 0 0 0 .14-.06.19.19 0 0 0 .06-.14.2.2 0 0 0-.38-.19.2.2 0 0 0-.06.15.18.18 0 0 0 .06.14.2.2 0 0 0 .18.1zM3.16 33.19a.18.18 0 0 0 .13-.06.19.19 0 0 0 .07-.13.22.22 0 0 0-.06-.14.21.21 0 0 0-.29 0A.2.2 0 0 0 3 33a.22.22 0 0 0 .05.14.21.21 0 0 0 .11.05zM2.35 34a.21.21 0 0 0 .15-.06.2.2 0 0 0 .05-.14.18.18 0 0 0-.06-.14.21.21 0 0 0-.28 0 .22.22 0 0 0-.06.14.2.2 0 0 0 .06.14.22.22 0 0 0 .14.06zM1.55 34.8a.2.2 0 0 0 .14-.05.21.21 0 0 0 .06-.14.21.21 0 0 0-.06-.15.21.21 0 0 0-.28 0 .18.18 0 0 0-.06.14.2.2 0 0 0 .06.14.22.22 0 0 0 .14.06zM.74 35.61a.21.21 0 0 0 .14-.06.22.22 0 0 0 .06-.15.2.2 0 0 0-.06-.14.21.21 0 0 0-.29 0 .2.2 0 0 0-.05.13.2.2 0 0 0 .2.22zM0 36.41a.19.19 0 0 0 .15-.07.18.18 0 0 0 .05-.13.18.18 0 0 0-.06-.15.21.21 0 0 0-.28 0 .21.21 0 0 0-.06.14.22.22 0 0 0 .06.14.19.19 0 0 0 .14.07zM31.32 1a.19.19 0 0 0 .14-.06.17.17 0 0 0 .06-.13.21.21 0 0 0-.06-.15.22.22 0 0 0-.29 0 .18.18 0 0 0-.05.14.18.18 0 0 0 .06.14.21.21 0 0 0 .14.06zM30.52 1.81a.21.21 0 0 0 .2-.2.18.18 0 0 0-.06-.14.19.19 0 0 0-.28 0 .2.2 0 0 0 0 .28.17.17 0 0 0 .14.06zM29.71 2.62a.19.19 0 0 0 .15-.06.21.21 0 0 0 .06-.14.21.21 0 0 0-.06-.14.21.21 0 0 0-.28 0 .2.2 0 0 0 0 .29.19.19 0 0 0 .13.05zM28.91 3.42a.2.2 0 0 0 .15-.06.2.2 0 0 0 .05-.14.18.18 0 0 0-.11-.14.2.2 0 0 0-.28 0 .18.18 0 0 0-.06.13.18.18 0 0 0 .06.14.19.19 0 0 0 .19.07zM28.1 4.22a.2.2 0 0 0 .14-.05.2.2 0 0 0 .07-.17.18.18 0 0 0-.06-.14.21.21 0 0 0-.28 0 .21.21 0 0 0-.07.14.22.22 0 0 0 .05.14.21.21 0 0 0 .15.08zM27.3 5a.19.19 0 0 0 .14 0 .16.16 0 0 0 .06-.13.23.23 0 0 0-.06-.15.22.22 0 0 0-.29 0 .2.2 0 0 0 0 .28.21.21 0 0 0 .15 0zM26.5 5.84a.21.21 0 0 0 .14-.06.2.2 0 0 0 .06-.14.25.25 0 0 0-.06-.15.21.21 0 0 0-.28 0 .18.18 0 0 0-.06.14.23.23 0 0 0 .05.14.22.22 0 0 0 .15.07zM25.69 6.64a.22.22 0 0 0 .14-.05.22.22 0 0 0 .06-.15.21.21 0 0 0-.05-.14.22.22 0 0 0-.29 0 .21.21 0 0 0-.06.14.19.19 0 0 0 .06.14.21.21 0 0 0 .14.06zM24.89 7.44a.19.19 0 0 0 .2-.2.19.19 0 0 0-.09-.14.21.21 0 0 0-.28 0 .2.2 0 0 0 0 .29.18.18 0 0 0 .17.05zM24.08 8.25a.21.21 0 0 0 .15-.07.18.18 0 0 0 .05-.18.19.19 0 0 0-.06-.15.21.21 0 0 0-.28 0 .21.21 0 0 0-.06.15.18.18 0 0 0 .06.13.2.2 0 0 0 .14.12zM23.28 9.05a.21.21 0 0 0 .14-.05.19.19 0 0 0 .06-.14.2.2 0 0 0-.06-.15.21.21 0 0 0-.28 0 .22.22 0 0 0-.06.15.2.2 0 0 0 .05.13.21.21 0 0 0 .15.06zM22.48 9.86a.19.19 0 0 0 .14-.06.22.22 0 0 0 .06-.14.21.21 0 0 0-.06-.14.21.21 0 0 0-.28 0 .23.23 0 0 0-.07.15.22.22 0 0 0 .06.14.21.21 0 0 0 .15.05zM21.67 10.66a.2.2 0 0 0 .15-.06.21.21 0 0 0 0-.28.21.21 0 0 0-.29 0 .2.2 0 0 0 .14.34zM20.86 11.46a.22.22 0 0 0 .14-.05.21.21 0 0 0 .06-.15.19.19 0 0 0-.06-.14.2.2 0 0 0-.28 0 .2.2 0 0 0-.06.14.21.21 0 0 0 .05.14.22.22 0 0 0 .15.06zM20.06 12.27a.19.19 0 0 0 .14-.06.2.2 0 0 0 0-.28.2.2 0 0 0-.35.14.18.18 0 0 0 .06.13.18.18 0 0 0 .15.07zM19.26 13.08a.2.2 0 0 0 .14-.08.16.16 0 0 0 .06-.13.23.23 0 0 0-.06-.15.21.21 0 0 0-.29 0 .19.19 0 0 0-.05.14.18.18 0 0 0 .06.14.21.21 0 0 0 .14.08zM18.45 13.88a.19.19 0 0 0 .14-.06.19.19 0 0 0 .06-.14.18.18 0 0 0-.06-.14.2.2 0 0 0-.28 0 .22.22 0 0 0-.06.15.23.23 0 0 0 .05.14.19.19 0 0 0 .15.05zM17.64 14.68a.21.21 0 0 0 .15-.06.19.19 0 0 0 0-.28.21.21 0 0 0-.29 0 .22.22 0 0 0-.06.14.21.21 0 0 0 .2.2zM16.84 15.49a.21.21 0 0 0 .16-.06.22.22 0 0 0 0-.14.24.24 0 0 0 0-.15.22.22 0 0 0-.29 0 .21.21 0 0 0-.06.14.2.2 0 0 0 .06.14.21.21 0 0 0 .13.07zM16 16.29a.21.21 0 0 0 .14-.05.19.19 0 0 0 .06-.15.18.18 0 0 0-.06-.14.22.22 0 0 0-.29 0 .19.19 0 0 0-.05.13.2.2 0 0 0 .06.15.2.2 0 0 0 .14.06zM15.23 17.1a.21.21 0 0 0 .2-.2.18.18 0 0 0-.06-.14.2.2 0 0 0-.34.14.22.22 0 0 0 .05.14.21.21 0 0 0 .15.06zM14.43 17.9a.2.2 0 0 0 .2-.2.21.21 0 0 0-.06-.14.21.21 0 0 0-.29 0 .2.2 0 0 0-.05.14.21.21 0 0 0 .05.14.22.22 0 0 0 .15.06zM13.62 18.71a.2.2 0 0 0 .2-.2.22.22 0 0 0-.05-.14.21.21 0 0 0-.29 0 .2.2 0 0 0-.06.14.18.18 0 0 0 .06.14.2.2 0 0 0 .14.06zM12.82 19.51a.21.21 0 0 0 .18-.05.21.21 0 0 0 0-.15.19.19 0 0 0 0-.14.21.21 0 0 0-.28 0 .19.19 0 0 0-.06.14.21.21 0 0 0 .06.15.21.21 0 0 0 .1.05zM12 20.32a.19.19 0 0 0 .14-.06.22.22 0 0 0 .06-.14.21.21 0 0 0-.05-.12.21.21 0 0 0-.28 0 .18.18 0 0 0-.06.15.19.19 0 0 0 .06.14.22.22 0 0 0 .13.03zM11.21 21.12a.19.19 0 0 0 .14-.06.22.22 0 0 0 .06-.14.18.18 0 0 0-.06-.14.2.2 0 0 0-.28 0 .21.21 0 0 0-.06.15.19.19 0 0 0 .06.14.21.21 0 0 0 .14.05zM10.41 21.92a.19.19 0 0 0 .14-.06.2.2 0 0 0 .06-.14.2.2 0 1 0-.4 0 .2.2 0 0 0 .2.2zM9.6 22.73a.21.21 0 0 0 .15-.06.21.21 0 0 0 .05-.14.22.22 0 0 0-.05-.14.21.21 0 0 0-.29 0 .17.17 0 0 0-.06.13.21.21 0 0 0 .07.15.18.18 0 0 0 .13.06zM8.79 23.53a.2.2 0 0 0 .14-.05.2.2 0 0 0 0-.29.2.2 0 0 0-.28 0 .17.17 0 0 0-.06.13.19.19 0 0 0 .06.15.21.21 0 0 0 .14.06zM8 24.34a.21.21 0 0 0 .14-.05.2.2 0 0 0 .06-.14.2.2 0 0 0-.07-.15.21.21 0 0 0-.28 0 .21.21 0 0 0-.06.15.21.21 0 0 0 .06.14.21.21 0 0 0 .15.05zM7.19 25.14a.2.2 0 0 0 .2-.2.19.19 0 0 0-.06-.14.2.2 0 0 0-.34.14.22.22 0 0 0 .05.14.21.21 0 0 0 .15.06zM6.38 25.95a.22.22 0 0 0 .14-.05.2.2 0 0 0 0-.29.2.2 0 0 0-.29 0 .2.2 0 0 0 0 .28.21.21 0 0 0 .15.06zM5.58 26.75a.19.19 0 0 0 .2-.2.18.18 0 0 0-.06-.14.21.21 0 0 0-.28 0 .18.18 0 0 0-.06.14.19.19 0 0 0 .06.14.2.2 0 0 0 .14.06zM4.77 27.55a.21.21 0 0 0 .14-.05.21.21 0 0 0 .09-.14.24.24 0 0 0-.05-.15.2.2 0 0 0-.35.15.2.2 0 0 0 .06.14.2.2 0 0 0 .11.05zM4 28.36a.21.21 0 0 0 .14-.06.2.2 0 0 0 .06-.14.19.19 0 0 0-.09-.16.2.2 0 0 0-.28 0 .21.21 0 0 0-.06.15.19.19 0 0 0 .06.14.21.21 0 0 0 .17.07zM3.17 29.17a.19.19 0 0 0 .14-.06.21.21 0 0 0 .06-.11.18.18 0 0 0-.06-.14A.2.2 0 0 0 3 29a.2.2 0 0 0 .05.14.2.2 0 0 0 .12.03zM2.36 30a.22.22 0 0 0 .14-.05.21.21 0 0 0 .07-.15.2.2 0 0 0-.35-.14.19.19 0 0 0 0 .28.2.2 0 0 0 .14.06zM1.55 30.77a.21.21 0 0 0 .15-.06.2.2 0 0 0 .05-.14.22.22 0 0 0-.05-.14.22.22 0 0 0-.29 0 .19.19 0 0 0-.06.14.18.18 0 0 0 .06.14.19.19 0 0 0 .14.06zM.75 31.58a.2.2 0 0 0 .2-.2.19.19 0 0 0-.06-.14.22.22 0 0 0-.28 0 .2.2 0 0 0-.06.14.21.21 0 0 0 .06.15.21.21 0 0 0 .14.05zM-.05 32.39a.2.2 0 0 0 .14-.06.2.2 0 0 0 .06-.14.21.21 0 0 0-.06-.19.21.21 0 0 0-.29 0 .21.21 0 0 0-.05.14.23.23 0 0 0 .05.14.22.22 0 0 0 .15.11zM27.31 1a.18.18 0 0 0 .14-.06.17.17 0 0 0 .06-.13.19.19 0 0 0-.06-.15.2.2 0 0 0-.28 0 .22.22 0 0 0-.06.15.21.21 0 0 0 .05.13.21.21 0 0 0 .15.06zM26.5 1.81a.18.18 0 0 0 .14-.06.19.19 0 0 0 .06-.14.18.18 0 0 0-.06-.14.21.21 0 0 0-.28 0 .22.22 0 0 0-.06.15.23.23 0 0 0 .05.14.19.19 0 0 0 .15.05zM25.7 2.62a.2.2 0 0 0 .14-.06.21.21 0 0 0 .06-.14.19.19 0 0 0-.07-.14.21.21 0 0 0-.28 0 .21.21 0 0 0-.06.14.21.21 0 0 0 .21.2zM24.89 3.42a.19.19 0 0 0 .11-.06.19.19 0 0 0 .05-.14.18.18 0 0 0-.05-.14.19.19 0 0 0-.28 0 .18.18 0 0 0-.06.13.22.22 0 0 0 .07.15.18.18 0 0 0 .16.06zM24.09 4.22a.2.2 0 0 0 .14-.05.2.2 0 0 0 .06-.17.18.18 0 0 0-.06-.14.21.21 0 0 0-.28 0 .17.17 0 0 0-.06.13.21.21 0 0 0 .06.15.21.21 0 0 0 .14.08zM23.29 5a.21.21 0 0 0 .14 0 .19.19 0 0 0 .06-.14.19.19 0 0 0-.06-.14.2.2 0 0 0-.34.14.19.19 0 0 0 .06.14.21.21 0 0 0 .14 0zM22.48 5.84a.18.18 0 0 0 .14-.06.21.21 0 0 0 .06-.14.23.23 0 0 0-.06-.15.22.22 0 0 0-.29 0 .19.19 0 0 0-.05.14.18.18 0 0 0 .06.14.17.17 0 0 0 .14.07zM21.67 6.64a.22.22 0 0 0 .14-.05.22.22 0 0 0 .07-.15.21.21 0 0 0-.06-.14.22.22 0 0 0-.29 0 .19.19 0 0 0-.06.14.19.19 0 0 0 .06.14.21.21 0 0 0 .14.06zM20.87 7.44a.2.2 0 0 0 .13-.05.21.21 0 0 0 .06-.15.19.19 0 0 0-.06-.14.2.2 0 0 0-.28 0 .19.19 0 0 0-.06.14.18.18 0 0 0 .06.14.19.19 0 0 0 .15.06zM20.07 8.24a.2.2 0 0 0 .14-.05.19.19 0 0 0 .06-.19.18.18 0 0 0-.06-.15.21.21 0 0 0-.28 0 .21.21 0 0 0-.06.15.2.2 0 0 0 .06.14.2.2 0 0 0 .14.1zM19.26 9.05A.22.22 0 0 0 19.4 9a.18.18 0 0 0 .06-.14.18.18 0 0 0-.06-.15.2.2 0 0 0-.34.15.2.2 0 0 0 .06.14.21.21 0 0 0 .14.05zM18.46 9.86a.21.21 0 0 0 .2-.2.2.2 0 0 0-.07-.15.21.21 0 0 0-.28 0 .19.19 0 0 0-.05.14.18.18 0 0 0 .06.14.19.19 0 0 0 .14.07zM17.65 10.66a.22.22 0 0 0 .14-.05.2.2 0 0 0 .06-.15.2.2 0 0 0-.05-.14.2.2 0 0 0-.29 0 .19.19 0 0 0 0 .28.21.21 0 0 0 .14.06zM16.85 11.46a.2.2 0 0 0 .15-.05.22.22 0 0 0 0-.15.23.23 0 0 0 0-.14.21.21 0 0 0-.29 0 .19.19 0 0 0-.06.14.21.21 0 0 0 .2.2zM16 12.27a.2.2 0 0 0 .14-.05.18.18 0 0 0 .06-.14.2.2 0 0 0-.06-.15.21.21 0 0 0-.28 0 .19.19 0 0 0-.06.14.18.18 0 0 0 .06.14.2.2 0 0 0 .14.06zM15.24 13.08a.19.19 0 0 0 .14-.08.2.2 0 0 0 .06-.14.19.19 0 0 0-.06-.14.2.2 0 0 0-.29 0 .21.21 0 0 0-.05.14.23.23 0 0 0 .05.14.22.22 0 0 0 .15.08zM14.44 13.88a.22.22 0 0 0 .14-.05.22.22 0 0 0 .06-.15.19.19 0 0 0-.06-.14.21.21 0 0 0-.29 0 .2.2 0 0 0 .15.34zM13.63 14.68a.21.21 0 0 0 .15-.06.19.19 0 0 0 0-.28.22.22 0 0 0-.29 0 .22.22 0 0 0-.06.14.19.19 0 0 0 .06.14.2.2 0 0 0 .14.06zM12.82 15.49a.2.2 0 0 0 .18-.06.21.21 0 0 0 0-.14.22.22 0 0 0 0-.15.22.22 0 0 0-.29 0 .2.2 0 0 0-.06.14.19.19 0 0 0 .06.14.2.2 0 0 0 .11.07zM12 16.29a.2.2 0 0 0 .2-.2.2.2 0 0 0-.06-.14.21.21 0 0 0-.29 0 .2.2 0 0 0 0 .27.2.2 0 0 0 .15.07zM11.22 17.1a.2.2 0 0 0 .14-.1.21.21 0 0 0 .06-.14.18.18 0 0 0-.06-.14.21.21 0 0 0-.29 0 .19.19 0 0 0-.05.14.18.18 0 0 0 .06.14.2.2 0 0 0 .14.1zM10.41 17.9a.2.2 0 0 0 .14-.05.21.21 0 0 0 .07-.15.2.2 0 0 0-.06-.14.2.2 0 0 0-.29 0 .2.2 0 0 0-.05.14.2.2 0 0 0 .05.14.2.2 0 0 0 .14.06zM9.6 18.71a.2.2 0 0 0 .15-.06.2.2 0 0 0 .05-.14.2.2 0 0 0-.34-.14.21.21 0 0 0-.06.14.21.21 0 0 0 .07.15.18.18 0 0 0 .13.05zM8.8 19.51a.18.18 0 0 0 .14-.06.2.2 0 0 0 .06-.14.19.19 0 0 0-.06-.14.2.2 0 0 0-.28 0 .19.19 0 0 0-.06.14.2.2 0 0 0 .06.14.19.19 0 0 0 .14.06zM8 20.31a.21.21 0 0 0 .14-.05.2.2 0 0 0 .06-.14.21.21 0 0 0-.06-.12.21.21 0 0 0-.28 0 .21.21 0 0 0-.06.15.2.2 0 0 0 .05.13.21.21 0 0 0 .15.03zM7.2 21.12a.21.21 0 0 0 .2-.2.19.19 0 0 0-.06-.14.2.2 0 0 0-.28 0 .22.22 0 0 0-.06.15.23.23 0 0 0 .05.14.22.22 0 0 0 .15.05zM6.39 21.92a.2.2 0 0 0 .2-.2.22.22 0 0 0-.06-.14.21.21 0 0 0-.29 0 .22.22 0 0 0-.06.14.19.19 0 0 0 .06.14.21.21 0 0 0 .15.06zM5.58 22.73a.21.21 0 0 0 .15-.06.21.21 0 0 0 .05-.14.2.2 0 0 0-.34-.14.22.22 0 0 0-.06.14.21.21 0 0 0 .06.14.2.2 0 0 0 .14.06zM4.78 23.53a.2.2 0 0 0 .14-.05.2.2 0 0 0 0-.29.2.2 0 0 0-.28 0 .18.18 0 0 0-.06.13.19.19 0 0 0 .07.15.17.17 0 0 0 .13.06zM4 24.34a.19.19 0 0 0 .14-.06.2.2 0 0 0 .06-.14.2.2 0 0 0-.08-.14.21.21 0 0 0-.29 0 .2.2 0 0 0-.05.14.2.2 0 0 0 .05.13.19.19 0 0 0 .17.07zM3.17 25.14a.19.19 0 0 0 .14-.06.2.2 0 0 0 .06-.14.19.19 0 0 0-.06-.14.22.22 0 0 0-.29 0 .21.21 0 0 0-.05.14.22.22 0 0 0 .05.14.21.21 0 0 0 .15.06zM2.36 25.95a.22.22 0 0 0 .14-.05.22.22 0 0 0 .07-.15.2.2 0 0 0-.35-.14.21.21 0 0 0-.06.14.19.19 0 0 0 .06.14.21.21 0 0 0 .14.06zM1.56 26.75a.22.22 0 0 0 .14-.05.22.22 0 0 0 .06-.15.21.21 0 0 0-.05-.14.21.21 0 0 0-.29 0 .19.19 0 0 0 0 .28.19.19 0 0 0 .14.06zM.76 27.55a.21.21 0 0 0 .14-.05.21.21 0 0 0 .1-.14.22.22 0 0 0-.1-.15.21.21 0 0 0-.29 0 .2.2 0 0 0-.05.14.18.18 0 0 0 .06.14.2.2 0 0 0 .14.06zM0 28.36a.19.19 0 0 0 .09-.06.16.16 0 0 0 .06-.13.21.21 0 0 0-.06-.17.21.21 0 0 0-.29 0 .2.2 0 0 0-.05.14.2.2 0 0 0 .06.14.18.18 0 0 0 .19.08zM23.29 1a.19.19 0 0 0 .14-.05.19.19 0 0 0 .06-.14.19.19 0 0 0-.06-.15.22.22 0 0 0-.29 0 .21.21 0 0 0-.05.14.23.23 0 0 0 .05.14.22.22 0 0 0 .15.06zM22.49 1.81a.2.2 0 0 0 .14-.06.2.2 0 0 0 .06-.14.18.18 0 0 0-.06-.14.21.21 0 0 0-.28 0 .21.21 0 0 0-.06.15.21.21 0 0 0 .05.14.22.22 0 0 0 .15.05zM21.69 2.62a.2.2 0 0 0 .13-.05.21.21 0 0 0 .07-.15.2.2 0 0 0-.35-.14.21.21 0 0 0-.06.14.22.22 0 0 0 .06.14.21.21 0 0 0 .15.06zM20.88 3.42a.22.22 0 0 0 .12-.05.19.19 0 0 0 .06-.15.17.17 0 0 0-.06-.14.2.2 0 0 0-.35.13.19.19 0 0 0 .06.14.2.2 0 0 0 .17.07zM20.07 4.22a.22.22 0 0 0 .14-.05.21.21 0 0 0 .06-.17.22.22 0 0 0-.05-.14.21.21 0 0 0-.29 0 .2.2 0 0 0-.06.14.18.18 0 0 0 .06.14.2.2 0 0 0 .14.08zM19.27 5a.22.22 0 0 0 .14 0 .18.18 0 0 0 .06-.14.22.22 0 0 0-.06-.15.2.2 0 0 0-.28 0 .18.18 0 0 0-.06.14.23.23 0 0 0 .05.14.24.24 0 0 0 .15.01zM18.47 5.84a.21.21 0 0 0 .2-.2.18.18 0 0 0-.06-.14.19.19 0 0 0-.28 0 .18.18 0 0 0-.06.14.2.2 0 0 0 .06.14.18.18 0 0 0 .14.06zM17.66 6.64a.21.21 0 0 0 .21-.2.2.2 0 0 0-.07-.14.21.21 0 0 0-.29 0 .19.19 0 0 0-.06.14.19.19 0 0 0 .06.14.19.19 0 0 0 .15.06zM16.85 7.44a.2.2 0 0 0 .2-.2.18.18 0 0 0-.05-.14.21.21 0 0 0-.28 0 .18.18 0 0 0-.06.13.22.22 0 0 0 .07.15.18.18 0 0 0 .12.06zM16 8.24a.2.2 0 0 0 .25-.24.2.2 0 0 0-.06-.15.2.2 0 0 0-.34.15.21.21 0 0 0 .06.14.2.2 0 0 0 .09.1zM15.25 9.05a.21.21 0 0 0 .14-.05.21.21 0 0 0 .06-.14.19.19 0 0 0-.06-.14.2.2 0 0 0-.28 0 .22.22 0 0 0-.06.15.23.23 0 0 0 .05.13.23.23 0 0 0 .15.05zM14.44 9.86a.21.21 0 0 0 .2-.2.21.21 0 0 0-.06-.14.21.21 0 0 0-.29 0 .2.2 0 0 0-.05.14.22.22 0 0 0 .05.14.21.21 0 0 0 .15.06zM13.63 10.66a.2.2 0 0 0 .15-.06.22.22 0 0 0 .05-.14.2.2 0 0 0-.05-.14.2.2 0 0 0-.35.14.21.21 0 0 0 .2.2zM12.83 11.46a.22.22 0 0 0 .17-.05.21.21 0 0 0 0-.29.21.21 0 0 0-.29 0 .2.2 0 0 0-.06.14.22.22 0 0 0 .05.14.22.22 0 0 0 .13.06zM12 12.27a.2.2 0 0 0 .14-.05.19.19 0 0 0 .06-.14.2.2 0 0 0-.35-.14.21.21 0 0 0-.05.14.19.19 0 0 0 .06.14.2.2 0 0 0 .14.05zM11.22 13.08a.19.19 0 0 0 .14-.08.2.2 0 0 0 0-.28.2.2 0 0 0-.29 0 .18.18 0 0 0-.06.14.2.2 0 0 0 .06.14.18.18 0 0 0 .15.08zM10.42 13.88a.21.21 0 0 0 .2-.2.18.18 0 0 0-.06-.14.21.21 0 0 0-.29 0 .2.2 0 0 0-.05.14.22.22 0 0 0 .05.14.2.2 0 0 0 .15.06zM9.61 14.68a.22.22 0 0 0 .14-.05.23.23 0 0 0 .07-.15.22.22 0 0 0-.06-.14.22.22 0 0 0-.29 0 .22.22 0 0 0-.06.14.19.19 0 0 0 .06.14.21.21 0 0 0 .14.06zM8.81 15.49a.21.21 0 0 0 .19-.06.21.21 0 0 0 0-.14.22.22 0 0 0 0-.15.22.22 0 0 0-.29 0 .21.21 0 0 0-.06.14.19.19 0 0 0 .06.14.2.2 0 0 0 .1.07zM8 16.3a.2.2 0 0 0 .14-.06.2.2 0 0 0 .06-.14.18.18 0 0 0-.05-.1.2.2 0 0 0-.28 0 .21.21 0 0 0-.06.15.19.19 0 0 0 .06.14.21.21 0 0 0 .13.01zM7.2 17.1a.2.2 0 0 0 .14-.1.23.23 0 0 0 .06-.1.24.24 0 0 0-.06-.15.22.22 0 0 0-.29 0 .19.19 0 0 0-.05.15.18.18 0 0 0 .06.14.2.2 0 0 0 .14.06zM6.4 17.9a.2.2 0 0 0 .13-.05.2.2 0 0 0 .07-.15.19.19 0 0 0-.06-.14.21.21 0 0 0-.29 0 .22.22 0 0 0-.05.14.21.21 0 0 0 .05.14.22.22 0 0 0 .15.06zM5.59 18.71a.2.2 0 0 0 .2-.2.22.22 0 0 0-.05-.14.21.21 0 0 0-.29 0 .19.19 0 0 0-.06.13.18.18 0 0 0 .06.14.19.19 0 0 0 .14.07zM4.79 19.51a.18.18 0 0 0 .14-.06.19.19 0 0 0 .07-.14.19.19 0 0 0-.06-.14.21.21 0 0 0-.28 0 .19.19 0 0 0-.06.14.19.19 0 0 0 .06.14.19.19 0 0 0 .13.06zM4 20.32a.19.19 0 0 0 .14-.06.2.2 0 0 0 0-.29.2.2 0 0 0-.34.14.22.22 0 0 0 .05.14.2.2 0 0 0 .15.07zM3.18 21.12a.2.2 0 0 0 .14-.34.2.2 0 0 0-.34.14.18.18 0 0 0 .06.14.2.2 0 0 0 .14.06zM2.38 21.92a.18.18 0 0 0 .14-.06.2.2 0 0 0 .05-.14.21.21 0 0 0-.06-.15.22.22 0 0 0-.28 0 .21.21 0 0 0-.06.14.22.22 0 0 0 .06.14.2.2 0 0 0 .15.07zM1.57 22.73a.2.2 0 0 0 .2-.2.24.24 0 0 0-.05-.14.21.21 0 0 0-.29 0 .2.2 0 0 0-.06.14.19.19 0 0 0 .06.14.2.2 0 0 0 .14.06zM.76 23.53a.19.19 0 0 0 .15-.06.19.19 0 0 0 .09-.14.19.19 0 0 0-.1-.14.21.21 0 0 0-.28 0 .2.2 0 0 0 0 .29.21.21 0 0 0 .14.05zM0 24.34a.21.21 0 0 0 .1-.06.21.21 0 0 0 .06-.14.21.21 0 0 0-.05-.14.21.21 0 0 0-.29 0 .22.22 0 0 0-.06.15.21.21 0 0 0 .06.14.21.21 0 0 0 .18.05zM19.28 1a.19.19 0 0 0 .14-.05.2.2 0 0 0 .06-.14.19.19 0 0 0-.06-.14.2.2 0 0 0-.28 0 .21.21 0 0 0-.06.15.22.22 0 0 0 .05.14.24.24 0 0 0 .15.04zM18.47 1.81a.19.19 0 0 0 .14-.06.18.18 0 0 0 .06-.14.24.24 0 0 0-.06-.15.22.22 0 0 0-.29 0 .2.2 0 0 0-.05.14.21.21 0 0 0 .05.14.21.21 0 0 0 .15.07zM17.67 2.62a.2.2 0 0 0 .2-.2.2.2 0 0 0-.06-.14.21.21 0 0 0-.29 0 .23.23 0 0 0-.06.14.2.2 0 0 0 .21.2zM16.86 3.42a.2.2 0 0 0 .14-.06.2.2 0 0 0 .05-.14.21.21 0 0 0-.05-.14.21.21 0 0 0-.29 0 .19.19 0 0 0-.06.14.21.21 0 0 0 .06.14.19.19 0 0 0 .15.06zM16.06 4.22a.2.2 0 0 0 .14-.05.2.2 0 0 0 .06-.17.18.18 0 0 0-.06-.14.21.21 0 0 0-.28 0 .2.2 0 0 0-.06.14.18.18 0 0 0 .06.14.19.19 0 0 0 .14.08zM15.25 5a.21.21 0 0 0 .2-.2.2.2 0 0 0-.34-.15.2.2 0 0 0 0 .29.18.18 0 0 0 .14.06zM14.45 5.84a.2.2 0 0 0 .14-.06.21.21 0 0 0 .06-.14.19.19 0 0 0-.06-.14.2.2 0 0 0-.29 0 .21.21 0 0 0-.05.14.23.23 0 0 0 .05.14.22.22 0 0 0 .15.06zM13.64 6.64a.22.22 0 0 0 .14-.05.21.21 0 0 0 .07-.15.2.2 0 0 0-.35-.14.19.19 0 0 0-.06.14.19.19 0 0 0 .06.14.2.2 0 0 0 .14.06zM12.84 7.44a.2.2 0 0 0 .2-.2.23.23 0 0 0-.04-.14.21.21 0 0 0-.29 0 .18.18 0 0 0-.06.13.18.18 0 0 0 .06.14.2.2 0 0 0 .13.07zM12 8.24a.2.2 0 0 0 .14-.05.21.21 0 0 0 .1-.19.2.2 0 0 0-.06-.14.21.21 0 0 0-.29 0 .19.19 0 0 0-.05.13.21.21 0 0 0 .06.15.2.2 0 0 0 .1.1zM11.23 9.05a.21.21 0 0 0 .14-.05.21.21 0 0 0 .06-.14.19.19 0 0 0-.06-.14.2.2 0 0 0-.29 0 .21.21 0 0 0-.05.14.23.23 0 0 0 .05.14.22.22 0 0 0 .15.05zM10.43 9.86a.21.21 0 0 0 .2-.2.19.19 0 0 0-.06-.14.2.2 0 0 0-.28 0 .19.19 0 0 0-.06.15.17.17 0 0 0 .05.13.19.19 0 0 0 .15.06zM9.62 10.66a.2.2 0 0 0 .2-.2.2.2 0 0 0-.05-.14.2.2 0 0 0-.35.14.19.19 0 0 0 .06.14.21.21 0 0 0 .14.06zM8.82 11.46a.22.22 0 0 0 .18-.05.23.23 0 0 0 0-.15.19.19 0 0 0 0-.14.21.21 0 0 0-.28 0 .2.2 0 0 0-.06.14.18.18 0 0 0 .06.14.19.19 0 0 0 .1.06zM8 12.27a.2.2 0 0 0 .14-.06.19.19 0 0 0 .06-.15.21.21 0 0 0-.06-.14.2.2 0 0 0-.28 0 .18.18 0 0 0-.06.13.19.19 0 0 0 .06.15.2.2 0 0 0 .14.07zM7.21 13.08a.19.19 0 0 0 .14-.08.2.2 0 0 0 .06-.14.18.18 0 0 0-.06-.14.2.2 0 0 0-.29 0 .2.2 0 0 0 0 .28.18.18 0 0 0 .15.08zM6.41 13.88a.23.23 0 0 0 .14-.05.22.22 0 0 0 .06-.15.19.19 0 0 0-.06-.14.21.21 0 0 0-.29 0 .2.2 0 0 0 .15.34zM5.59 14.68a.21.21 0 0 0 .15-.06.2.2 0 0 0 .05-.14.18.18 0 0 0-.06-.14.2.2 0 0 0-.28 0 .22.22 0 0 0-.06.14.2.2 0 0 0 .06.14.22.22 0 0 0 .14.06zM4.79 15.49a.21.21 0 0 0 .14-.05.2.2 0 1 0-.29-.28.19.19 0 0 0-.05.13.2.2 0 0 0 .06.14.21.21 0 0 0 .14.06zM4 16.29a.22.22 0 0 0 .14-.05.2.2 0 0 0 .06-.14.21.21 0 0 0-.06-.15.21.21 0 0 0-.29 0 .2.2 0 0 0 0 .28.2.2 0 0 0 .15.06zM3.19 17.1a.23.23 0 0 0 .14-.1.23.23 0 0 0 .06-.15.19.19 0 0 0-.06-.14.2.2 0 0 0-.28 0 .21.21 0 0 0-.05.19.24.24 0 0 0 0 .1.22.22 0 0 0 .19.1zM2.38 17.9a.18.18 0 0 0 .14-.06.2.2 0 0 0 .06-.14.22.22 0 0 0-.07-.15.21.21 0 0 0-.28 0 .2.2 0 0 0-.05.14.21.21 0 0 0 .05.14.2.2 0 0 0 .15.07zM1.57 18.71a.22.22 0 0 0 .14-.05.22.22 0 0 0 .06-.15.22.22 0 0 0-.05-.14.21.21 0 0 0-.29 0 .19.19 0 0 0 0 .28.2.2 0 0 0 .14.06zM.77 19.51a.21.21 0 0 0 .14-.05.22.22 0 0 0 .09-.15.2.2 0 0 0-.34-.14.21.21 0 0 0-.06.14.2.2 0 0 0 .06.14.2.2 0 0 0 .11.06zM0 20.32a.22.22 0 0 0 .14-.06.19.19 0 0 0 .06-.15.19.19 0 0 0-.09-.11.21.21 0 0 0-.28 0 .21.21 0 0 0-.06.14.2.2 0 0 0 .05.14.2.2 0 0 0 .18.04zM15.26 1a.19.19 0 0 0 .14-.05.2.2 0 0 0 .06-.14.21.21 0 0 0-.06-.15.21.21 0 0 0-.28 0 .2.2 0 0 0-.06.15.19.19 0 0 0 .06.14.2.2 0 0 0 .14.05zM14.46 1.81a.2.2 0 0 0 .2-.2.18.18 0 0 0-.06-.14.21.21 0 0 0-.29 0 .2.2 0 0 0-.05.14.22.22 0 0 0 .05.14.21.21 0 0 0 .15.06zM13.65 2.62a.21.21 0 0 0 .2-.2.23.23 0 0 0-.06-.14.21.21 0 0 0-.29 0 .23.23 0 0 0-.06.14.22.22 0 0 0 .06.14.21.21 0 0 0 .15.06zM12.84 3.42a.23.23 0 0 0 .16-.05.25.25 0 0 0 0-.15.2.2 0 0 0-.34-.14.2.2 0 0 0 .18.34zM12 4.22a.21.21 0 0 0 .14-.05.2.2 0 0 0 .1-.17.2.2 0 0 0-.06-.14.2.2 0 0 0-.34.14.18.18 0 0 0 .06.14.2.2 0 0 0 .1.08zM11.24 5a.19.19 0 0 0 .14 0 .2.2 0 0 0 .06-.14.18.18 0 0 0-.06-.14.19.19 0 0 0-.28 0 .19.19 0 0 0-.06.14.23.23 0 0 0 .05.14.22.22 0 0 0 .15 0zM10.43 5.84a.19.19 0 0 0 .14-.06.2.2 0 0 0 .06-.14.18.18 0 0 0-.06-.14.21.21 0 0 0-.29 0 .2.2 0 0 0-.05.14.21.21 0 0 0 .2.2zM9.63 6.64a.22.22 0 0 0 .14-.05.21.21 0 0 0 .07-.15.23.23 0 0 0-.07-.14.21.21 0 0 0-.29 0 .2.2 0 0 0-.06.14.21.21 0 0 0 .06.14.2.2 0 0 0 .15.06zM8.82 7.44a.2.2 0 0 0 .18-.2.18.18 0 0 0 0-.14.21.21 0 0 0-.28 0 .21.21 0 0 0-.06.14.2.2 0 0 0 .06.14.21.21 0 0 0 .1.06zM8 8.24a.18.18 0 0 0 .14-.05.2.2 0 0 0 0-.29.21.21 0 0 0-.29 0 .2.2 0 0 0-.03.1.2.2 0 0 0 .05.14.2.2 0 0 0 .13.1zM7.21 9.05A.22.22 0 0 0 7.36 9a.2.2 0 1 0-.29-.28.2.2 0 0 0 0 .27.22.22 0 0 0 .14.06zM6.41 9.86a.2.2 0 0 0 .14-.06.2.2 0 0 0 .06-.14.22.22 0 0 0-.05-.14.2.2 0 0 0-.29 0 .22.22 0 0 0-.05.14.23.23 0 0 0 .05.14.22.22 0 0 0 .14.06zM5.6 10.66a.2.2 0 0 0 .2-.2.2.2 0 0 0-.05-.14.2.2 0 0 0-.35.14.21.21 0 0 0 .06.14.19.19 0 0 0 .14.06zM4.8 11.46a.21.21 0 0 0 .2-.2.19.19 0 0 0-.06-.14.2.2 0 0 0-.28 0 .2.2 0 0 0-.06.14.18.18 0 0 0 .06.14.18.18 0 0 0 .14.06zM4 12.27a.19.19 0 0 0 .14-.06.2.2 0 0 0 .06-.14.2.2 0 0 0-.05-.14.2.2 0 0 0-.35.14.19.19 0 0 0 .06.14.22.22 0 0 0 .14.06zM3.19 13.08a.19.19 0 0 0 .14-.08.2.2 0 0 0 .06-.14.18.18 0 0 0-.06-.14.19.19 0 0 0-.28 0 .18.18 0 0 0-.06.14.2.2 0 0 0 .06.14.18.18 0 0 0 .14.08zM2.39 13.88a.19.19 0 0 0 .14-.07.18.18 0 0 0 .06-.13.21.21 0 0 0-.07-.15.21.21 0 0 0-.28 0 .2.2 0 0 0-.05.14.21.21 0 0 0 .05.14.2.2 0 0 0 .15.07zM1.58 14.68a.22.22 0 0 0 .14-.05.23.23 0 0 0 .07-.15.21.21 0 0 0-.35-.14.19.19 0 0 0 0 .28.21.21 0 0 0 .14.06zM.78 15.49a.21.21 0 0 0 .15-.06.21.21 0 0 0 .07-.14.22.22 0 0 0-.05-.14.22.22 0 0 0-.29 0 .2.2 0 0 0-.06.14.19.19 0 0 0 .06.14.19.19 0 0 0 .12.06zM0 16.29a.21.21 0 0 0 .14-.05.2.2 0 0 0 .03-.14.18.18 0 0 0-.06-.1.2.2 0 0 0-.29 0 .2.2 0 0 0-.05.14.2.2 0 0 0 .06.14.2.2 0 0 0 .17.01zM11.25 1a.19.19 0 0 0 .14-.05.22.22 0 0 0 .06-.14.22.22 0 0 0-.06-.14.21.21 0 0 0-.29 0 .2.2 0 0 0-.1.14.19.19 0 0 0 .06.14.18.18 0 0 0 .19.05zM10.44 1.81a.2.2 0 0 0 .2-.2.18.18 0 0 0-.06-.14.21.21 0 0 0-.29 0 .2.2 0 0 0-.05.14.22.22 0 0 0 .05.14.21.21 0 0 0 .15.06zM9.64 2.62a.2.2 0 0 0 .13-.05.2.2 0 0 0 .07-.15.21.21 0 0 0-.06-.14.2.2 0 0 0-.34.14.2.2 0 0 0 .05.14.21.21 0 0 0 .15.06zM8.83 3.42A.21.21 0 0 0 9 3.36a.2.2 0 0 0 0-.14.2.2 0 0 0-.34-.14.19.19 0 0 0-.06.14.18.18 0 0 0 .06.14.19.19 0 0 0 .17.06zM8 4.22a.2.2 0 0 0 .14-.05.2.2 0 0 0 .09-.17.19.19 0 0 0-.06-.14.21.21 0 0 0-.28 0 .21.21 0 0 0-.07.14.18.18 0 0 0 .06.14.18.18 0 0 0 .12.08zM7.22 5a.21.21 0 0 0 .14 0 .19.19 0 0 0 .06-.14.2.2 0 0 0-.35-.14.2.2 0 0 0-.07.11.19.19 0 0 0 .08.17.21.21 0 0 0 .14 0zM6.42 5.84a.2.2 0 0 0 .14-.06.2.2 0 0 0 .06-.14.21.21 0 0 0-.35-.14.2.2 0 0 0-.05.14.22.22 0 0 0 .05.14.21.21 0 0 0 .15.06zM5.61 6.64a.19.19 0 0 0 .15-.06.21.21 0 0 0 .06-.14.21.21 0 0 0-.06-.14.22.22 0 0 0-.29 0 .21.21 0 0 0-.06.14.21.21 0 0 0 .06.14.19.19 0 0 0 .14.06zM4.81 7.44a.22.22 0 0 0 .14-.05.23.23 0 0 0 .05-.15.2.2 0 0 0-.05-.14.19.19 0 0 0-.28 0 .18.18 0 0 0-.06.13.24.24 0 0 0 .06.15.22.22 0 0 0 .14.06zM4 8.24a.18.18 0 0 0 .14-.05.2.2 0 0 0 0-.29.21.21 0 0 0-.29 0 .2.2 0 0 0-.05.1.2.2 0 0 0 .05.14.19.19 0 0 0 .15.1zM3.2 9.05A.22.22 0 0 0 3.34 9a.2.2 0 0 0 0-.29.21.21 0 0 0-.29 0 .2.2 0 0 0-.05.14.21.21 0 0 0 .06.15.21.21 0 0 0 .14.05zM2.4 9.86a.19.19 0 0 0 .14-.06.19.19 0 0 0 .06-.14.21.21 0 0 0-.06-.14.21.21 0 0 0-.29 0 .21.21 0 0 0-.05.14.22.22 0 0 0 .05.14.21.21 0 0 0 .15.06zM1.59 10.66a.21.21 0 0 0 .14-.05.22.22 0 0 0 .06-.15.2.2 0 0 0-.05-.14.2.2 0 0 0-.35.14.19.19 0 0 0 .06.14.21.21 0 0 0 .14.06zM.78 11.46a.22.22 0 0 0 .14-.05.22.22 0 0 0 .08-.15.23.23 0 0 0-.05-.14.21.21 0 0 0-.29 0 .23.23 0 0 0-.06.15.2.2 0 0 0 .06.14.2.2 0 0 0 .12.05zM0 12.27a.2.2 0 0 0 .14-.05.2.2 0 0 0 .06-.14.21.21 0 0 0-.06-.15.21.21 0 0 0-.28 0 .22.22 0 0 0-.06.15.18.18 0 0 0 .06.14.2.2 0 0 0 .14.05zM7.23 1a.19.19 0 0 0 .14-.05.2.2 0 0 0 .06-.14.18.18 0 0 0-.06-.14.2.2 0 0 0-.29 0A.19.19 0 0 0 7 .81a.19.19 0 0 0 .06.14.21.21 0 0 0 .17.05zM6.42 1.81a.2.2 0 0 0 .14-.06.21.21 0 0 0 .06-.14.18.18 0 0 0-.06-.14.21.21 0 0 0-.29 0 .2.2 0 0 0-.05.14.23.23 0 0 0 .05.14.22.22 0 0 0 .15.06zM5.62 2.62a.19.19 0 0 0 .14-.06.18.18 0 0 0 .06-.14.2.2 0 0 0-.35-.14.21.21 0 0 0-.06.14.21.21 0 0 0 .21.2zM4.81 3.42A.21.21 0 0 0 5 3.37a.22.22 0 0 0 0-.15.22.22 0 0 0 0-.14.21.21 0 0 0-.29 0 .19.19 0 0 0-.06.14.18.18 0 0 0 .06.14.2.2 0 0 0 .1.06zM4 4.22a.2.2 0 0 0 .14-.05.2.2 0 0 0 .07-.17.2.2 0 0 0-.06-.14.21.21 0 0 0-.29 0 .2.2 0 0 0-.05.14.2.2 0 0 0 .19.22zM3.21 5a.21.21 0 0 0 .14 0 .2.2 0 0 0 .06-.14.21.21 0 0 0-.05-.14.21.21 0 0 0-.29 0 .22.22 0 0 0-.07.11.2.2 0 0 0 .07.17.21.21 0 0 0 .14 0zM2.4 5.84a.24.24 0 0 0 .14-.05.24.24 0 0 0 .06-.16.18.18 0 0 0-.06-.14.21.21 0 0 0-.29 0 .2.2 0 0 0-.05.14.23.23 0 0 0 .05.14.22.22 0 0 0 .15.07zM1.59 6.64a.2.2 0 0 0 .21-.2.21.21 0 0 0-.06-.14.21.21 0 0 0-.29 0 .23.23 0 0 0-.06.14.2.2 0 0 0 .06.14.2.2 0 0 0 .14.06zM.79 7.44a.19.19 0 0 0 .21-.2.2.2 0 0 0-.07-.14.21.21 0 0 0-.28 0 .2.2 0 0 0-.06.14.18.18 0 0 0 .06.14.19.19 0 0 0 .14.06zM0 8.24a.21.21 0 0 0 .13-.05A.2.2 0 0 0 .19 8a.21.21 0 0 0-.06-.09.21.21 0 0 0-.29 0A.21.21 0 0 0-.21 8a.2.2 0 0 0 .05.13.22.22 0 0 0 .16.11zM3.21 1a.2.2 0 0 0 .14-.05.19.19 0 0 0 .06-.14.22.22 0 0 0-.05-.14.2.2 0 0 0-.29 0A.22.22 0 0 0 3 .81a.2.2 0 0 0 .06.14.21.21 0 0 0 .15.05zM2.41 1.81a.19.19 0 0 0 .14-.06.19.19 0 0 0 .06-.14.19.19 0 0 0-.06-.14.21.21 0 0 0-.29 0 .21.21 0 0 0-.05.14.21.21 0 0 0 .05.14.21.21 0 0 0 .15.06zM1.61 2.62a.2.2 0 0 0 .14-.06.21.21 0 0 0 .06-.14.21.21 0 0 0-.06-.14.22.22 0 0 0-.29 0 .21.21 0 0 0 0 .29.18.18 0 0 0 .15.05zM.8 3.42a.19.19 0 0 0 .14-.06.2.2 0 0 0 .06-.14.21.21 0 0 0-.06-.14.21.21 0 0 0-.29 0 .2.2 0 0 0-.06.14.21.21 0 0 0 .06.14.19.19 0 0 0 .15.06zM0 4.22a.21.21 0 0 0 .13-.05A.22.22 0 0 0 .19 4a.2.2 0 0 0-.06-.12.21.21 0 0 0-.29 0A.2.2 0 0 0-.21 4a.19.19 0 0 0 .06.14.2.2 0 0 0 .15.08zM44.14 36.41a.19.19 0 0 0 .15-.06.21.21 0 0 0 .06-.14.21.21 0 0 0-.06-.14.2.2 0 0 0-.35.14.18.18 0 0 0 .07.14.18.18 0 0 0 .13.06zM40.13 36.41a.21.21 0 0 0 .15-.06.22.22 0 0 0 .06-.14.22.22 0 0 0-.07-.15.21.21 0 0 0-.28 0 .22.22 0 0 0-.06.14.22.22 0 0 0 .06.14.21.21 0 0 0 .14.07zM36.11 36.41a.22.22 0 0 0 .15-.06.21.21 0 0 0 .05-.14.2.2 0 0 0-.06-.15.21.21 0 0 0-.28 0 .21.21 0 0 0-.06.14.19.19 0 0 0 .06.14.2.2 0 0 0 .14.07zM32.09 36.41a.2.2 0 0 0 .15-.07.18.18 0 0 0 .05-.13.2.2 0 0 0-.06-.15.21.21 0 0 0-.28 0 .21.21 0 0 0-.06.14.22.22 0 0 0 .06.14.21.21 0 0 0 .14.07zM28.08 36.41a.2.2 0 0 0 .15-.07.18.18 0 0 0 .05-.13.2.2 0 0 0-.06-.15.21.21 0 0 0-.28 0 .2.2 0 0 0-.06.14.18.18 0 0 0 .07.14.17.17 0 0 0 .13.07zM24.06 36.41a.21.21 0 0 0 .15-.06.21.21 0 0 0 .05-.14.18.18 0 0 0-.06-.15.21.21 0 0 0-.28 0 .2.2 0 0 0-.06.14.21.21 0 0 0 .2.21zM20 36.41a.19.19 0 0 0 .15-.06.2.2 0 0 0 .05-.14.22.22 0 0 0-.05-.15.21.21 0 0 0-.35.15.19.19 0 0 0 .06.14.22.22 0 0 0 .14.06zM16 36.41a.2.2 0 0 0 .14-.35.21.21 0 0 0-.28 0 .21.21 0 0 0-.06.15.2.2 0 0 0 .06.14.2.2 0 0 0 .14.06zM12 36.41a.2.2 0 0 0 .15-.06.24.24 0 0 0 .06-.14.22.22 0 0 0-.06-.14.2.2 0 0 0-.29 0 .21.21 0 0 0-.06.14.2.2 0 0 0 .06.14.19.19 0 0 0 .14.06zM8 36.41a.23.23 0 0 0 .15-.06.22.22 0 0 0 .06-.14.24.24 0 0 0-.06-.15.22.22 0 0 0-.29 0 .24.24 0 0 0-.06.15.22.22 0 0 0 .06.14.21.21 0 0 0 .14.06zM4 36.41a.19.19 0 0 0 .14-.06.2.2 0 0 0 .06-.14.21.21 0 0 0-.05-.14.2.2 0 0 0-.29 0 .21.21 0 0 0-.06.14.21.21 0 0 0 .06.14.2.2 0 0 0 .14.06z"/><path class="c" d="M48.09 36.41a.19.19 0 0 0 .15-.07.18.18 0 0 0 .05-.13.18.18 0 0 0-.06-.15.21.21 0 0 0-.28 0 .22.22 0 0 0-.06.14.22.22 0 0 0 .06.14.19.19 0 0 0 .14.07zM48.08 32.39a.2.2 0 0 0 .14-.06.2.2 0 1 0-.29-.33.21.21 0 0 0-.05.14.23.23 0 0 0 .05.14.22.22 0 0 0 .15.11zM48.08 28.36a.19.19 0 0 0 .14-.07.16.16 0 0 0 .06-.13.2.2 0 0 0-.35-.16.2.2 0 0 0-.05.14.2.2 0 0 0 .06.14.18.18 0 0 0 .14.08zM48.09 24.34a.21.21 0 0 0 .14-.05.21.21 0 0 0 .06-.14.21.21 0 0 0-.05-.15.21.21 0 0 0-.29 0 .21.21 0 0 0-.06.15.2.2 0 0 0 .06.14.21.21 0 0 0 .14.05zM48.09 20.32a.22.22 0 0 0 .14-.06.19.19 0 0 0 .06-.15.19.19 0 0 0-.05-.11.2.2 0 0 0-.34.14.2.2 0 0 0 .05.14.2.2 0 0 0 .14.04zM48.1 16.29a.21.21 0 0 0 .14-.05.2.2 0 0 0 .06-.14.18.18 0 0 0-.06-.1.2.2 0 1 0-.14.29zM48.11 12.27a.2.2 0 0 0 .14-.05.2.2 0 0 0 .06-.14.21.21 0 0 0-.06-.15.21.21 0 0 0-.28 0 .22.22 0 0 0-.06.15.18.18 0 0 0 .06.14.2.2 0 0 0 .14.05zM48.12 8.24a.21.21 0 0 0 .14-.05.2.2 0 0 0 .06-.19.2.2 0 1 0-.4 0 .2.2 0 0 0 .05.13.22.22 0 0 0 .15.11zM48.12 4.22a.22.22 0 0 0 .14-.05.22.22 0 0 0 .06-.17.2.2 0 0 0-.06-.14.21.21 0 0 0-.29 0 .2.2 0 0 0-.05.13.19.19 0 0 0 .06.14.2.2 0 0 0 .14.09zM0 .2A.2.2 0 0 0 .11.14.18.18 0 0 0 .17 0a.19.19 0 0 0-.06-.15.21.21 0 0 0-.28 0A.21.21 0 0 0-.23 0a.22.22 0 0 0 .06.14A.2.2 0 0 0 0 .2zM44.14.2a.2.2 0 0 0 .15-.06.22.22 0 0 0 .06-.14.21.21 0 0 0-.06-.14.2.2 0 0 0-.29 0 .2.2 0 0 0-.06.14.19.19 0 0 0 .06.14.19.19 0 0 0 .14.06zM40.13.2a.21.21 0 0 0 .14-.06.22.22 0 0 0 .06-.14.22.22 0 0 0-.07-.15.21.21 0 0 0-.28 0 .21.21 0 0 0-.06.14.22.22 0 0 0 .08.15.22.22 0 0 0 .13.06zM36.11.2a.22.22 0 0 0 .15-.06.22.22 0 0 0 .05-.14.2.2 0 0 0-.06-.15.21.21 0 0 0-.28 0 .21.21 0 0 0-.06.14.19.19 0 0 0 .09.15.2.2 0 0 0 .11.06zM32.09.2a.21.21 0 0 0 .15-.06.18.18 0 0 0 .05-.14.2.2 0 0 0-.06-.15.21.21 0 0 0-.28 0 .21.21 0 0 0-.06.14.22.22 0 0 0 .11.15.22.22 0 0 0 .09.06zM28.08.2a.21.21 0 0 0 .15-.06.18.18 0 0 0 .05-.14.2.2 0 0 0-.06-.15.21.21 0 0 0-.28 0 .2.2 0 0 0-.06.14.18.18 0 0 0 .07.14.18.18 0 0 0 .13.07zM24.06.2a.21.21 0 0 0 .15-.06.22.22 0 0 0 .05-.14.19.19 0 0 0-.06-.15.21.21 0 0 0-.28 0 .2.2 0 0 0-.06.14.22.22 0 0 0 .06.14.22.22 0 0 0 .14.07zM20 .2a.2.2 0 0 0 .19-.06.2.2 0 0 0 .06-.14.22.22 0 0 0-.05-.15.22.22 0 0 0-.29 0 .21.21 0 0 0-.06.14.19.19 0 0 0 .06.14.22.22 0 0 0 .09.07zM16 .2a.21.21 0 0 0 .18-.06.21.21 0 0 0 .06-.14.2.2 0 0 0-.07-.15.22.22 0 0 0-.28 0 .21.21 0 0 0-.06.15.2.2 0 0 0 .06.14.21.21 0 0 0 .11.06zM12 .2a.21.21 0 0 0 .16-.06.24.24 0 0 0 .06-.14.21.21 0 0 0-.06-.14.2.2 0 0 0-.29 0 .21.21 0 0 0-.06.14.2.2 0 0 0 .06.14.19.19 0 0 0 .13.06zM8 .2a.24.24 0 0 0 .15-.06.22.22 0 0 0 .06-.14.25.25 0 0 0-.06-.15.23.23 0 0 0-.29 0A.24.24 0 0 0 7.8 0a.22.22 0 0 0 .06.14A.22.22 0 0 0 8 .2zM4 .2a.19.19 0 0 0 .12-.06.2.2 0 0 0 .06-.14.21.21 0 0 0-.05-.14.2.2 0 0 0-.29 0 .21.21 0 0 0-.06.14.21.21 0 0 0 .06.14A.21.21 0 0 0 4 .2zM48.09.2a.2.2 0 0 0 .15-.06.18.18 0 0 0 .06-.14.19.19 0 0 0-.06-.15.21.21 0 0 0-.28 0 .21.21 0 0 0-.06.14.22.22 0 0 0 .1.15.19.19 0 0 0 .09.06z"/></pattern></defs><title>oedi-wan-saber</title><path class="d" d="M75.83 184.83l.22 25.77h27.18l2.88-24.98-30.28-.79"/><path class="e" d="M103.89 196.84s-11.71 11.27-13.26 12.15-14.58-11.71-14.58-11.71l.66 103.2 26.3.22z"/><path class="f" d="M111.15 250.52H71.96v-8.51h39.19z"/><circle class="g" cx="92.18" cy="39.7" r="21.37"/><path class="h" d="M92.6 65.91v-12.8"/><circle class="i" cx="92.18" cy="39.7" r="9.8"/><path class="j" d="M29.1 194.06s-16.25 14.71-15.59 29.74c.41 9.28 7.81 18.88 10.46 18.93 9.42.18 11.58-4.45 11.58-4.45l-23.72 65.77 66.65 3.08.44-120.66 23.42-.45a35.13 35.13 0 0 1 0 10.83c-.88 6.63 0 109.83 0 109.83l70-2.62-29.3-66.32s2.8 2.95 6.33 2.95 8.52-8.91 8.91-16.87c.66-13.48-9.39-31.41-9.39-31.41s8.78 3.54 16.74-.88 8.37-7.51 9.7-14.14c3.54-2.65 7.94-4.42 8.38-11s-31.91-24.79-31.91-30.64a200.4 200.4 0 0 0-2.22-28.48c-8.34-24.67-35.34-33.34-39.68-36.67-3-2.29-.48-6.8-16.39-7.24s-10.38 2.82-16.57 5.48-41.7 4.76-48.37 40.43c-6 32-1.87 15.08-4.53 25.69S.4 155.6.04 163.89c-.59 13.55 5 13.55 8.25 14.73-.88 5-2.65 8.84 2.95 12.67s16.73 4.17 17.86 2.77z"/><path class="d" d="M129.71 91.34a102.65 102.65 0 0 0-11.27-1.1c-4 0-12.15 3.09-12.15 3.09-10.17 3.32-10.16 3.31-13.48 3.54s-11.49-2-13.7-3.54a20.45 20.45 0 0 0-11.71-2.87c-4.2.44-10.83 0-12.38 1.33s4.64-5.08 7.73-5.08 6.41-2 11.49-.22 9.94 6 17.24 6.19 16.79-4.64 21.21-5.75 13.48 2.2 17.02 4.41zM18.72 151.4s-8 12.38-8.25 17.09.08 7.21-1.23 9.11c-1.51-1.47-3.83.52-3.24-7.66.64-10.34 10.36-13.24 12.72-18.54zM160.98 152.6c-.87-1.19 11.9 9.87 14 15.17s3.61 5.23 3.31 7.29-3.13 2.87-3.13 2.87-1.47-5.3-2.95-8.84-7.97-12.09-11.23-16.49zM36.79 147.93s-9.05 16.76-11.93 20c-2.25 2.5-7.66 6.78-8.84 10.9s-1.77 4.13 1.77 9.14 32.41-4.72 39.19-14.45-20.19-25.59-20.19-25.59zM141.56 151.83s8.35 12 10.57 14.52 8 6.32 9.45 10.37 2.29 4-.95 9.22-32.92-2.84-40.24-12.16 21.17-21.95 21.17-21.95z"/><path class="c" d="M89.59 75.6c31.45 0 54.46 24.58 56.27 55.58.07.32.37 7.05.37 7.38l-10.33 32c-11.86 8.42-16.59 10.14-18.27 10.14-1.11 0-.9-.75-.53-.82l-36.7-2.86c-8.43 0-12 4-13.36 7 .11-1.24.19-2.91.19-5.12a85.57 85.57 0 0 1-22.66-6.3c-4.67-7-8.67-36.67-8.67-36.67a1.64 1.64 0 0 1-1.07.6c-1.59 0-1.57-5-1.51-5.32 1.81-31 24.82-55.58 56.27-55.58M67.05 184.05c-.2 2.15-.49 3-.64 3s-.13-1.31.64-3M89.59 71.6a58.68 58.68 0 0 0-42.1 17.35 64.82 64.82 0 0 0-18.17 42c-.1 1.55-.05 5.51 1.72 7.71a5 5 0 0 0 1.36 1.18c1.25 8.39 4.62 28.66 8.82 34.95a4 4 0 0 0 1.67 1.42 88 88 0 0 0 20.24 6.11v.73c-.67 1.69-1.31 4.22-.11 6.09a4 4 0 0 0 3.41 1.87c3.58 0 4.29-3.55 4.54-5.84 1-1.73 3.44-4.09 9.3-4.13l34.26 2.67a5 5 0 0 0 3.12 1c2.26 0 6.85-1.13 20.58-10.88a4 4 0 0 0 1.49-2l10.33-32a4 4 0 0 0 .19-1.23c0-.05-.2-5.61-.39-7.62-.95-16.19-7.4-31.1-18.17-42A58.68 58.68 0 0 0 89.59 71.6z"/><path class="k" d="M89.75 90.1c-8.78-.08-44.55 2.85-46.5 4.5-5.87 5-8 41-8 48.13l6 18.38c0 10.18 13.47 12.5 23.24 17.5l2.14 1s9.78 8.5 22.92 8.06c15.69-.07 25.45-8.07 25.45-8.07l5.49-4c10.17 0 14.75-4.25 18.76-14.5l5.49-45.25c-.09-7.36-8.49-16.22-14-21-1.41-1.25-31.05-4.65-40.99-4.75z"/><circle class="l" cx="68.87" cy="119.85" r="8.75"/><circle class="l" cx="112.87" cy="119.85" r="8.75"/><circle class="c" cx="73.1" cy="119.85" r="5.84"/><circle class="c" cx="116.87" cy="119.85" r="5.84"/><path class="m" d="M141.24 193.08s-.88.66-3.76.66-15.69-6.85-19-7.07-7.51 2-9.94 4.86M50.02 192.84c2.84-.43 12.13-7 15.37-7.69a11 11 0 0 1 9.59 2.79"/><path class="d" d="M139.24 237.94a5.38 5.38 0 0 1-4.2-.66c-1.77-1.33-11.49-15-11.27-32.26 1.1-7.29 8.84-9.06 8.84-9.06s7.3 30.27 6.63 41.98zM53.51 208.11c.19 4.42-5.48 18.8-11.88 25.43s-1.93-15-1.93-15 5.19-6.3 6.41-21.77c1.76.83 6.95 1.17 7.4 11.34zM27.06 237.6c-2.35-.27-6.19-3.54-7.37-12.08s5.89-15.47 7.51-15.32 6.48 7.81 6 13-.96 14.96-6.14 14.4zM146.39 237.6c-2.35-.27-6.19-3.54-7.37-12.08s5.89-15.47 7.51-15.32 6.48 7.81 6 13-.98 14.96-6.14 14.4z"/><path class="n" d="M132.62 195.96l3.54 16.79M46.1 197.17s-2.21 17.46-6.3 20.77"/><path class="o" d="M68.42 202.37l-.44 92.81M112.74 203.6v92"/><path class="p" d="M90.19 209l-.44 90.95"/><path class="q" d="M120.8 167.01a11.38 11.38 0 0 0 2.36-6.19c.29-3.83-3.24-8.84-3.24-8.84M115.48 153.45a9.15 9.15 0 0 0-6.19-4.71M70 148.15s-5.89 4.71-6.48 8.25M61.16 152.27s-2.92 2.33-2.92 5.33a17.63 17.63 0 0 0 1.77 6.48M46.95 137.54s-5-1.47-5.89 7.07M131.01 132.98s4.42 2.65 5 5.3M115.01 138.72c-2.65 3.54-11.12-1-16.5-3.83"/><path class="r" d="M97.66 168.52s-10.8.11-16.63.32"/><path class="s" d="M60.71 178.32c1.62 1.62-.88 11.39-.59 13.75s4.8-.59 5.83 2.5-.29 8.4 1.92 8.1 3.09-4.86 4.57-4.71 1.5 8.45 4.45 8.75 7.51 1.46 10.61 1.76 1.42 3.86 3.19 3.57 6.66-4.56 8.72-7.5 1.47-6.71 3.83-4.5 2.21 7.07 5 5.6 1.47.29 2.8-4 .24-4 2.3-5.16 3.24.88 4.57-4.13 2.06-10 2.65-11.78c.33-1 8.68-3.48 14-8.63 4.07-2.52 6.06-11.81 7.44-19.16l-1.85-7.18s-3.27 11-4.69 13.66-9.69 2.53-10.72 4.44.15 5.45.15 5.45-4-4.57-5.6-3.39-2.05 3.84-2.95 4.46-.62-11.12-1.62-13.41c-2.06-4.71-16.5-9.58-19.74-9-1.82.33-5 3.24-5.89 3.24s-3.68-2.65-6.63-2.5-7.66 1-9.58 2.95-.44 4.71-2.8 4.86-7.07.88-6.48 12.52-3.39.44-2.95-2.06-6-1-6.63 0a2.46 2.46 0 0 1-2.36 1.18c-.44-.15 1.62-4 .74-5.3s-7.7-2-8.18-3.75-4.84-17.91-4.84-17.91l-2.77 5.91s3.44 15.22 7.05 23.61c2.26 5.23 13.14 6.29 17.05 7.76zm11.58-14.44c.29-2.06 2.8-1 4.13-.74s5.45-1.92 5.6-3.39 6.41-2 8.25-2.06c3.09-.15 6.48 3.54 10.75 3.83.73.05 1.92-2.65 1.92-2.65a11 11 0 0 1 4.86 7.81s0 6.33-.44 7.07-3.54 6.19-6.48 6-6.83-.2-8-1.92c-.71-1.09.29-2.73-2.95-2.87s-4.42.37-4.71 1.4-2.36 3.24-5.45 3.54-6.78-2.06-7.51-4.27-.26-9.69.03-11.75zM98.4 98.68s-2.76 2.53-1 3.85 6.13 2.44 7.92 1.58c2.19-1 5.92 1.36 9.36-.07.7-.29 4.76 2.74 7.07 2.27 1-.2 2.9 2.72 4 2.34 3-1-.27-4.87-1.71-6.07s-2.38-2.57-7.23-3.81c-5.48-1.4-5.28-.15-8.92-.61a45.14 45.14 0 0 1-6.31.22 14.08 14.08 0 0 1-3.18.3zM81.36 97.9s3 3.14 1.22 4.5-6.06 2.61-7.87 1.8c-2.22-1-5.88 1.53-9.36.2-.71-.27-4.68 2.87-7 2.47-1-.17-2.82 2.8-3.92 2.45-3-1 .13-4.87 1.54-6.12s2.31-2.63 7.12-4c5.44-1.56 5.27-.29 8.9-.86 3.06-.48 3.41-1.24 6.18-.65a14.08 14.08 0 0 0 3.19.21z"/><path class="t" d="M36.12 149.11c2.22-3-.74 1.55 4.05-8 2.64-7.32 5-2.8 5-12.82s-1.19-13.75.44-21.51c2.36-11.2 12.38-9.43 17.38-9.58 6.48-.19 10.17 5.75 27.25 5.75s27.4-4.56 33.3-4.42c12.38.29 13 9.43 14.44 13.26s-2.65 16.5-2.65 16.5a69.41 69.41 0 0 1 3.24 11.93c1.21 6.75 1.21 7.9 4 11.56-1 1.17-1.38 7.12-2.58 8.4-3-2.85-6-12.3-6.67-14.07-.88-2.36-4.94-8.28-4.94-17.53 0-15-8.4-19.89-14.14-19.89-6.78 0-19 6.19-24.31 5.75s-18.14-6.11-24.75-5.75c-8 .44-12.52 9-13.7 19s-4.13 17.38-6.19 20.33c-1.61 2.3-4.06 6-6.63 8.32-1.53-1.51-1.28-5.95-2.54-7.23z"/><path class="j" d="M145.86 159.69c-1.55-4-6.1-13.25-7.31-20a69.57 69.57 0 0 0-3.25-12s4.13-12.7 2.66-16.54-2.07-13-14.47-13.29c-5.91-.14-16.24 4.43-33.37 4.43s-20.79-6-27.32-5.76c-5 .15-15.06-1.62-17.43 9.6-1.64 7.78-.44 11.52-.44 21.56s-2.37 5.51-5 12.85c-4.8 9.6-7.46 14.92-8 17.43l-7.08 9.9s.49-34.07 4.72-52.27c5.67-24.33 26.33-39 43-42.67 13.26-2.92 30.53-3.94 44.67 4 14.83 8.33 32.12 26.68 34 39.17s.89 50.24.89 50.24z"/><path class="u" d="M31.93 157.99c.52-2.51 3.17-7.83 8-17.43 2.65-7.33 5-2.81 5-12.85s-1.2-13.78.44-21.56c2.36-11.22 12.4-9.45 17.43-9.6 6.53-.19 10.15 5.76 27.32 5.76s27.47-4.57 33.37-4.43c12.4.3 13 9.45 14.47 13.29s-2.66 16.54-2.66 16.54a69.57 69.57 0 0 1 3.25 12c1.21 6.76 5.76 16 7.31 20"/><path class="v" d="M98.14 251.71H82.8v-11.93h15.34z"/><path class="w" d="M149.07 298.1l-13.29-33.95 4.19 33.95h9.1"/><path class="x" d="M34.27 300.1l10.36-32.94-4.06 32.94h-6.3"/><circle class="y" cx="69.95" cy="371.31" r="9.8" transform="rotate(-1.09 -7962.966 2647.282)"/><path class="z" d="M145.17 212.37c3.47 1.11 5.88 3.39 7-.08L217.4 8.81c1.11-3.47 0-6.83-4.29-8.33-4.44-1.54-7.22.82-8.33 4.29l-65.25 203.48c-1.11 3.47 2.16 3.01 5.64 4.12z"/><path class="aa" d="M145.15 212.42c1.71.55 2.17 1 2.71-.69L214.64 3.41c.55-1.71.17-2.44-1.54-3-1.71-.55-2.44-.17-3 1.54l-66.75 208.33c-.55 1.71.1 1.6 1.8 2.14z"/><path class="ab" d="M138.69 245.036l-5.573-1.783a1.88 1.88 0 0 1-1.217-2.364l9.164-28.63a1.87 1.87 0 0 1 2.35-1.21l5.573 1.782a1.87 1.87 0 0 1 1.21 2.35l-9.167 28.64a1.88 1.88 0 0 1-2.363 1.217z"/><rect class="ac" x="185.68" y="364.39" width="9.66" height="2.65" rx="1.33" ry="1.33" transform="rotate(-162.25 156.238 293.014)"/><rect class="ab" x="176.87" y="362.78" width="28.36" height="2.5" rx=".48" ry=".48" transform="rotate(-162.25 156.78 291.326)"/><circle class="y" cx="187.39" cy="377.58" r="9.8" transform="rotate(-47.52 -8.086 352.217)"/></svg>