<svg xmlns="http://www.w3.org/2000/svg" viewBox="0 0 262.95 222.82"><defs><style>.a{fill:#87c460;}.b{fill:#7a9b64;}.c{fill:#ad844d;}.d{fill:#754c24;}.e{fill:#e0aa63;}</style></defs><title>yoda</title><path class="a" d="M81.95 3.68S5.43-3.24.47 1.9a4.23 4.23 0 0 0-.45 1.94c1.52 2.48 35.26 8.73 51.41 36.48 1.25 2.14 9.75 2.68 15.69 3.15-.65-13.9 5.85-30.15 14.83-39.79z"/><path class="b" d="M75.06 13.24s-51-9.77-55.22-7.21c-.18.11 7.83 1.95 7.92 2.1 1.13 1.85 16.44 3.93 28.56 24.71.94 1.61 6.3.68 10.75 1 1.46-10.4 5.15-15.83 7.99-20.6z"/><path class="c" d="M190.22 222.32h-118c-6.6 0-16-54.4-16-53v-85.5c0-6.6 5.4-1 12-1h126c6.6 0 12-5.6 12 1v85.5c0 6.6-9.4 53-16 53z"/><path class="d" d="M175.22 222.32h-87.5c-6.6 0-16-43.33-16-82v-61.5c0-6.6 21.4 2 28 2h62.5c6.6 0 29-7.6 29-1v89.5c0 6.6-9.4 53-16 53z"/><path class="e" d="M76.72 74.32c.52-3.26-3.25-7.5-3.25-7.5s-17.87-4.5-17.87 8c0 19.5 22.62 148 22.62 148l12-.5L71.97 80.2s4.46-4.03 4.75-5.88z"/><path class="e" d="M56.98 81.38S46.22 86.26 42.9 96.71s-21.42 68.15-16.48 76.8 22.29 8.21 27.91 5.8c10.37-4.45 5.54-13.52 5.54-13.52zM186.07 74.32c-.52-3.26 3.25-7.5 3.25-7.5s17.9-4.5 17.9 8c0 19.51-22.62 148-22.62 148l-12-.5L190.82 80.2s-4.45-4.03-4.75-5.88z"/><path class="e" d="M192.55 79.95s11.77-.16 19.27 7.86 48.4 52.51 47.65 62.44-16.66 16.93-22.77 17.15c-11.27.4-10.77-9.87-10.77-9.87L200 106.27z"/><path class="a" d="M181 3.68s76.52-6.92 81.48-1.78a4.22 4.22 0 0 1 .45 1.94c-1.51 2.46-35.25 8.74-51.4 36.44-1.25 2.14-9.75 2.68-15.68 3.15.64-13.86-5.86-30.11-14.85-39.75z"/><path class="b" d="M187.9 13.24s51-9.77 55.22-7.21c.18.11-7.83 1.95-7.92 2.1-1.13 1.85-16.44 3.93-28.56 24.71-.94 1.61-6.3.68-10.75 1-1.46-10.4-5.2-15.83-7.99-20.6z"/></svg>