<svg xmlns="http://www.w3.org/2000/svg" viewBox="0 0 276.1 233.97"><defs><style>.a{fill:#87c460;}.b{fill:#7a9b64;}.c{fill:#ad844d;}.d{fill:#754c24;}.e{fill:#e0aa63;}</style></defs><title>yoda110</title><path class="a" d="M86.05 3.9S5.7-3.4.5 2a4.44 4.44 0 0 0-.47 2c1.59 2.59 37 9.18 54 38.27 1.31 2.25 10.24 2.81 16.47 3.3C69.79 31.06 76.61 14 86.05 3.9z"/><path class="b" d="M78.79 13.9s-53.51-10.26-58-7.58c-.19.11 8.22 2 8.32 2.21 1.19 1.94 17.26 4.13 30 25.94 1 1.69 6.61.72 11.28 1.09 1.56-10.94 5.49-16.66 8.4-21.66z"/><path class="c" d="M199.73 233.45H75.79c-6.93 0-16.8-57.12-16.8-55.65V88.02c0-6.93 5.67-1.05 12.6-1.05h132.3c6.93 0 12.6-5.88 12.6 1.05v89.78c.04 6.93-9.83 55.65-16.76 55.65z"/><path class="d" d="M183.98 233.45H92.1c-6.93 0-16.8-45.5-16.8-86.1V82.77c0-6.93 22.47 2.1 29.4 2.1h65.62c6.93 0 30.45-8 30.45-1.05v94c.02 6.91-9.86 55.63-16.79 55.63z"/><path class="e" d="M80.55 78.05c.54-3.42-3.41-7.87-3.41-7.87s-18.77-4.73-18.77 8.4c0 20.48 23.76 155.4 23.76 155.4l12.6-.52L75.56 84.21s4.68-4.22 4.99-6.16z"/><path class="e" d="M59.79 85.46s-11.25 5.12-14.78 16.09-22.46 71.56-17.22 80.64 23.4 8.62 29.3 6.09c10.88-4.67 5.81-14.19 5.81-14.19zM195.37 78.05c-.54-3.42 3.41-7.87 3.41-7.87s18.77-4.73 18.77 8.4c0 20.48-23.76 155.4-23.76 155.4l-12.6-.52 19.16-149.23s-4.67-4.24-4.98-6.18z"/><path class="e" d="M202.17 83.96s12.36-.16 20.23 8.25 50.86 55.13 50 65.56-17.49 17.78-23.91 18c-11.84.42-11.31-10.36-11.31-10.36l-27.23-53.83z"/><path class="a" d="M190.05 3.9s80.35-7.27 85.55-1.87a4.43 4.43 0 0 1 .47 2c-1.59 2.59-37 9.18-54 38.27-1.31 2.25-10.24 2.81-16.47 3.3.71-14.54-6.12-31.6-15.55-41.7z"/><path class="b" d="M197.29 13.9s53.51-10.26 58-7.58c.19.11-8.22 2-8.32 2.21-1.19 1.94-17.26 4.13-30 25.94-1 1.69-6.61.72-11.28 1.09-1.54-10.94-5.47-16.66-8.4-21.66z"/><path class="a" d="M86.05 3.9S5.7-3.4.5 2a4.44 4.44 0 0 0-.47 2c1.59 2.59 37 9.18 54 38.27 1.31 2.25 10.24 2.81 16.47 3.3C69.79 31.06 76.61 14 86.05 3.9z"/><path class="b" d="M78.79 13.9s-53.51-10.26-58-7.58c-.19.11 8.22 2 8.32 2.21 1.19 1.94 17.26 4.13 30 25.94 1 1.69 6.61.72 11.28 1.09 1.56-10.94 5.49-16.66 8.4-21.66z"/></svg>